<svg width="0" height="0" class="hidden">
	<symbol id="feat-clean" viewBox="0 0 100 100" fill="none" xmlns="http://www.w3.org/2000/svg">
		<g id="svg" clip-path="url(#clip0_2024_6798)">
			<circle id="Ellipse 657" cx="50" cy="50" r="50" fill="#EAEFF3" />
			<g id="Group 9901">
				<path id="Vector"
					d="M63.4232 38.8613C63.114 38.8235 62.8708 38.5804 62.8307 38.2712C62.6985 37.2184 62.3563 36.2247 61.811 35.3254C60.4514 33.0571 57.9659 31.6456 55.3249 31.6456C55.1597 31.6456 54.9944 31.6503 54.8363 31.6668C53.564 31.7494 52.3319 32.1507 51.2745 32.8258C51.0526 32.9674 50.7646 32.9674 50.5428 32.8281C49.3272 32.0563 47.9251 31.648 46.49 31.648C42.8361 31.648 39.7084 34.2468 39.0546 37.8277C39.005 38.1039 38.7855 38.3234 38.5093 38.373C34.9286 39.0339 32.3277 42.1567 32.3277 45.8012C32.3277 47.4038 32.8234 48.9334 33.7628 50.2222C33.9564 50.4865 33.9328 50.8524 33.7062 51.0908C32.3773 52.4952 31.6455 54.3363 31.6455 56.2742C31.6455 57.3199 31.858 58.3372 32.2734 59.2932C32.3041 59.3616 32.3655 59.4112 32.441 59.4253C32.5142 59.4395 32.5921 59.4159 32.644 59.3616C32.7361 59.2672 32.8328 59.1751 32.9343 59.0878C34.6551 57.5889 37.2019 57.3742 39.1329 58.5709C40.6624 59.5198 41.6113 61.2216 41.6113 63.0132L41.6089 63.1241C41.6066 63.1996 41.6443 63.2704 41.7057 63.3129C41.7671 63.3554 41.8473 63.3672 41.9158 63.3389C42.6121 63.0722 43.2636 62.7063 43.8489 62.2531C43.9953 62.1398 44.1865 62.0902 44.3682 62.1186C44.5523 62.1469 44.7176 62.2507 44.8238 62.4042C46.2376 64.4483 48.565 65.6709 51.0507 65.6709C54.3127 65.6709 57.1972 63.5938 58.2239 60.504C58.3088 60.2491 58.5378 60.0673 58.8069 60.0414C62.3097 59.718 65.0972 57.0673 65.5927 53.5951C65.6234 53.378 65.758 53.1891 65.9539 53.0876C68.4795 51.78 70.0468 49.2048 70.0468 46.3677C70.0468 42.5556 67.1978 39.331 63.4235 38.8664L63.4232 38.8613ZM43.7708 41.5734C43.7708 41.9487 43.4663 42.2532 43.091 42.2532C41.6559 42.2532 40.3458 43.0392 39.6732 44.302C39.3734 44.8637 39.2223 45.4751 39.2223 46.1171C39.2223 46.4924 38.9179 46.7969 38.5426 46.7969C38.1673 46.7969 37.8628 46.4924 37.8628 46.1171C37.8628 45.2626 38.0752 44.4129 38.4741 43.6623C39.3828 41.9534 41.1508 40.8912 43.091 40.8912C43.4663 40.8912 43.7708 41.1957 43.7708 41.571L43.7708 41.5734ZM61.7053 49.6318C61.7053 50.1747 61.6226 50.7034 61.4621 51.2062V51.2086C60.7823 53.3896 58.7807 54.8554 56.4841 54.8554C53.5997 54.8554 51.2535 52.5115 51.2535 49.6319C51.2535 48.7774 51.4659 47.9277 51.8648 47.1794C52.7735 45.4705 54.5438 44.4083 56.4841 44.4083C59.3637 44.4083 61.7076 46.7522 61.7076 49.6319L61.7053 49.6318ZM52.306 56.4581C52.306 58.0891 50.9771 59.418 49.3461 59.418C47.715 59.418 46.3862 58.0891 46.3862 56.4581C46.3862 54.8271 47.7127 53.4982 49.3461 53.4982C50.9771 53.4982 52.306 54.8271 52.306 56.4581Z"
					fill="currentColor" />
				<path id="Vector_2"
					d="M47.3475 71.2908C47.3475 73.9274 43.3891 73.9274 43.3891 71.2908C43.3891 68.6519 47.3475 68.6519 47.3475 71.2908Z"
					fill="currentColor" />
				<path id="Vector_3"
					d="M36.3864 58.7663C34.8097 58.7663 33.3722 59.6278 32.6358 61.0157C32.3053 61.6318 32.1401 62.3045 32.1401 63.0079C32.1401 65.3471 34.0449 67.2495 36.3888 67.2495C38.2252 67.2495 39.8893 66.0292 40.4298 64.2896C40.5619 63.8813 40.628 63.4493 40.628 63.0079C40.628 60.6688 38.7256 58.7663 36.3864 58.7663Z"
					fill="currentColor" />
				<path id="Vector_4"
					d="M71.7491 55.5866C70.6586 55.5866 69.7711 56.4741 69.7711 57.5645C69.7711 58.655 70.6587 59.5425 71.7491 59.5425C72.8396 59.5425 73.7271 58.655 73.7271 57.5645C73.7271 56.4741 72.8396 55.5866 71.7491 55.5866Z"
					fill="currentColor" />
				<path id="Vector_5"
					d="M49.3465 55.0816C48.5888 55.0816 47.9728 55.6976 47.9728 56.4553C47.9728 57.213 48.5888 57.829 49.3465 57.829C50.1042 57.829 50.7202 57.213 50.7202 56.4553C50.7202 55.6976 50.1042 55.0816 49.3465 55.0816Z"
					fill="currentColor" />
				<path id="Vector_6"
					d="M56.4803 45.994C55.1278 45.994 53.8957 46.7328 53.2631 47.9248C52.9799 48.4535 52.8383 49.0271 52.8383 49.6313C52.8383 51.6377 54.4716 53.2687 56.4827 53.2687C58.0571 53.2687 59.4827 52.223 59.9501 50.7266C60.0634 50.3749 60.1201 50.009 60.1201 49.6313C60.1201 47.625 58.489 45.994 56.4827 45.994H56.4803Z"
					fill="currentColor" />
			</g>
		</g>
		<defs>
			<clipPath id="clip0_2024_6798">
				<rect width="100" height="100" fill="white" />
			</clipPath>
		</defs>
	</symbol>
	<symbol id="plus" viewBox="0 0 24 24" stroke="none" xmlns="http://www.w3.org/2000/svg">
		<path
			d="M1.5 12.7382V11.0405H10.8376V2H12.7051V11.0405H22.0002V12.7382H12.7051V22.1606H10.8376V12.7382H1.5Z" />
	</symbol>
	<symbol id="feat-time" viewBox="0 0 100 100" fill="none" xmlns="http://www.w3.org/2000/svg">

		<g id="svg">
			<circle id="Ellipse 660" cx="50" cy="50" r="50" fill="#EAEFF3" />
			<path id="Vector" fill-rule="evenodd" clip-rule="evenodd"
				d="M39.8839 55.4105L36.5372 66.9217C36.2515 67.8716 35.2348 68.4298 34.2608 68.1612L32.2064 67.5924L33.9219 61.7034C33.9956 61.4344 33.8262 61.1458 33.5404 61.0626C33.2652 60.98 32.9689 61.1458 32.8837 61.4241L31.1683 67.3033L29.1139 66.7353L32.9684 53.4984L39.8839 55.4105ZM54.5816 39.539C54.539 39.2499 54.751 38.9917 55.0478 38.9608C55.3441 38.9193 55.6088 39.1262 55.6404 39.4162L56.5517 46.5769C56.5833 46.7618 56.4986 46.9379 56.3607 47.0411L48.2175 54.2228C47.995 54.4185 47.6566 54.3984 47.4551 54.1808C47.254 53.9636 47.2751 53.6334 47.4977 53.4475L55.4499 46.4321L54.5816 39.539ZM56.0218 31.6456C64.5044 31.6456 71.3873 38.3616 71.3873 46.6381C71.3873 50.0171 70.2433 53.1374 68.3057 55.6487C68.2842 55.659 68.2627 55.6791 68.2311 55.6898L60.3947 59.3682C60.2258 59.223 60.0458 59.0889 59.8553 58.9862C65.129 57.437 69.0046 52.7558 69.2377 47.1654H66.7387C66.4414 47.1654 66.2088 46.9276 66.2088 46.6381C66.2088 46.349 66.4414 46.1117 66.7387 46.1117H69.2377C68.962 39.405 63.4346 34.0116 56.5617 33.7431V36.1815C56.5617 36.471 56.3181 36.7083 56.0218 36.7083C55.7256 36.7083 55.4819 36.471 55.4819 36.1815V33.7431C48.6096 34.0116 43.0817 39.405 42.806 46.1112H45.305C45.6018 46.1112 45.8344 46.3485 45.8344 46.6376C45.8344 46.9272 45.6018 47.1649 45.305 47.1649H42.806C42.9223 50.0166 43.9921 52.6204 45.697 54.7076C44.9345 54.8006 44.1936 55.0079 43.4943 55.3176C41.7046 52.8684 40.6559 49.8719 40.6559 46.6376C40.6564 38.3616 47.5293 31.6456 56.0218 31.6456ZM55.4819 58.7896V57.1054C55.4819 56.8051 55.7256 56.579 56.0218 56.579C56.3186 56.579 56.5617 56.8051 56.5617 57.1054V58.769L55.4819 58.7896ZM37.8712 66.1669L40.4764 57.2292L42.3719 57.2698C43.9811 55.886 46.1943 55.3694 48.2702 55.886C49.71 56.247 50.9597 57.0844 51.839 58.2109C52.6651 59.2958 53.8617 59.8638 55.2488 59.8432L58.775 59.7713C59.6959 59.761 60.2574 60.8357 60.5005 61.4036C60.7867 62.0546 60.6384 62.8094 60.1305 63.3255C59.6112 63.8523 59.1139 63.8626 58.4356 63.8836L49.0537 64.0489C48.757 64.0489 48.5239 64.2871 48.5239 64.5753C48.5344 64.8653 48.778 65.103 49.0748 65.0923L58.7961 64.9162C58.8387 64.9162 58.8808 64.9162 58.9234 64.9162C59.6959 64.8858 60.3947 64.5552 60.9035 64.0489C61.7081 63.233 61.9412 62.0346 61.4966 61.001C61.3802 60.7212 61.2108 60.4639 61.0093 60.236L68.771 56.6094C70.709 55.3176 73.0812 57.6117 71.7783 59.5228L59.2407 68.7917C58.193 69.5558 56.9643 69.8043 55.6935 69.4834L41.9277 66.0735L37.8712 66.1669Z"
				fill="currentColor" />
		</g>
	</symbol>
	<symbol id="feat-quality" viewBox="0 0 100 100" fill="none" xmlns="http://www.w3.org/2000/svg">

		<g id="svg">
			<circle id="Ellipse 659" cx="50" cy="50" r="50" fill="#EAEFF3" />
			<g id="Group 9902">
				<path id="Vector" fill-rule="evenodd" clip-rule="evenodd"
					d="M46.6159 30.1423C48.5925 28.7712 51.2122 28.7712 53.1887 30.1423L55.1814 31.5243C55.6661 31.8612 56.2427 32.0396 56.83 32.0396L59.2678 32.0342C61.7416 32.0306 63.9417 33.6035 64.7378 35.9476L65.3972 37.8917C65.5972 38.479 65.981 38.9871 66.4927 39.3403L68.1935 40.5114C70.3268 41.978 71.2187 44.6879 70.3773 47.1345L69.7845 48.8588C69.5755 49.466 69.5755 50.1254 69.7845 50.7326L70.3773 52.4569C71.2187 54.9037 70.3268 57.6136 68.1935 59.0799L66.4927 60.2511C65.981 60.6042 65.5972 61.1123 65.3972 61.6997L64.7378 63.6438C63.9414 65.9878 61.7415 67.5608 59.2678 67.5572L56.83 67.5518C56.2427 67.5518 55.6661 67.7301 55.1814 68.0671L53.1887 69.449C51.2122 70.8202 48.5925 70.8202 46.6159 69.449L44.6232 68.0671C44.1385 67.7302 43.5637 67.5518 42.9746 67.5518L40.5387 67.5572C38.0648 67.5608 35.863 65.9879 35.0669 63.6438L34.4074 61.6997C34.2074 61.1123 33.8255 60.6042 33.3119 60.2511L31.6111 59.0799C29.4778 57.6133 28.5859 54.9035 29.4274 52.4569L30.0202 50.7326C30.2292 50.1254 30.2292 49.466 30.0202 48.8588L29.4274 47.1345C28.5859 44.6877 29.4778 41.9777 31.6111 40.5114L33.3119 39.3403C33.8255 38.9871 34.2074 38.479 34.4074 37.8917L35.0669 35.9476C35.8633 33.6035 38.065 32.0306 40.5387 32.0342L42.9746 32.0396C43.5637 32.0396 44.1385 31.8612 44.6232 31.5243L46.6159 30.1423ZM49.9023 36.823C42.7437 36.823 36.9297 42.6371 36.9297 49.7957C36.9297 56.9542 42.7437 62.7683 49.9023 62.7683C57.0623 62.7683 62.8749 56.9542 62.8749 49.7957C62.8749 42.6371 57.0623 36.823 49.9023 36.823Z"
					fill="currentColor" />
				<path id="Vector_2" fill-rule="evenodd" clip-rule="evenodd"
					d="M49.9011 39.706C55.4702 39.706 59.9909 44.2284 59.9909 49.7958C59.9909 55.3632 55.4703 59.8856 49.9011 59.8856C44.3319 59.8856 39.8113 55.3632 39.8113 49.7958C39.8113 44.2284 44.3319 39.706 49.9011 39.706ZM44.5589 50.8156L47.4399 53.6984C48.0039 54.2606 48.9155 54.2606 49.4795 53.6984L55.2433 47.9328C55.8072 47.3706 55.8072 46.4572 55.2433 45.8932C54.6811 45.331 53.7676 45.331 53.2055 45.8932L48.4597 50.6408L46.5967 48.776C46.0345 48.2138 45.121 48.2138 44.5589 48.776C43.9949 49.3382 43.9949 50.2534 44.5589 50.8156Z"
					fill="currentColor" />
			</g>
		</g>
	</symbol>
	<symbol id="feat-quiet" viewBox="0 0 100 100" fill="none" xmlns="http://www.w3.org/2000/svg">

		<g id="svg">
			<circle id="Ellipse 658" cx="50" cy="50" r="50" fill="#EAEFF3" />
			<g id="Group 9898">
				<path id="Vector" fill-rule="evenodd" clip-rule="evenodd"
					d="M29.5091 32.0411C30.0363 31.5138 30.8913 31.5138 31.4185 32.0411L69.2244 69.847C69.7518 70.3743 69.7518 71.2292 69.2244 71.7565C68.6972 72.2838 67.8422 72.2838 67.315 71.7565L61.2685 65.71C60.169 69.1941 55.6856 70.745 52.6308 68.1685L43.633 60.5794C42.6579 59.7571 41.4213 59.3053 40.1427 59.3053H36.5398C32.4424 59.3053 29.1136 55.9932 29.1136 51.8988C29.1136 47.8043 32.4424 44.4923 36.5398 44.4923H40.0508L29.5091 33.9506C28.9818 33.4233 28.9818 32.5684 29.5091 32.0411ZM43.2908 47.7323V57.2401C44.0402 57.5553 44.7435 57.9837 45.3741 58.5155L54.3719 66.1046C56.1329 67.5899 58.8182 66.335 58.8182 64.0543V63.2597L43.2908 47.7323ZM40.5904 47.1801C40.4417 47.1883 40.2924 47.1924 40.1427 47.1924H36.5398C33.9258 47.1924 31.814 49.3035 31.814 51.8988C31.814 54.4941 33.9258 56.6052 36.5398 56.6052H40.1427C40.2924 56.6052 40.4417 56.6093 40.5904 56.6175V47.1801Z"
					fill="currentColor" />
				<path id="Vector_2"
					d="M61.5191 58.7658V39.7434C61.5191 39.7255 61.519 39.7076 61.5188 39.6897C61.477 35.1299 56.1216 32.6852 52.6312 35.6292L44.9018 42.1485L61.5191 58.7658Z"
					fill="currentColor" />
				<path id="Vector_3"
					d="M62.8705 60.1155L64.6938 61.9388C64.7578 61.9148 64.8195 61.8861 64.8785 61.8531C65.2916 61.6223 65.5709 61.1807 65.5709 60.6738V43.1229C65.5709 43.0297 65.5615 42.9387 65.5435 42.8508C65.4176 42.2356 64.8732 41.7728 64.2207 41.7728C63.475 41.7728 62.8705 42.3773 62.8705 43.1229V60.1155Z"
					fill="currentColor" />
				<path id="Vector_4"
					d="M66.9476 46.9014C67.0735 46.2862 67.6179 45.8234 68.2704 45.8234C68.317 45.8234 68.363 45.8258 68.4084 45.8304C69.0893 45.8995 69.6206 46.4745 69.6206 47.1735V56.624C69.6206 57.3696 69.016 57.9741 68.2704 57.9741C67.5246 57.9741 66.9202 57.3696 66.9202 56.624V47.1735C66.9202 47.0802 66.9296 46.9892 66.9476 46.9014Z"
					fill="currentColor" />
			</g>
		</g>
	</symbol>
	<symbol id="play" viewBox="0 0 65 65" fill="none" xmlns="http://www.w3.org/2000/svg">
		<foreignObject x="-24" y="-24" width="113" height="113">
			<div xmlns="http://www.w3.org/1999/xhtml"
				style="backdrop-filter:blur(12px);clip-path:url(#bgblur_0_211_1234_clip_path);height:100%;width:100%"></div>
		</foreignObject>
		<circle data-figma-bg-blur-radius="24" cx="32.5" cy="32.5" r="32.5" fill="#1559BF" />
		<path d="M45 33L27 43.3923L27 22.6077L45 33Z" fill="white" />
		<defs>
			<clipPath id="bgblur_0_211_1234_clip_path" transform="translate(24 24)">
				<circle cx="32.5" cy="32.5" r="32.5" />
			</clipPath>
		</defs>
	</symbol>
	<symbol id="arrow-down" viewBox="0 0 49 49" fill="none" xmlns="http://www.w3.org/2000/svg">
		<circle cx="24.5" cy="24.5" r="24.5" fill="#1559BF" />
		<path d="M24.5 15v18m0 0-6-6m6 6 6-6" stroke="#fff" stroke-width="2" stroke-linecap="round"
			stroke-linejoin="round" />
	</symbol>
	<symbol id="arrow-top-right" viewBox="0 0 38 38" fill="none" xmlns="http://www.w3.org/2000/svg">
		<path
			d="M27.1912 27.8425C27.0147 27.581 26.9346 27.2545 27.0016 26.9087L29.4792 14.1381L16.7086 11.6606C16.0401 11.5309 15.5941 10.8703 15.7238 10.2018C15.8535 9.53333 16.5141 9.08742 17.1826 9.21711L31.1749 11.9317C31.8434 12.0614 32.2894 12.7219 32.1597 13.3904L29.4451 27.3828C29.3154 28.0513 28.6548 28.4972 27.9864 28.3675C27.6499 28.3142 27.3677 28.104 27.1912 27.8425Z"
			fill="#2D68FF" />
		<path
			d="M6.51119 29.6428C6.13031 29.0785 6.28236 28.2948 6.8466 27.9139L30.0078 12.2792C30.5721 11.8983 31.3558 12.0504 31.7367 12.6146C32.1176 13.1788 31.9655 13.9626 31.4013 14.3435L8.24007 29.9782C7.67583 30.3591 6.89207 30.207 6.51119 29.6428Z"
			fill="#2D68FF" />
	</symbol>
	<symbol id="cart" viewBox="0 0 24 24" stroke="none" xmlns="http://www.w3.org/2000/svg">
		<path
			d="M4.52495 5C4.235 5 3.99995 5.23505 3.99995 5.525C3.99995 5.81495 4.235 6.05 4.52495 6.05H6.26949C7.1384 8.20206 7.99428 10.3581 8.8562 12.5141L8.06324 14.4226C7.99681 14.5818 8.0155 14.7737 8.11139 14.917C8.20729 15.0603 8.37753 15.1507 8.54995 15.15H17.3C17.5773 15.1538 17.8324 14.9024 17.8324 14.625C17.8324 14.3476 17.5773 14.0961 17.3 14.1H9.33745L9.79137 13.0172L18.2187 12.3445C18.4393 12.3272 18.639 12.1554 18.689 11.9398L19.739 7.38984C19.8077 7.08338 19.539 6.74898 19.225 6.75H7.68041L7.11166 5.32812C7.03379 5.13566 6.83257 5.00001 6.62495 5H4.52495ZM8.10152 7.8H11.35V9.375H8.73041L8.10152 7.8ZM12.4 7.8H14.5V9.375H12.4V7.8ZM15.55 7.8H18.5632L18.2023 9.375H15.55V7.8ZM9.15152 10.425H11.35V11.8414L9.76949 11.9672L9.15152 10.425ZM12.4 10.425H14.5V11.5898L12.4 11.7594V10.425ZM15.55 10.425H17.9562L17.7484 11.3328L15.55 11.5078V10.425ZM10.3 15.5C9.33968 15.5 8.54995 16.2897 8.54995 17.25C8.54995 18.2103 9.33968 19 10.3 19C11.2602 19 12.05 18.2103 12.05 17.25C12.05 16.2897 11.2602 15.5 10.3 15.5ZM15.55 15.5C14.5897 15.5 13.8 16.2897 13.8 17.25C13.8 18.2103 14.5897 19 15.55 19C16.5102 19 17.3 18.2103 17.3 17.25C17.3 16.2897 16.5102 15.5 15.55 15.5ZM10.3 16.55C10.6928 16.55 11 16.8572 11 17.25C11 17.6428 10.6928 17.95 10.3 17.95C9.90717 17.95 9.59995 17.6428 9.59995 17.25C9.59995 16.8572 9.90717 16.55 10.3 16.55ZM15.55 16.55C15.9427 16.55 16.25 16.8572 16.25 17.25C16.25 17.6428 15.9427 17.95 15.55 17.95C15.1571 17.95 14.85 17.6428 14.85 17.25C14.85 16.8572 15.1571 16.55 15.55 16.55Z" />
	</symbol>
	<symbol stroke="none" xmlns="http://www.w3.org/2000/svg" viewBox="0 0 24 24" id="burger">
		<path
			d="M23 12.6667H1C0.448 12.6667 0 12.2187 0 11.6667C0 11.1147 0.448 10.6667 1 10.6667H23C23.552 10.6667 24 11.1147 24 11.6667C24 12.2187 23.552 12.6667 23 12.6667ZM23 5H1C0.448 5 0 4.552 0 4C0 3.448 0.448 3 1 3H23C23.552 3 24 3.448 24 4C24 4.552 23.552 5 23 5ZM23 20.3333H1C0.448 20.3333 0 19.8853 0 19.3333C0 18.7813 0.448 18.3333 1 18.3333H23C23.552 18.3333 24 18.7813 24 19.3333C24 19.8853 23.552 20.3333 23 20.3333Z"
			fill-opacity="0.8"></path>
	</symbol>
	<symbol fill="none" xmlns="http://www.w3.org/2000/svg" viewBox="0 0 24 24" id="buscet">
		<path
			d="M5.99954 6C5.99954 4.93913 6.42097 3.92172 7.17111 3.17157C7.92126 2.42143 8.93867 2 9.99954 2H13.9995C15.0604 2 16.0778 2.42143 16.828 3.17157C17.5781 3.92172 17.9995 4.93913 17.9995 6V8H21.9995C22.1447 8.00007 22.2881 8.03174 22.4198 8.09281C22.5515 8.15388 22.6683 8.24288 22.7621 8.35365C22.8559 8.46441 22.9245 8.59427 22.9631 8.73421C23.0017 8.87415 23.0093 9.02081 22.9855 9.164L21.4035 18.658C21.2478 19.5916 20.7661 20.4398 20.044 21.0517C19.3218 21.6636 18.4061 21.9996 17.4595 22H6.53954C5.59284 21.9999 4.67686 21.664 3.95451 21.052C3.23216 20.4401 2.75027 19.5918 2.59454 18.658L1.01354 9.164C0.989734 9.02081 0.997387 8.87415 1.03597 8.73421C1.07455 8.59427 1.14314 8.46441 1.23696 8.35365C1.33079 8.24288 1.4476 8.15388 1.57929 8.09281C1.71098 8.03174 1.85438 8.00007 1.99954 8H5.99954V6ZM7.99954 8H12.9995C13.2648 8 13.5191 8.10536 13.7066 8.29289C13.8942 8.48043 13.9995 8.73478 13.9995 9C13.9995 9.26522 13.8942 9.51957 13.7066 9.70711C13.5191 9.89464 13.2648 10 12.9995 10H3.17954L4.56854 18.329C4.64636 18.7957 4.88709 19.2196 5.24795 19.5255C5.60882 19.8315 6.06645 19.9996 6.53954 20H17.4595C17.9328 19.9998 18.3907 19.8318 18.7517 19.5259C19.1128 19.2199 19.3537 18.7958 19.4315 18.329L20.8195 10H16.9995C16.7343 10 16.48 9.89464 16.2924 9.70711C16.1049 9.51957 15.9995 9.26522 15.9995 9V6C15.9995 5.46957 15.7888 4.96086 15.4138 4.58579C15.0387 4.21071 14.53 4 13.9995 4H9.99954C9.46911 4 8.9604 4.21071 8.58533 4.58579C8.21025 4.96086 7.99954 5.46957 7.99954 6V8Z"
			fill="#0A2540"></path>
	</symbol>
	<symbol fill="none" xmlns="http://www.w3.org/2000/svg" viewBox="0 0 16 16" id="chevron-right">
		<path
			d="M5.49999 13.5C5.43432 13.5001 5.36929 13.4872 5.30862 13.462C5.24796 13.4369 5.19286 13.4 5.14649 13.3535C5.10003 13.3071 5.06317 13.252 5.03803 13.1913C5.01288 13.1307 4.99994 13.0657 4.99994 13C4.99994 12.9343 5.01288 12.8693 5.03803 12.8087C5.06317 12.748 5.10003 12.6929 5.14649 12.6465L9.79299 8L5.14649 3.3535C4.95111 3.15812 4.95111 2.84175 5.14649 2.6465C5.34186 2.45125 5.65824 2.45112 5.85349 2.6465L10.8535 7.6465C10.8999 7.6929 10.9368 7.74801 10.9619 7.80866C10.9871 7.86932 11 7.93434 11 8C11 8.06566 10.9871 8.13068 10.9619 8.19134C10.9368 8.25199 10.8999 8.3071 10.8535 8.3535L5.85349 13.3535C5.80712 13.4 5.75202 13.4369 5.69135 13.462C5.63069 13.4872 5.56566 13.5001 5.49999 13.5Z"
			fill="#0A2540"></path>
	</symbol>
	<symbol fill="none" xmlns="http://www.w3.org/2000/svg" viewBox="0 0 22 22" id="email">
		<path
			d="M9.92155 11.1256C10.496 11.5086 11.504 11.5087 12.0786 11.1256L12.0789 11.1254L21.87 4.59793C21.5489 3.66911 20.6661 3 19.6295 3H2.37042C1.33379 3 0.451077 3.66911 0.129883 4.59793L9.92125 11.1255L9.92155 11.1256Z"
			fill="#6488FF"></path>
		<path
			d="M12.7939 12.198L12.7936 12.1982C12.2907 12.5334 11.6453 12.701 11 12.701C10.3546 12.701 9.70938 12.5335 9.20651 12.1982L9.2063 12.1981L0 6.06056V17.1067C0 18.4137 1.06336 19.477 2.37043 19.477H19.6297C20.9367 19.477 22 18.4137 22 17.1067V6.06056L12.7939 12.198Z"
			fill="#6488FF"></path>
	</symbol>
	<symbol fill="none" xmlns="http://www.w3.org/2000/svg" viewBox="0 0 24 24" id="heart">
		<path fill-rule="evenodd" clip-rule="evenodd"
			d="M10.567 3.94615C9.09696 2.93842 7.34511 2.73518 5.64336 3.48395C3.42397 4.40869 1.29705 7.09046 2.2218 10.7894C2.86912 14.1186 5.45841 16.5229 7.58532 18.0025C8.59444 18.7173 9.5462 19.2791 10.3015 19.6794C10.3329 19.696 10.364 19.7123 10.3947 19.7284C10.9362 20.0119 11.369 20.2084 11.6385 20.3144C11.7946 20.3758 11.8959 20.4068 11.9316 20.4068H12.1166C12.209 20.4068 12.3015 20.4068 12.3015 20.3144C12.5789 20.2219 14.4284 19.3896 16.5553 17.91C18.5898 16.4304 21.1791 14.0261 21.9189 10.6045C22.7511 6.99798 20.6242 4.31622 18.4048 3.39147C16.7111 2.71399 14.9182 2.92991 13.4623 3.93014C12.9309 4.2952 12.4444 4.76473 12.0241 5.33344C11.5848 4.77214 11.094 4.30744 10.567 3.94615ZM15.3959 16.2802C17.3145 14.8819 19.3859 12.8555 19.964 10.1818L19.967 10.1683L19.9701 10.1548C20.548 7.65052 19.107 5.85784 17.6487 5.24312C16.2359 4.68439 14.6939 5.08614 13.6324 6.52222L12.0696 8.63669L10.4491 6.56606C9.26159 5.0487 7.80189 4.71923 6.44883 5.31458L6.43079 5.32252L6.41259 5.3301C4.96813 5.93196 3.51189 7.70359 4.16208 10.3044L4.17492 10.3557L4.18503 10.4077C4.67955 12.951 6.72297 14.9663 8.72745 16.3607L8.73442 16.3655L8.74136 16.3705C9.76562 17.096 10.7241 17.6492 11.4367 18.0159C11.6407 18.1209 11.8206 18.2087 11.9726 18.2794C12.1642 18.1896 12.4427 18.0538 12.7979 17.8654C13.4983 17.494 14.4154 16.9611 15.3959 16.2802Z"
			fill="#0A2540"></path>
	</symbol>
	<symbol fill="none" xmlns="http://www.w3.org/2000/svg" viewBox="0 0 24 24" id="location">
		<path
			d="M10.1916 6.48724C11.3163 5.83786 12.6789 5.83734 13.8068 6.48752L13.8934 6.53739C14.8927 7.14581 15.6192 8.16021 15.8878 9.35371C16.1638 10.5796 15.9246 11.8683 15.2372 12.9003C14.0069 14.7441 12.713 16.683 12.0002 17.7507C11.9603 17.691 11.9186 17.6285 11.8751 17.5635C11.1426 16.4667 9.9247 14.643 8.76357 12.9007L8.76236 12.8989C8.07444 11.8716 7.8362 10.5837 8.11267 9.35336C8.38874 8.1247 9.14837 7.08939 10.1916 6.48724Z"
			stroke="#6488FF" stroke-width="2" stroke-linejoin="round"></path>
		<circle cx="12" cy="11" r="2" fill="#6488FF"></circle>
	</symbol>
	<symbol fill="none" xmlns="http://www.w3.org/2000/svg" viewBox="0 0 37 37" id="max">
		<g clip-path="url(#clip0_2002_8070)">
			<path
				d="M27.7618 0H9.2382C4.13608 0 0 4.13608 0 9.2382V27.7618C0 32.8639 4.13608 37 9.2382 37H27.7618C32.8639 37 37 32.8639 37 27.7618V9.2382C37 4.13608 32.8639 0 27.7618 0Z"
				fill="url(#paint0_linear_2002_8070)"></path>
			<path
				d="M27.7618 0H9.2382C4.13608 0 0 4.13608 0 9.2382V27.7618C0 32.8639 4.13608 37 9.2382 37H27.7618C32.8639 37 37 32.8639 37 27.7618V9.2382C37 4.13608 32.8639 0 27.7618 0Z"
				fill="url(#paint1_radial_2002_8070)"></path>
			<path fill-rule="evenodd" clip-rule="evenodd"
				d="M18.8038 32.4981C16.0286 32.4981 14.7389 32.093 12.4971 30.4724C11.079 32.2956 6.58868 33.7204 6.39284 31.2827C6.39284 29.4528 5.98769 27.9065 5.52852 26.2184C4.98158 24.1386 4.36035 21.8225 4.36035 18.4666C4.36035 10.4514 10.9372 4.42149 18.7296 4.42149C26.5286 4.42149 32.6396 10.7485 32.6396 18.5408C32.6658 26.2126 26.4756 32.4572 18.8038 32.4981ZM18.9186 11.3495C15.1238 11.1537 12.1662 13.7804 11.5112 17.8994C10.971 21.3094 11.9298 25.4621 12.7469 25.6782C13.1385 25.7727 14.1244 24.9759 14.7389 24.3615C15.7549 25.0634 16.9381 25.4849 18.1691 25.5836C22.1012 25.7728 25.4611 22.7793 25.7251 18.8515C25.8788 14.9154 22.8513 11.5815 18.9186 11.3563V11.3495Z"
				fill="white"></path>
		</g>
		<defs>
			<linearGradient id="paint0_linear_2002_8070" x1="4.36034" y1="28.1398" x2="37" y2="18.5"
				gradientUnits="userSpaceOnUse">
				<stop stop-color="#44CCFF"></stop>
				<stop offset="0.662" stop-color="#5533EE"></stop>
				<stop offset="1" stop-color="#9933DD"></stop>
			</linearGradient>
			<radialGradient id="paint1_radial_2002_8070" cx="0" cy="0" r="1"
				gradientUnits="userSpaceOnUse"
				gradientTransform="translate(-0.880259 -16.2499) rotate(51.356) scale(44.9001 18.5)">
				<stop stop-color="#0000FF"></stop>
				<stop offset="1" stop-opacity="0"></stop>
			</radialGradient>
			<clipPath id="clip0_2002_8070">
				<rect width="37" height="37" rx="18.5" fill="white"></rect>
			</clipPath>
		</defs>
	</symbol>
	<symbol fill="none" xmlns="http://www.w3.org/2000/svg" viewBox="0 0 22 22" id="phone">
		<path
			d="M10.7451 1.50177C10.624 1.49108 10.504 1.52911 10.4114 1.60755C10.3188 1.68599 10.2606 1.79889 10.2511 1.91892C10.2309 2.17087 10.4174 2.39075 10.6691 2.41095C12.7612 2.58684 14.7775 3.38193 16.3174 4.81881C16.3186 4.82 16.321 4.82 16.3222 4.82118C16.4196 4.91507 16.5169 5.01134 16.6179 5.10879H16.6167L16.6262 5.1183C18.3894 6.71086 19.3821 8.96645 19.5899 11.3198V11.3186C19.6006 11.4399 19.6576 11.5516 19.7502 11.6288C19.8428 11.7072 19.9627 11.7453 20.0838 11.7346C20.2038 11.7239 20.3154 11.6668 20.3937 11.5741C20.4709 11.4814 20.5089 11.3614 20.4982 11.2402C20.2726 8.68615 19.1933 6.20697 17.2388 4.44202C17.1426 4.35051 17.0464 4.25424 16.9467 4.15916C16.9443 4.15679 16.9431 4.1556 16.9419 4.15441C15.2344 2.55947 13.0191 1.69314 10.7451 1.50177ZM3.8179 3.01946C3.67304 3.02184 3.52937 3.04323 3.38925 3.08007C2.83119 3.22982 2.34672 3.64935 2.17929 4.27449L1.72334 5.97281C1.11777 8.23329 1.76371 10.6458 3.41773 12.3015L9.69197 18.5815C11.346 20.2371 13.7564 20.8824 16.0149 20.2763L17.7116 19.8235C18.9608 19.4883 19.3906 17.8767 18.4775 16.9628L16.3224 14.8069C15.5601 14.0439 14.4226 13.7896 13.4086 14.1557L13.0963 14.2686C12.258 14.5704 11.3259 14.3601 10.6954 13.729L8.26839 11.2998C7.6379 10.6687 7.42773 9.73573 7.73052 8.89668L7.84332 8.58531C8.20902 7.56918 7.95493 6.4318 7.19264 5.66762L5.03755 3.51174C4.6944 3.16827 4.25389 3.01496 3.8193 3.02208L3.8179 3.01946ZM10.3259 3.69453V3.69572C10.0742 3.67908 9.85688 3.86923 9.84025 4.11999C9.83194 4.24122 9.87231 4.36125 9.95187 4.45156C10.0302 4.54307 10.143 4.60012 10.2641 4.60725C11.9289 4.72016 13.5473 5.33578 14.7881 6.44583V6.44702H14.7905C15.5563 7.13039 16.2011 7.94569 16.6369 8.85963V8.85844C16.6381 8.86319 16.6404 8.86676 16.6416 8.87032C17.0976 9.75693 17.3505 10.7291 17.4134 11.7179C17.4206 11.8391 17.4764 11.952 17.5678 12.0329C17.658 12.1125 17.778 12.1529 17.8979 12.1446C18.019 12.1375 18.1318 12.0816 18.2113 11.9913C18.2921 11.8998 18.3324 11.7809 18.3241 11.6597C18.2541 10.5592 17.9715 9.46817 17.4573 8.4663L17.455 8.46393C16.9598 7.42519 16.2379 6.5184 15.3949 5.76609C13.9854 4.50512 12.1722 3.82175 10.3246 3.69576L10.3259 3.69453ZM9.89846 5.86468C9.64674 5.85755 9.43658 6.05602 9.42944 6.30797C9.42231 6.55874 9.61823 6.76909 9.86995 6.77743C11.2711 6.82259 12.6033 7.39901 13.5948 8.39256C14.5863 9.38493 15.1633 10.716 15.2085 12.1184V12.1172C15.212 12.2384 15.2631 12.3537 15.3509 12.4369C15.44 12.5201 15.5575 12.5641 15.6787 12.5605C15.9304 12.5522 16.1275 12.3406 16.1192 12.0887C16.0669 10.4545 15.396 8.9035 14.2419 7.74705C13.0866 6.59066 11.5323 5.91681 9.89969 5.86569L9.89846 5.86468Z"
			fill="#6488FF"></path>
	</symbol>
	<symbol fill="none" xmlns="http://www.w3.org/2000/svg" viewBox="0 0 24 24" id="search">
		<path
			d="M11 5.00001C10.2121 5.00001 9.43185 5.1552 8.7039 5.45673C7.97595 5.75826 7.31451 6.20021 6.75736 6.75736C6.20021 7.31452 5.75825 7.97595 5.45672 8.7039C5.15519 9.43186 5 10.2121 5 11C5 11.7879 5.15519 12.5682 5.45672 13.2961C5.75825 14.0241 6.20021 14.6855 6.75736 15.2426C7.31451 15.7998 7.97595 16.2418 8.7039 16.5433C9.43185 16.8448 10.2121 17 11 17C12.5913 17 14.1174 16.3679 15.2426 15.2426C16.3679 14.1174 17 12.5913 17 11C17 9.40871 16.3679 7.88258 15.2426 6.75736C14.1174 5.63215 12.5913 5.00001 11 5.00001ZM3 11C3.00005 9.72415 3.30525 8.46682 3.89012 7.33293C4.475 6.19903 5.3226 5.22147 6.36217 4.48183C7.40175 3.74218 8.60315 3.2619 9.86612 3.08107C11.1291 2.90024 12.417 3.0241 13.6224 3.44231C14.8277 3.86053 15.9156 4.56097 16.7951 5.48519C17.6747 6.4094 18.3204 7.53058 18.6785 8.75516C19.0366 9.97973 19.0965 11.2722 18.8534 12.5247C18.6103 13.7771 18.0712 14.9533 17.281 15.955L21.7 20.285C21.7939 20.3769 21.8688 20.4864 21.9203 20.6073C21.9719 20.7282 21.9992 20.858 22.0006 20.9894C22.0019 21.1208 21.9774 21.2512 21.9285 21.3731C21.8795 21.495 21.8069 21.6061 21.715 21.7C21.6231 21.7939 21.5136 21.8688 21.3927 21.9203C21.2718 21.9719 21.142 21.9992 21.0106 22.0006C20.8792 22.002 20.7488 21.9775 20.6269 21.9285C20.505 21.8795 20.3939 21.8069 20.3 21.715L15.856 17.358C14.6705 18.2635 13.2555 18.8194 11.7708 18.9632C10.286 19.1069 8.79067 18.8326 7.45356 18.1714C6.11645 17.5101 4.99086 16.4881 4.20389 15.2209C3.41692 13.9537 2.99993 12.4917 3 11Z"
			fill="black" fill-opacity="0.8"></path>
	</symbol>
	<symbol fill="none" xmlns="http://www.w3.org/2000/svg" viewBox="0 0 38 38" id="tg">
		<rect width="37.2" height="37.2" rx="18.6" fill="#27A6E5"></rect>
		<path
			d="M26.04 11.7201L23.245 26.3119C23.245 26.3119 22.8539 27.3236 21.7796 26.8384L15.3307 21.718L15.3007 21.7029C16.1718 20.8929 22.9267 14.6035 23.222 14.3185C23.679 13.8769 23.3953 13.6141 22.8646 13.9476L12.8868 20.5093L9.0374 19.1681C9.0374 19.1681 8.43161 18.9449 8.37334 18.4597C8.31429 17.9737 9.05734 17.7109 9.05734 17.7109L24.7502 11.3358C24.7502 11.3358 26.04 10.7489 26.04 11.7201V11.7201Z"
			fill="#FEFEFE"></path>
	</symbol>
	<symbol id="line" viewBox="0 0 637 2" fill="none" xmlns="http://www.w3.org/2000/svg">
		<rect width="637" height="2" fill="#2D68FF" />
	</symbol>
	<symbol fill="none" xmlns="http://www.w3.org/2000/svg" viewBox="0 0 36 36" id="rt">
		<rect width="36" height="36" rx="8" fill="#100943" />
		<path d="M36 18C26.0589 18 18 9.94112 18 0H28C28 0 35.5 0 36 8V18Z" fill="#ED143B" />
		<path
			d="M22.2372 17.1781H11.6015V12.9695H22.2372C22.8584 12.9695 23.2904 13.0778 23.5072 13.2668C23.724 13.456 23.8582 13.8067 23.8582 14.319V15.8302C23.8582 16.37 23.724 16.7207 23.5072 16.9099C23.2904 17.0989 22.8584 17.1798 22.2372 17.1798V17.1781ZM22.9668 9.00161H7.09094V27H11.6015V21.1444H19.9139L23.8582 27H28.9091L24.5604 21.1169C26.1637 20.8793 26.8836 20.388 27.4773 19.5782C28.071 18.7685 28.3688 17.4739 28.3688 15.7462V14.3966C28.3688 13.3719 28.2603 12.5622 28.071 11.9416C27.8818 11.3209 27.5583 10.7811 27.0988 10.2962C26.6134 9.83722 26.0731 9.51395 25.4243 9.29738C24.7755 9.1083 23.965 9 22.9668 9V9.00161Z"
			fill="white" />
	</symbol>
	<symbol fill="none" xmlns="http://www.w3.org/2000/svg" viewBox="0 0 37 37" id="vk">
		<rect width="37" height="37" rx="18.5" fill="#0077FF"></rect>
		<path
			d="M19.4088 24.9754C12.456 24.9754 8.49025 20.1143 8.32501 12.0254H11.8078C11.9222 17.9624 14.4898 20.4772 16.5235 20.9958V12.0254H19.8029V17.1458C21.8112 16.9254 23.9212 14.5921 24.633 12.0254H27.9124C27.6441 13.3565 27.1095 14.6169 26.3418 15.7277C25.5741 16.8385 24.59 17.7758 23.4509 18.4809C24.7224 19.1253 25.8454 20.0373 26.7459 21.1568C27.6464 22.2762 28.3039 23.5777 28.675 24.9754H25.0651C24.732 23.7614 24.055 22.6747 23.1189 21.8515C22.1828 21.0283 21.0293 20.5051 19.8029 20.3476V24.9754H19.4088V24.9754Z"
			fill="white"></path>
	</symbol>
	<symbol fill="none" xmlns="http://www.w3.org/2000/svg" viewBox="0 0 37 37" id="pint">
		<path
			d="M37 18.5C37 8.28273 28.7173 0 18.5 0C8.28273 0 0 8.28273 0 18.5C0 28.7173 8.28273 37 18.5 37C28.7173 37 37 28.7173 37 18.5Z"
			fill="#E60023"></path>
		<path
			d="M18.5 9.25195C13.4125 9.25195 9.25 13.4145 9.25 18.502C9.25 22.3176 11.5625 25.5551 14.8 26.9426C14.8 26.2488 14.8 25.5551 14.9156 24.8613C15.1469 24.052 16.0719 19.7738 16.0719 19.7738C16.0719 19.7738 15.725 19.1957 15.725 18.2707C15.725 16.8832 16.5344 15.8426 17.4594 15.8426C18.2688 15.8426 18.7312 16.4207 18.7312 17.2301C18.7312 18.0395 18.1531 19.3113 17.9219 20.4676C17.6906 21.3926 18.3844 22.202 19.425 22.202C21.1594 22.202 22.3156 20.0051 22.3156 17.2301C22.3156 15.1488 20.9281 13.6457 18.5 13.6457C15.725 13.6457 13.9906 15.727 13.9906 18.0395C13.9906 18.8488 14.2219 19.427 14.5688 19.8895C14.6844 20.1207 14.8 20.1207 14.6844 20.352C14.6844 20.4676 14.5687 20.9301 14.4531 21.0457C14.3375 21.277 14.2219 21.3926 13.9906 21.277C12.7188 20.6988 12.1406 19.3113 12.1406 17.6926C12.1406 15.0332 14.3375 11.9113 18.7312 11.9113C22.3156 11.9113 24.6281 14.4551 24.6281 17.2301C24.6281 20.8145 22.6625 23.5895 19.6562 23.5895C18.6156 23.5895 17.6906 23.0113 17.3437 22.4332C17.3437 22.4332 16.7656 24.5145 16.65 24.977C16.4187 25.6707 16.0719 26.3645 15.725 26.9426C16.5344 27.1738 17.4594 27.2895 18.3844 27.2895C23.4719 27.2895 27.6344 23.127 27.6344 18.0395C27.75 13.4145 23.5875 9.25195 18.5 9.25195Z"
			fill="white"></path>
	</symbol>
	<symbol fill="none" xmlns="http://www.w3.org/2000/svg" viewBox="0 0 37 37" id="tok">
		<g clip-path="url(#clip0_2073_7624)">
			<rect x="-0.00012207" width="37" height="37" rx="18.5" fill="#111111"></rect>
			<path
				d="M27.72 14.129C27.0819 14.129 26.45 14.0033 25.8604 13.7591C25.2708 13.5149 24.7351 13.157 24.2838 12.7057C23.8326 12.2545 23.4746 11.7188 23.2304 11.1292C22.9862 10.5396 22.8605 9.9077 22.8605 9.26953H19.3887V22.8646C19.388 23.4845 19.1923 24.0884 18.8292 24.5907C18.4662 25.0931 17.9542 25.4685 17.3659 25.6636C16.7776 25.8588 16.1428 25.8639 15.5515 25.6781C14.9601 25.4923 14.4423 25.1252 14.0713 24.6286C13.7003 24.1321 13.4949 23.5314 13.4844 22.9116C13.4739 22.2919 13.6587 21.6846 14.0126 21.1757C14.3665 20.6669 14.8716 20.2823 15.4563 20.0766C16.041 19.8708 16.6756 19.8543 17.2702 20.0293V16.6545C16.0065 16.4841 14.721 16.7032 13.5852 17.2827C12.4494 17.8622 11.5175 18.7743 10.9138 19.8974C10.31 21.0205 10.0633 22.301 10.2065 23.568C10.3497 24.835 10.8761 26.0281 11.7152 26.9881C12.5544 27.9481 13.6665 28.6292 14.9029 28.9406C16.1394 29.2519 17.4414 29.1786 18.6351 28.7304C19.8288 28.2823 20.8574 27.4806 21.5835 26.4325C22.3096 25.3844 22.6987 24.1397 22.6988 22.8646L22.7995 15.9927C24.226 17.0399 25.95 17.6034 27.7196 17.6007L27.72 14.129Z"
				fill="#B5053C"></path>
			<path
				d="M26.8031 13.1838C25.5143 13.1837 24.2782 12.6717 23.3669 11.7604C22.4556 10.8491 21.9437 9.61303 21.9437 8.32422H18.4719V21.9193C18.4712 22.5391 18.2755 23.143 17.9125 23.6454C17.5494 24.1478 17.0375 24.5232 16.4492 24.7184C15.8609 24.9135 15.2261 24.9186 14.6347 24.7328C14.0434 24.5471 13.5255 24.1799 13.1545 23.6834C12.7835 23.1869 12.5781 22.5862 12.5676 21.9664C12.5571 21.3467 12.7419 20.7393 13.0958 20.2305C13.4497 19.7216 13.9548 19.3371 14.5395 19.1313C15.1242 18.9255 15.7588 18.909 16.3534 19.0841V15.7092C15.0897 15.5388 13.8042 15.7579 12.6684 16.3374C11.5326 16.9168 10.6007 17.829 9.99695 18.9521C9.39323 20.0752 9.1465 21.3557 9.28972 22.6227C9.43293 23.8897 9.95926 25.0828 10.7984 26.0428C11.6376 27.0028 12.7497 27.6839 13.9861 27.9952C15.2226 28.3065 16.5246 28.2332 17.7183 27.7851C18.9121 27.3369 19.9406 26.5353 20.6667 25.4872C21.3928 24.4391 21.7819 23.1944 21.782 21.9193L21.8833 15.0474C23.3098 16.0946 25.0338 16.6581 26.8034 16.6554L26.8031 13.1838Z"
				fill="#00B2C9"></path>
			<path
				d="M26.8022 14.0421C25.6009 13.811 24.5311 13.1353 23.8061 12.15C22.8898 11.4329 22.2614 10.4108 22.0349 9.26953H19.3888V22.8646C19.3887 23.5099 19.1775 24.1373 18.7874 24.6513C18.3974 25.1653 17.8498 25.5375 17.2284 25.7111C16.607 25.8847 15.9458 25.8503 15.3458 25.6129C14.7458 25.3756 14.24 24.9485 13.9055 24.3967C13.3106 24.0095 12.875 23.4213 12.6781 22.7394C12.4812 22.0574 12.5362 21.3275 12.8331 20.6828C13.13 20.0381 13.649 19.5218 14.2952 19.2282C14.9413 18.9346 15.6716 18.8833 16.3525 19.0836V16.6001C15.1846 16.6151 14.0442 16.9563 13.0599 17.5851C12.0756 18.214 11.2868 19.1054 10.7823 20.1588C10.2778 21.2123 10.0778 22.3857 10.2049 23.5468C10.332 24.7078 10.7811 25.8102 11.5016 26.7296C12.4162 27.4928 13.5294 27.9794 14.7107 28.1324C15.8921 28.2855 17.0925 28.0986 18.1714 27.5936C19.2503 27.0887 20.1629 26.2867 20.8022 25.2816C21.4416 24.2765 21.7811 23.11 21.7811 21.9188L21.8824 15.0469C23.3089 16.0941 25.0329 16.6576 26.8025 16.6549L26.8022 14.0421Z"
				fill="#DDE3E4"></path>
		</g>
		<defs>
			<clipPath id="clip0_2073_7624">
				<rect width="37" height="37" fill="white"></rect>
			</clipPath>
		</defs>
	</symbol>
	<symbol fill="none" xmlns="http://www.w3.org/2000/svg" viewBox="0 0 37 37" id="fb">
		<rect width="37" height="37" rx="18.5" fill="#0B84EE"></rect>
		<path
			d="M20.0328 18.8378H23.4758L24.0164 15.3189H20.0321V13.3956C20.0321 11.9338 20.5069 10.6375 21.866 10.6375H24.05V7.56665C23.6663 7.51452 22.8547 7.40039 21.3212 7.40039C18.1191 7.40039 16.2418 9.10174 16.2418 12.9779V15.3189H12.95V18.8378H16.2418V28.5098C16.8937 28.6085 17.554 28.6754 18.2318 28.6754C18.8445 28.6754 19.4425 28.619 20.0328 28.5387V18.8378Z"
			fill="white"></path>
	</symbol>
	<symbol fill="none" xmlns="http://www.w3.org/2000/svg" viewBox="0 0 37 37" id="ok">
		<rect width="37" height="37" rx="18.5" fill="#F79A38"></rect>
		<path
			d="M23.6139 21.1965C24.0862 20.7085 24.1536 20.0113 23.7488 19.3142C23.4115 18.7565 22.8043 18.4776 22.1297 18.6171C21.8598 18.6868 21.5899 18.8262 21.3201 19.0354C19.2287 20.4993 16.3951 20.4296 14.3037 18.9656C14.1688 18.8959 14.0339 18.8262 13.8989 18.7565C13.1568 18.4079 12.4147 18.5474 12.0099 19.2445C11.5377 19.9416 11.6051 20.7085 12.2123 21.3359C12.3472 21.4753 12.4822 21.545 12.5496 21.6845L12.6171 21.7542C13.5616 22.521 14.7085 23.009 16.1928 23.2182L15.3157 24.1245C14.5736 24.8913 13.764 25.7279 13.0219 26.4947C12.8195 26.7039 12.5496 27.0524 12.5496 27.5404C12.5496 28.1678 12.887 28.7953 13.4942 29.0741C13.6966 29.2136 13.8989 29.2136 14.1013 29.2136C14.4387 29.2136 14.8435 29.0741 15.1133 28.7256C16.1253 27.6799 16.9349 26.8433 17.7445 26.0067C17.8119 25.937 17.8119 25.937 17.8119 25.937C17.8119 25.937 17.8794 25.937 17.8794 26.0067C18.4191 26.6341 19.0263 27.1919 19.566 27.8193C19.8359 28.0981 20.1057 28.377 20.3756 28.6558C20.7129 29.0044 20.9828 29.1438 21.3876 29.1438C21.9947 29.2136 22.6694 28.7953 22.9392 28.1678C23.2091 27.6101 23.0742 26.913 22.6019 26.4947C21.9273 25.7976 21.2526 25.0307 20.5105 24.3336L19.3636 23.1485C19.9708 23.0787 20.6454 22.9393 21.2526 22.6605C22.2646 22.3119 23.0067 21.8239 23.6139 21.1965Z"
			fill="white"></path>
		<path
			d="M17.8119 19.2445C20.7129 19.2445 23.0742 16.8742 23.0742 13.8765C23.0742 12.4125 22.5345 11.0183 21.5225 9.97256C20.5105 8.92685 19.2287 8.36914 17.8794 8.36914C14.9784 8.36914 12.6846 10.8091 12.6171 13.7371C12.6171 15.2011 13.1568 16.5256 14.1688 17.5714C15.1133 18.6868 16.3951 19.2445 17.8119 19.2445ZM16.3277 12.2731C16.7325 11.8548 17.2722 11.6457 17.8119 11.6457C19.0263 11.6457 19.9033 12.6217 19.9033 13.8068C19.9033 15.0617 18.9588 15.9679 17.8119 15.9679C16.5975 15.9679 15.7205 14.9919 15.7205 13.8068C15.7205 13.2491 15.9229 12.6914 16.3277 12.2731Z"
			fill="white"></path>
		<path
			d="M23.6139 21.1965C24.0862 20.7085 24.1536 20.0113 23.7488 19.3142C23.4115 18.7565 22.8043 18.4776 22.1297 18.6171C21.8598 18.6868 21.5899 18.8262 21.3201 19.0354C19.2287 20.4993 16.3951 20.4296 14.3037 18.9656C14.1688 18.8959 14.0339 18.8262 13.8989 18.7565C13.1568 18.4079 12.4147 18.5474 12.0099 19.2445C11.5377 19.9416 11.6051 20.7085 12.2123 21.3359C12.3472 21.4753 12.4822 21.545 12.5496 21.6845L12.6171 21.7542C13.5616 22.521 14.7085 23.009 16.1928 23.2182L15.3157 24.1245C14.5736 24.8913 13.764 25.7279 13.0219 26.4947C12.8195 26.7039 12.5496 27.0524 12.5496 27.5404C12.5496 28.1678 12.887 28.7953 13.4942 29.0741C13.6966 29.2136 13.8989 29.2136 14.1013 29.2136C14.4387 29.2136 14.8435 29.0741 15.1133 28.7256C16.1253 27.6799 16.9349 26.8433 17.7445 26.0067C17.8119 25.937 17.8119 25.937 17.8119 25.937C17.8119 25.937 17.8794 25.937 17.8794 26.0067C18.4191 26.6341 19.0263 27.1919 19.566 27.8193C19.8359 28.0981 20.1057 28.377 20.3756 28.6558C20.7129 29.0044 20.9828 29.1438 21.3876 29.1438C21.9947 29.2136 22.6694 28.7953 22.9392 28.1678C23.2091 27.6101 23.0742 26.913 22.6019 26.4947C21.9273 25.7976 21.2526 25.0307 20.5105 24.3336L19.3636 23.1485C19.9708 23.0787 20.6454 22.9393 21.2526 22.6605C22.2646 22.3119 23.0067 21.8239 23.6139 21.1965Z"
			fill="white"></path>
	</symbol>
</svg>