<svg width="211" height="111" viewBox="0 0 211 111" fill="none" xmlns="http://www.w3.org/2000/svg">
<path d="M91.633 83.877C91.633 85.0597 92.2126 85.4741 93.9305 85.4741C95.2919 85.4741 96.5418 85.6519 96.5418 83.877V62.278C96.5418 61.8645 97.2523 60.4461 98.4367 60.4461H102.002V79.2383C102.002 83.6178 106.201 85.5597 109.993 85.5597C115.953 85.5597 118.211 81.9032 118.211 79.3742V64.7182C119.568 64.8549 120.963 64.5622 120.963 65.1594V80.6869C120.963 82.4535 121.02 85.3357 124.442 85.3357H130.169C133.86 85.3357 137.179 83.2588 137.53 78.9472C138.581 82.6271 140.954 85.5932 145.908 85.5932C151.96 85.5932 154.984 80.5368 154.984 72.9513C154.984 68.7068 154.421 64.709 150.986 60.988C148.021 57.9162 144.918 56.111 139.815 54.742C137.188 54.0374 135.514 57.4665 136.916 58.0378C139.04 58.9018 142.758 59.5259 142.831 60.6071C138.788 62.0021 136.788 67.2917 136.788 72.8171C136.788 73.4823 136.808 74.1626 136.855 74.8462C136.015 73.2524 134.726 72.8405 134.726 71.9002C134.726 70.6915 136.166 70.3652 136.166 67.2045C136.166 63.2058 133.33 60.509 128.31 60.509H116.923C116.859 60.509 116.794 60.5148 116.731 60.5257C116.565 60.5098 116.382 60.5014 116.179 60.5014C115.186 60.5014 114.011 60.4109 114.011 61.7656V77.9742C114.011 79.9605 112.386 82.1725 109.993 82.1725C108.232 82.1725 106.156 80.3673 106.156 77.9742V58.8448C106.174 58.6988 106.184 58.5419 106.184 58.3742C106.184 57.3089 105.948 56.1848 104.585 56.1848H84.2203C83.3328 56.1848 82.5627 56.8945 82.5627 58.1972C82.5627 59.2625 82.8588 60.4461 84.2203 60.4461H89.7985C90.6264 60.4461 91.633 61.5097 91.633 62.278V83.877ZM145.908 63.8324C148.663 63.8324 150.514 67.8949 150.514 72.9513C150.514 76.0214 149.475 81.8906 145.908 81.8906C143.109 81.8906 141.258 77.8727 141.258 72.8171C141.258 69.7453 142.296 63.8324 145.908 63.8324ZM125.333 65.1594C125.333 64.4145 126.171 63.9046 127.239 63.9046C129.378 63.9046 131.611 65.2979 131.611 67.2045C131.611 67.9947 130.773 70.7838 127.239 70.7838C126.496 70.7838 125.333 70.5514 125.333 69.5297V65.1594ZM125.333 75.6196C125.333 74.2699 126.776 74.4108 127.844 74.4108C130.355 74.4108 133.005 75.9451 133.005 78.3156C133.005 80.8262 130.355 81.8957 127.518 81.8957C125.844 81.8957 125.333 81.384 125.333 80.6869V75.6196ZM99.3728 99.1302V95.7397C99.3728 95.134 99.1874 94.1274 98.0575 94.1274C97.061 94.1274 96.671 94.8773 96.5065 95.2892L96.4856 92.0421H95.5612V99.1302H96.4856V97.0549C96.4856 96.0794 97.0199 95.0518 97.7799 95.0518C98.4484 95.0518 98.4484 95.5551 98.4484 96.4594V99.1302H99.3728ZM119.245 97.7948L117.95 94.2415H116.923L118.772 99.1302H119.718L121.413 94.2415H120.385L119.245 97.7948ZM93.6998 106.792L92.4055 103.238H91.378L93.2267 108.127H94.1721L95.8674 103.238H94.8398L93.6998 106.792ZM98.1834 103.125C96.8169 103.125 96.3539 103.813 96.3539 104.593H97.3303C97.3303 104.203 97.5559 103.844 98.1112 103.844C98.4602 103.844 98.7789 103.998 98.8611 104.47V105.322C97.618 105.322 96.1903 105.631 96.1903 106.926C96.1903 107.685 96.6626 108.24 97.5769 108.24C98.3268 108.24 98.7169 107.789 98.8402 107.522L98.8611 108.127H99.7855V104.769C99.7855 104.327 99.7855 103.125 98.1834 103.125ZM98.8611 106.217C98.8611 106.792 98.388 107.522 97.7514 107.522C97.4737 107.522 97.217 107.274 97.217 106.895C97.217 106.268 97.9468 105.94 98.6758 105.94H98.8611V106.217ZM94.7786 94.9596V94.2415H93.4222V92.5144L92.4978 93.0898V94.2415H91.6246V94.9596H92.4978V98.0523C92.4978 98.7192 92.7855 99.2426 93.9666 99.2426C94.2132 99.2426 94.4598 99.2225 94.6964 99.1713V98.4516C94.5622 98.4935 94.3675 98.5237 94.2031 98.5237C93.4843 98.5237 93.4222 98.0104 93.4222 97.5691V94.9596H94.7786ZM150.8 103.125C149.989 103.125 149.577 103.751 149.414 104.162C149.321 103.72 149.013 103.125 148.15 103.125C147.276 103.125 146.928 103.823 146.783 104.213L146.764 103.238H145.838V108.127H146.764V106.053C146.764 105.077 147.225 104.049 147.872 104.049C148.52 104.049 148.52 104.553 148.52 105.457V108.127H149.444V105.785C149.444 104.963 149.948 104.049 150.524 104.049C151.202 104.049 151.202 104.542 151.202 105.457V108.127H152.126V104.738C152.126 104.132 151.951 103.125 150.8 103.125ZM153.238 108.127H154.655V106.71H153.238V108.127ZM143.061 103.125C142.434 103.125 141.068 103.35 141.068 105.447C141.068 107.367 142.014 108.24 143.492 108.24C144.026 108.24 144.315 108.169 144.715 108.075V107.347C144.498 107.419 144.211 107.522 143.791 107.522C142.454 107.522 141.992 106.237 141.992 105.322H144.827V105.087C144.827 103.936 144.253 103.125 143.061 103.125ZM142.033 104.707C142.033 104.49 142.249 103.844 143.009 103.844C143.718 103.844 143.903 104.399 143.903 104.707H142.033ZM139.481 96.0894C139.481 94.9394 138.906 94.1274 137.715 94.1274C137.087 94.1274 135.722 94.3531 135.722 96.4493C135.722 98.3694 136.667 99.2426 138.145 99.2426C138.679 99.2426 138.968 99.1713 139.368 99.079V98.3492C139.152 98.4214 138.866 98.5237 138.444 98.5237C137.107 98.5237 136.645 97.2395 136.645 96.3252H139.481V96.0894ZM136.686 95.7103C136.686 95.4939 136.902 94.8463 137.663 94.8463C138.372 94.8463 138.556 95.4008 138.556 95.7103H136.686ZM130.474 99.1302V95.7397C130.474 95.134 130.288 94.1274 129.158 94.1274C128.161 94.1274 127.771 94.8773 127.608 95.2892L127.586 94.2415H126.661V99.1302H127.586V97.0549C127.586 96.0794 128.12 95.0518 128.88 95.0518C129.548 95.0518 129.548 95.5551 129.548 96.4594V99.1302H130.474ZM102.818 99.2426C103.353 99.2426 103.64 99.1713 104.041 99.079V98.3492C103.825 98.4214 103.538 98.5237 103.116 98.5237C101.781 98.5237 101.319 97.2395 101.319 96.3252H104.154V96.0894C104.154 94.9394 103.579 94.1274 102.387 94.1274C101.76 94.1274 100.394 94.3531 100.394 96.4493C100.394 98.3694 101.339 99.2426 102.818 99.2426ZM102.336 94.8463C103.044 94.8463 103.229 95.4008 103.229 95.7103H101.359C101.359 95.4939 101.576 94.8463 102.336 94.8463ZM123.729 94.1274C122.362 94.1274 121.899 94.8153 121.899 95.5971H122.875C122.875 95.2062 123.102 94.8463 123.656 94.8463C124.006 94.8463 124.325 95.0007 124.406 95.4729V96.3252C123.163 96.3252 121.736 96.6339 121.736 97.9282C121.736 98.6881 122.207 99.2426 123.122 99.2426C123.872 99.2426 124.262 98.7913 124.386 98.5237L124.406 99.1302H125.33V95.7715C125.33 95.3295 125.33 94.1274 123.729 94.1274ZM124.406 97.2194C124.406 97.7948 123.934 98.5237 123.297 98.5237C123.019 98.5237 122.763 98.2779 122.763 97.8971C122.763 97.2705 123.492 96.9425 124.222 96.9425H124.406V97.2194ZM135.947 105.312L135.557 105.087C135.238 104.891 134.848 104.707 134.848 104.368C134.848 104.061 135.249 103.844 135.65 103.844C136.184 103.844 136.635 104.07 136.77 104.132V103.299C136.533 103.259 136.153 103.125 135.66 103.125C134.642 103.125 133.923 103.608 133.923 104.49C133.923 105.21 134.458 105.539 134.9 105.816L135.373 106.103C135.701 106.319 136.153 106.524 136.153 106.895C136.153 107.398 135.598 107.522 135.157 107.522C134.642 107.522 134.015 107.274 133.923 107.233V108.046C134.139 108.106 134.571 108.24 135.238 108.24C136.338 108.24 137.077 107.789 137.077 106.761C137.077 105.951 136.461 105.631 135.947 105.312ZM120.679 103.125C119.868 103.125 119.457 103.751 119.292 104.162C119.2 103.72 118.891 103.125 118.028 103.125C117.155 103.125 116.806 103.823 116.662 104.213L116.642 103.238H115.717V108.127H116.642V106.053C116.642 105.077 117.104 104.049 117.751 104.049C118.398 104.049 118.398 104.553 118.398 105.457V108.127H119.323V105.785C119.323 104.963 119.826 104.049 120.402 104.049C121.08 104.049 121.08 104.542 121.08 105.457V108.127H122.004V104.738C122.004 104.132 121.83 103.125 120.679 103.125ZM127.888 105.312L127.497 105.087C127.178 104.891 126.787 104.707 126.787 104.368C126.787 104.061 127.189 103.844 127.589 103.844C128.124 103.844 128.575 104.07 128.709 104.132V103.299C128.473 103.259 128.093 103.125 127.599 103.125C126.582 103.125 125.864 103.608 125.864 104.49C125.864 105.21 126.397 105.539 126.84 105.816L127.312 106.103C127.64 106.319 128.093 106.524 128.093 106.895C128.093 107.398 127.539 107.522 127.096 107.522C126.582 107.522 125.955 107.274 125.864 107.233V108.046C126.079 108.106 126.511 108.24 127.178 108.24C128.278 108.24 129.017 107.789 129.017 106.761C129.017 105.951 128.4 105.631 127.888 105.312ZM131.495 106.771L130.19 103.238H129.163L131.023 108.158L130.335 110.233H131.238L133.672 103.238H132.646L131.495 106.771ZM116.279 92.0421H115.355V94.9185C115.221 94.6307 114.841 94.1274 114.03 94.1274C112.92 94.1274 112.303 95.1441 112.303 96.7672C112.303 98.1647 112.786 99.2426 113.978 99.2426C114.831 99.2426 115.232 98.6579 115.334 98.3803L115.355 99.1302H116.279V92.0421ZM114.296 98.5237C113.433 98.5237 113.331 97.4249 113.331 96.6859C113.331 95.6583 113.567 94.8463 114.286 94.8463C115.108 94.8463 115.355 95.8219 115.355 96.6749C115.355 97.4869 115.046 98.5237 114.296 98.5237ZM135.233 98.4214C134.967 98.5036 134.709 98.5237 134.453 98.5237C132.912 98.5237 132.511 97.3016 132.511 96.3369C132.511 95.4318 132.902 94.8463 133.508 94.8463C134.186 94.8463 134.258 95.4637 134.258 95.8328H135.316C135.316 95.0309 134.956 94.1274 133.569 94.1274C132.111 94.1274 131.484 95.1441 131.484 96.5114C131.484 97.7226 132.007 99.2426 133.878 99.2426C134.453 99.2426 134.874 99.1713 135.233 99.0581V98.4214ZM102.781 103.844C103.459 103.844 103.531 104.46 103.531 104.831H104.589C104.589 104.029 104.23 103.125 102.842 103.125C101.383 103.125 100.757 104.141 100.757 105.508C100.757 106.72 101.281 108.24 103.15 108.24C103.725 108.24 104.147 108.169 104.506 108.055V107.419C104.24 107.5 103.983 107.522 103.725 107.522C102.185 107.522 101.784 106.3 101.784 105.333C101.784 104.429 102.174 103.844 102.781 103.844ZM139.278 101.512L138.353 102.087V103.238H137.48V103.958H138.353V107.049C138.353 107.716 138.641 108.24 139.822 108.24C140.068 108.24 140.315 108.221 140.552 108.169V107.451C140.417 107.491 140.223 107.522 140.058 107.522C139.34 107.522 139.278 107.008 139.278 106.566V103.958H140.634V103.238H139.278V101.512ZM143.164 98.3803L143.183 99.1302H144.109V92.0421H143.183V94.9185C143.05 94.6307 142.67 94.1274 141.858 94.1274C140.75 94.1274 140.132 95.1441 140.132 96.7672C140.132 98.1647 140.615 99.2426 141.807 99.2426C142.66 99.2426 143.061 98.6579 143.164 98.3803ZM141.16 96.6859C141.16 95.6583 141.395 94.8463 142.116 94.8463C142.937 94.8463 143.183 95.8219 143.183 96.6749C143.183 97.4869 142.875 98.5237 142.125 98.5237C141.262 98.5237 141.16 97.4249 141.16 96.6859ZM108.179 105.312C108.179 106.289 107.644 107.315 106.884 107.315C106.216 107.315 106.216 106.823 106.216 105.909V103.238H105.292V106.628C105.292 107.233 105.477 108.24 106.607 108.24C107.603 108.24 108.003 107.491 108.158 107.08L108.179 108.127H109.103V103.238H108.179V105.312ZM111.322 95.7715C111.322 95.3295 111.322 94.1274 109.72 94.1274C108.353 94.1274 107.891 94.8153 107.891 95.5971H108.867C108.867 95.2062 109.092 94.8463 109.648 94.8463C109.997 94.8463 110.315 95.0007 110.398 95.4729V96.3252C109.154 96.3252 107.727 96.6339 107.727 97.9282C107.727 98.6881 108.199 99.2426 109.113 99.2426C109.863 99.2426 110.254 98.7913 110.377 98.5237L110.398 99.1302H111.322V95.7715ZM110.398 97.2194C110.398 97.7948 109.924 98.5237 109.288 98.5237C109.01 98.5237 108.753 98.2779 108.753 97.8971C108.753 97.2705 109.483 96.9425 110.212 96.9425H110.398V97.2194ZM113.36 105.312C113.36 106.289 112.826 107.315 112.066 107.315C111.398 107.315 111.398 106.823 111.398 105.909V103.238H110.474V106.628C110.474 107.233 110.658 108.24 111.788 108.24C112.785 108.24 113.186 107.491 113.34 107.08L113.36 108.127H114.285V103.238H113.36V105.312Z" fill="#2869A5"/>
<path d="M194.792 1.71854L193.32 5.43188H192.799C192.799 5.43188 191.677 2.3474 187.6 2.17464C182.689 1.96962 177.375 7.5534 177.204 15.8278C177.057 23.2269 183.203 23.0241 183.534 23.0241C183.861 23.0241 186.188 23.4296 190.445 20.4903L202.808 0.244221C202.808 0.244221 203.105 0.391567 204.153 0.391567C205.199 0.391567 205.499 0.292583 205.499 0.292583L210.583 24.6712C210.583 24.6712 208.639 24.5699 207.392 24.5699C206.146 24.5699 204.451 24.7703 204.451 24.7703L203.456 17.491H195.28L191.362 24.6436C191.362 24.6436 190.445 24.5399 189.558 24.5399C188.798 24.5399 187.909 24.6436 187.909 24.6436L188.093 24.3464C186.835 24.7633 184.827 25.2356 182.194 25.2356C177.487 25.2356 171.049 22.7477 171.3 15.7472C171.494 10.2186 174.092 6.38314 175.647 4.90886C176.75 3.86534 180.325 0 187.764 0C192.55 0 194.792 1.71854 194.792 1.71854ZM196.651 15.2727H203.034L201.525 7.12258L196.651 15.2727ZM11.421 14.987C11.421 13.1465 12.9114 11.656 14.7543 11.656C16.5925 11.656 18.0829 13.1465 18.0829 14.987C18.0829 16.8299 16.5925 18.3203 14.7543 18.3203C12.9114 18.3203 11.421 16.8299 11.421 14.987ZM18.387 16.0006C18.387 16.0006 19.6609 15.1805 19.6609 12.9C19.6609 10.6195 18.0115 7.17108 17.3089 5.80967C16.5372 4.30314 14.4594 1.00661 13.9158 0.271778C13.9158 0.271778 14.5101 0.25111 14.6668 0.25111C14.8303 0.25111 16.6109 0.103725 19.2255 0.93301C20.891 1.45592 21.6005 1.96262 21.6005 1.96262C21.6005 1.96262 22.8076 4.94579 22.8076 8.15696C22.8076 11.375 22.0082 13.1971 21.3494 14.3789C20.686 15.5629 19.3361 16.4751 18.9307 16.6364L18.387 16.0006ZM17.8088 12.7756C17.8088 12.7756 17.9816 11.9072 17.1592 10.76C15.6711 8.6891 10.5318 7.39904 9.03452 7.09727C7.37365 6.76556 3.71328 6.40623 2.80337 6.37629C2.80337 6.37629 3.0798 5.99162 3.18116 5.86493C3.28021 5.74053 4.27534 4.25704 6.55127 2.72747C8.00021 1.75306 8.93547 1.43748 8.93547 1.43748C8.93547 1.43748 11.9071 2.27824 14.418 4.28235C16.9289 6.28645 17.8687 8.03489 18.3824 9.29033C18.8915 10.5458 18.8569 12.1352 18.7302 12.7318L17.8088 12.7756ZM14.9294 11.2184C14.9294 11.2184 14.0747 10.1542 11.8518 10.661C9.62425 11.17 7.3391 12.6328 5.01941 14.6C3.72942 15.6965 1.18396 18.3871 0.594249 19.0782C0.594249 19.0782 0.439908 18.5046 0.405354 18.3456C0.366194 18.1936 -0.170521 16.4889 0.0552288 13.7523C0.195746 12.0131 0.529749 11.2115 0.529749 11.2115C0.529749 11.2115 2.93469 9.38473 6.06754 8.66832C9.19809 7.95192 11.2482 8.21225 12.5474 8.59465C13.9918 9.0162 15.2196 10.1012 15.4661 10.4605L14.9294 11.2184ZM11.9739 12.3817C11.9739 12.3817 10.5042 12.5545 9.52978 14.653C8.92164 15.9661 8.46555 17.491 8.46555 22.1465C8.46555 23.8396 8.9585 27.5921 9.13357 28.4859C9.13357 28.4859 8.55539 28.2579 8.41026 28.1887C8.26744 28.115 6.64571 27.5 4.64391 25.618C3.37464 24.4247 2.95082 23.6761 2.95082 23.6761C2.95082 23.6761 3.1397 20.5386 4.53336 17.6453C5.92702 14.752 7.34142 13.3999 8.46095 12.6328C9.88225 11.6607 11.3634 11.5524 11.8011 11.5869L11.9739 12.3817ZM16.2286 18.4608C16.2286 18.4608 17.6637 18.9468 19.4467 17.5255C21.2296 16.1019 22.8951 12.6604 23.524 11.2668C24.2173 9.72571 25.482 6.07912 25.7124 5.19455C25.7124 5.19455 26.0694 5.61385 26.1685 5.73825C26.2675 5.86034 27.4676 7.16416 28.449 9.72112C29.0778 11.3497 29.1493 12.3126 29.1493 12.3126C29.1493 12.3126 27.6243 15.0239 25.1134 17.028C22.6002 19.0298 20.679 19.5481 19.3407 19.7646C18 19.9835 16.4474 19.4974 16.0673 19.2786L16.2286 18.4608ZM30.1882 36.4194C30.1882 34.5765 31.6786 33.0861 33.5214 33.0861C35.3597 33.0861 36.8524 34.5765 36.8524 36.4194C36.8524 38.2599 35.3597 39.7504 33.5214 39.7504C31.6786 39.7504 30.1882 38.2599 30.1882 36.4194ZM37.1542 37.4284C37.1542 37.4284 38.4257 36.6129 38.4257 34.3301C38.4257 32.0473 36.7787 28.6011 36.0761 27.2397C35.3044 25.7355 33.2266 22.4368 32.6829 21.7019C32.6829 21.7019 33.2772 21.6789 33.4339 21.6789C33.5974 21.6789 35.3781 21.536 37.9927 22.3607C39.6581 22.8882 40.3676 23.3927 40.3676 23.3927C40.3676 23.3927 41.5747 26.3758 41.5747 29.5893C41.5747 32.8051 40.7754 34.6272 40.1165 35.809C39.4531 36.9953 38.1032 37.9029 37.6955 38.0664L37.1542 37.4284ZM33.6965 32.6508C33.6965 32.6508 32.9064 31.499 30.6857 32.0104C28.4605 32.5171 26.1063 34.0605 23.7866 36.0324C22.4966 37.1266 20.0133 39.6974 19.419 40.3885C19.419 40.3885 19.267 39.8149 19.2301 39.6582C19.1955 39.5039 18.7349 37.797 18.9606 35.0649C19.1011 33.3234 19.419 32.5218 19.419 32.5218C19.419 32.5218 21.7019 30.8125 24.8347 30.1007C27.9653 29.382 30.0154 29.64 31.3146 30.0224C32.7589 30.4463 33.9867 31.5335 34.2332 31.8929L33.6965 32.6508ZM30.741 33.8118C30.741 33.8118 29.2714 33.9868 28.2969 36.0808C27.6888 37.3961 27.2327 38.9234 27.2327 43.5766C27.2327 45.2674 27.7257 49.0222 27.9007 49.916C27.9007 49.916 27.3226 49.6879 27.1774 49.6165C27.0346 49.5451 25.4106 48.9301 23.4111 47.0481C22.1418 45.8548 21.7157 45.1039 21.7157 45.1039C21.7157 45.1039 21.9069 41.9687 23.2982 39.0754C24.6942 36.1798 26.1085 34.8276 27.2281 34.0606C28.6494 33.0908 30.1329 32.9825 30.5683 33.0147L30.741 33.8118ZM29.7712 36.9054C29.7712 36.9054 28.8475 38.2508 30.0039 40.4276C31.4943 43.2403 34.1066 44.9794 35.3298 45.9009C36.6773 46.9213 39.7318 48.7435 40.5381 49.1673C40.5381 49.1673 39.9346 49.5221 39.7918 49.5935C39.6466 49.6626 38.3036 50.4712 35.5854 50.8628C33.8578 51.1139 32.8096 50.9618 32.8096 50.9618C32.8096 50.9618 30.3978 48.7942 29.0479 45.8755C27.8017 43.185 27.7234 41.948 27.7234 40.5912C27.7234 38.0503 28.6747 36.9008 28.9719 36.5783L29.7712 36.9054ZM31.6118 39.596C31.6118 39.596 32.114 40.9436 33.9845 41.4158C36.1959 41.9779 39.202 41.4988 40.6878 41.1417C42.457 40.7156 44.2768 40.271 47.9671 38.7483C47.9671 38.7483 47.8266 39.5154 47.7943 39.6721C47.7575 39.8264 47.4857 41.4666 46.0966 43.8346C45.2167 45.3389 44.6016 45.9009 44.6016 45.9009C44.6016 45.9009 41.3282 46.4192 38.1954 45.7028C35.0602 44.9886 33.5076 43.8115 32.5378 42.8625C31.4413 41.7913 30.9576 40.4253 30.8908 39.9945L31.6118 39.596ZM34.9957 39.8909C34.9957 39.8909 36.4309 40.3769 38.2138 38.9533C39.9968 37.5297 41.6622 34.0905 42.2911 32.6968C42.9845 31.1557 44.2491 27.5092 44.4818 26.627C44.4818 26.627 44.8366 27.0439 44.9356 27.166C45.0347 27.295 46.2348 28.5919 47.2185 31.1535C47.845 32.7821 47.9164 33.745 47.9164 33.745C47.9164 33.745 46.3892 36.454 43.8806 38.4581C41.3674 40.4622 39.4462 40.9758 38.1055 41.1947C36.7672 41.4158 35.2146 40.9298 34.8368 40.7086L34.9957 39.8909ZM33.3326 15.2243H39.695L38.17 7.15028L33.3326 15.2243ZM36.576 34.208C36.576 34.208 36.7487 33.3395 35.9263 32.1924C34.4382 30.1191 29.299 28.8314 27.8017 28.5274C26.1869 28.2026 22.6809 27.8548 21.6512 27.8087C21.4669 27.9147 21.1283 28.1105 21.0246 28.1634C20.8795 28.2302 19.5365 29.0434 16.8206 29.435C15.0929 29.6792 14.0425 29.5341 14.0425 29.5341C14.0425 29.5341 11.6306 27.3618 10.2808 24.4478C9.03452 21.7572 8.95849 20.5202 8.95849 19.1634C8.95849 16.6179 9.90987 15.4685 10.2047 15.1483L11.0041 15.4708C11.0041 15.4708 10.0804 16.8184 11.2368 18.9975C12.7249 21.8079 15.3394 23.5494 16.5626 24.4708C17.8549 25.4498 20.7136 27.1637 21.6604 27.6797C21.7525 27.553 21.8838 27.3733 21.946 27.2973C22.0381 27.1798 22.8605 25.9589 24.7011 24.5906C23.4756 24.6828 21.4231 24.7288 19.4259 24.2727C16.2931 23.5586 14.7405 22.3792 13.7707 21.4301C12.6742 20.3589 12.1904 18.9952 12.1236 18.5667L12.8446 18.1636C12.8446 18.1636 13.3468 19.5113 15.2173 19.9835C17.4287 20.5456 20.4326 20.0664 21.9207 19.7116C23.6898 19.2855 25.4613 18.8178 29.1539 17.2975L39.4715 0.244221C39.4715 0.244221 39.7687 0.391567 40.8145 0.391567C41.865 0.391567 42.1621 0.292583 42.1621 0.292583L47.2461 24.6712C47.2461 24.6712 45.3042 24.5699 44.0579 24.5699C42.8117 24.5699 41.114 24.7703 41.114 24.7703L40.1189 17.491H31.9412L28.7692 23.2384C29.8634 23.6623 31.6118 24.457 33.1851 25.7101C35.696 27.7165 36.6359 29.4649 37.1496 30.7204C37.6586 31.9758 37.6241 33.5653 37.4974 34.1596L36.576 34.208ZM53.005 0.555222H66.4509C66.4509 0.555222 65.8497 2.01799 65.8497 3.03848C65.8497 3.30108 65.875 3.63968 65.875 3.63968C65.875 3.63968 63.1269 3.1674 58.8929 3.1674H57.8471L56.4097 10.7254H60.3303C60.3303 10.7254 62.24 10.6724 64.3846 10.4375C64.3846 10.4375 63.834 11.8496 63.834 12.7157V13.4414C63.834 13.4414 61.7401 13.1603 60.3534 13.1603H55.9098L54.1844 22.0244C54.1844 22.0244 56.693 21.9207 58.7316 21.8424C60.7749 21.7618 62.3966 21.4739 62.3966 21.4739C62.3966 21.4739 61.8184 22.7316 61.8184 23.9848C61.8184 24.275 61.7908 24.5837 61.7908 24.5837H48.3794L53.005 0.555222ZM103.861 0.555222H117.307C117.307 0.555222 116.701 2.01799 116.701 3.03848C116.701 3.30108 116.726 3.63968 116.726 3.63968C116.726 3.63968 113.978 3.1674 109.744 3.1674H108.698L107.263 10.7254H111.179C111.179 10.7254 113.091 10.6724 115.238 10.4375C115.238 10.4375 114.685 11.8496 114.685 12.7157V13.4414C114.685 13.4414 112.591 13.1603 111.209 13.1603H106.761L105.036 22.0244C105.036 22.0244 107.544 21.9207 109.585 21.8424C111.628 21.7618 113.248 21.4739 113.248 21.4739C113.248 21.4739 112.67 22.7316 112.67 23.9848C112.67 24.275 112.647 24.5837 112.647 24.5837H99.2307L103.861 0.555222ZM73.4054 2.51095L71.5764 11.9555H72.3895C77.0704 11.9555 77.9573 8.08329 78.1416 5.34204C78.3443 2.29442 74.9235 2.51095 74.9235 2.51095H73.4054ZM68.409 0.578281H77.72C77.72 0.578281 83.7138 0.211952 83.7138 4.94809C83.7138 9.67961 79.8923 12.1375 76.8585 12.688C76.8585 12.688 78.1162 15.8808 78.8487 17.4726C79.5789 19.0713 82.1175 24.768 82.1175 24.768C82.1175 24.768 80.6524 24.6136 78.8487 24.6136C77.045 24.6136 75.709 24.7956 75.709 24.7956L71.4957 13.4713H71.2654L69.0401 24.768C69.0401 24.768 67.5796 24.6136 66.2965 24.6136C65.0089 24.6136 63.7304 24.7956 63.7304 24.7956L68.409 0.578281ZM84.3934 0.608227H102.594C102.594 0.608227 102.048 1.8359 102.048 2.2275C102.048 2.62141 101.967 3.63503 101.967 3.63503C101.967 3.63503 97.6781 2.98318 95.7684 3.11679L91.6105 24.7449C91.6105 24.7449 90.2813 24.5629 88.9176 24.5629C87.5585 24.5629 86.2501 24.7449 86.2501 24.7449L90.5163 3.1421C90.5163 3.1421 87.3189 3.13744 83.8659 3.61198C83.8659 3.61198 84.0778 3.22043 84.3427 2.09168C84.5477 1.20711 84.3934 0.608227 84.3934 0.608227ZM138.555 1.71854L137.081 5.43188H136.56C136.56 5.43188 135.443 2.3474 131.363 2.17464C126.452 1.96962 120.965 7.5534 120.799 15.8278C120.649 23.2269 126.781 22.9827 127.111 22.9827C127.442 22.9827 129.972 23.4342 134.261 20.4488L134.678 20.6561L133.37 23.7245C133.37 23.7245 130.661 25.2356 125.954 25.2356C121.253 25.2356 114.665 22.7477 114.913 15.7472C115.107 10.2186 117.853 6.38314 119.408 4.90886C120.513 3.86534 124.086 0 131.529 0C136.311 0 138.555 1.71854 138.555 1.71854ZM136.355 24.7818L141.059 0.605839H144.62C144.62 0.605839 145.869 2.47405 146.862 3.7963C147.854 5.11855 152.332 11.0572 152.706 11.6215C153.077 12.1836 156.472 17.0119 156.472 17.0119L159.667 0.605839C159.667 0.605839 160.395 0.686543 161.056 0.686543C161.715 0.686543 162.523 0.605839 162.523 0.605839L157.863 24.7818C157.863 24.7818 156.806 24.7426 156.391 24.7426C155.977 24.7426 154.795 24.7818 154.795 24.7818C154.795 24.7818 152.805 21.771 152.102 20.7828C151.402 19.7899 146.299 12.7226 146.007 12.3517C145.719 11.9785 142.57 7.68708 142.57 7.68708L139.255 24.7426C139.255 24.7426 138.652 24.5744 137.949 24.5744C137.246 24.5744 136.355 24.7818 136.355 24.7818ZM161.839 24.8256L166.541 0.605839C166.541 0.605839 168.165 0.769356 169.114 0.769356C170.063 0.769356 171.89 0.57589 171.89 0.57589L167.23 24.8256C167.23 24.8256 165.262 24.5744 164.493 24.5744C163.721 24.5744 161.839 24.8256 161.839 24.8256Z" fill="#2869A5"/>
<path d="M201.731 44.0213V33.4755H203.728V35.7353C204.126 34.8484 204.967 33.2313 207.116 33.2313C209.554 33.2313 209.954 35.4013 209.954 36.7097V44.0213H207.96V38.26C207.96 36.3112 207.96 35.224 206.52 35.224C204.88 35.224 203.728 37.44 203.728 39.5455V44.0213H201.731ZM118.088 42.3143V43.8669C117.579 43.9775 117.047 44.0213 116.513 44.0213C113.967 44.0213 113.345 42.8902 113.345 41.4505V34.7816H111.463V33.2313H113.345V30.7481L115.342 29.5088V33.2313H118.263V34.7816H115.342V40.4093C115.342 41.363 115.474 42.471 117.026 42.471C117.381 42.471 117.8 42.4042 118.088 42.3143ZM120.274 44.0213V28.7325H122.271V35.7353C122.668 34.8484 123.513 33.2313 125.66 33.2313C128.099 33.2313 128.498 35.4013 128.498 36.7097V44.0213H126.501V38.26C126.501 36.3112 126.501 35.224 125.061 35.224C123.423 35.224 122.271 37.44 122.271 39.5455V44.0213H120.274ZM131.995 33.4755H133.987V44.0213H131.995V33.4755ZM131.792 28.7325H134.185V30.9923H131.792V28.7325ZM137.507 44.0213V33.4755H139.502V35.7353C139.901 34.8484 140.741 33.2313 142.891 33.2313C145.326 33.2313 145.729 35.4013 145.729 36.7097V44.0213H143.734V38.26C143.734 36.3112 143.734 35.224 142.294 35.224C140.654 35.224 139.502 37.44 139.502 39.5455V44.0213H137.507ZM149.002 44.0213V28.7325H150.995V37.6841L154.673 33.4755H157.177L153.275 38.085L157.555 44.0213H155.051L151.041 38.571L150.995 44.0213H149.002ZM173.782 42.2475V43.6227C173.005 43.8669 172.095 44.0213 170.854 44.0213C166.822 44.0213 165.694 40.7409 165.694 38.1264C165.694 35.1801 167.046 32.9872 170.193 32.9872C173.183 32.9872 173.959 34.936 173.959 36.6637H171.676C171.676 35.8666 171.519 34.5375 170.057 34.5375C168.748 34.5375 167.91 35.7998 167.91 37.7509C167.91 39.8334 168.774 42.471 172.095 42.471C172.648 42.471 173.206 42.4249 173.782 42.2475ZM176.127 28.7325H178.119V44.0213H176.127V28.7325ZM188.752 42.0932V43.6665C187.889 43.8669 187.267 44.0213 186.115 44.0213C182.924 44.0213 180.886 42.137 180.886 37.9952C180.886 33.4756 183.834 32.9872 185.184 32.9872C187.753 32.9872 188.994 34.7379 188.994 37.2212V37.7279H182.881C182.881 39.6998 183.878 42.471 186.758 42.471C187.667 42.471 188.287 42.2475 188.752 42.0932ZM182.968 36.3987H187.002C187.002 35.733 186.601 34.5375 185.071 34.5375C183.434 34.5375 182.968 35.9334 182.968 36.3987ZM196.548 43.7771V42.471C196.239 43.0469 195.396 44.0213 193.776 44.0213C191.807 44.0213 190.789 42.8257 190.789 41.1855C190.789 38.3936 193.866 37.7279 196.548 37.7279V35.8897C196.373 34.8692 195.684 34.5375 194.933 34.5375C193.735 34.5375 193.249 35.3138 193.249 36.1546H191.144C191.144 34.4707 192.139 32.9872 195.087 32.9872C198.543 32.9872 198.543 35.5787 198.543 36.5324V43.7771H196.548ZM196.548 39.0571H196.151C194.578 39.0571 193.003 39.7666 193.003 41.1188C193.003 41.9388 193.558 42.471 194.154 42.471C195.527 42.471 196.548 40.8976 196.548 39.656V39.0571Z" fill="#2C9AD5"/>
</svg>
