<svg width="211" height="111" fill="none" xmlns="http://www.w3.org/2000/svg"><path d="M91.633 83.877c0 1.183.58 1.597 2.297 1.597 1.362 0 2.612.178 2.612-1.597V62.278c0-.413.71-1.832 1.895-1.832h3.565v18.792c0 4.38 4.199 6.322 7.991 6.322 5.96 0 8.218-3.657 8.218-6.186V64.718c1.357.137 2.752-.156 2.752.441v15.528c0 1.767.057 4.649 3.479 4.649h5.727c3.691 0 7.01-2.077 7.361-6.389 1.051 3.68 3.424 6.646 8.378 6.646 6.052 0 9.076-5.056 9.076-12.642 0-4.244-.563-8.242-3.998-11.963-2.965-3.072-6.068-4.877-11.171-6.246-2.627-.705-4.301 2.725-2.899 3.296 2.124.864 5.842 1.488 5.915 2.57-4.043 1.394-6.043 6.684-6.043 12.21 0 .664.02 1.345.067 2.028-.84-1.594-2.129-2.005-2.129-2.946 0-1.209 1.44-1.535 1.44-4.696 0-3.998-2.836-6.695-7.856-6.695h-11.387c-.064 0-.129.006-.192.017a5.8 5.8 0 0 0-.552-.025c-.993 0-2.168-.09-2.168 1.265v16.208c0 1.986-1.625 4.198-4.018 4.198-1.761 0-3.837-1.805-3.837-4.198v-19.13c.018-.145.028-.302.028-.47 0-1.065-.236-2.19-1.599-2.19H84.22c-.887 0-1.657.71-1.657 2.013 0 1.066.296 2.25 1.657 2.25H89.8c.827 0 1.834 1.063 1.834 1.831v21.599Zm54.275-20.045c2.755 0 4.606 4.063 4.606 9.12 0 3.07-1.039 8.939-4.606 8.939-2.799 0-4.65-4.018-4.65-9.074 0-3.072 1.038-8.985 4.65-8.985Zm-20.575 1.327c0-.745.838-1.254 1.906-1.254 2.139 0 4.372 1.393 4.372 3.3 0 .79-.838 3.579-4.372 3.579-.743 0-1.906-.233-1.906-1.254v-4.37Zm0 10.46c0-1.35 1.443-1.208 2.511-1.208 2.511 0 5.161 1.534 5.161 3.905 0 2.51-2.65 3.58-5.487 3.58-1.674 0-2.185-.512-2.185-1.21V75.62ZM99.373 99.13v-3.39c0-.606-.186-1.613-1.316-1.613-.996 0-1.386.75-1.55 1.162l-.021-3.247h-.925v7.088h.925v-2.075c0-.976.534-2.003 1.294-2.003.668 0 .668.503.668 1.407v2.671h.925Zm19.872-1.335-1.295-3.553h-1.027l1.849 4.888h.946l1.695-4.888h-1.028l-1.14 3.553ZM93.7 106.792l-1.294-3.554h-1.028l1.849 4.889h.945l1.695-4.889H94.84l-1.14 3.554Zm4.483-3.667c-1.366 0-1.83.688-1.83 1.468h.977c0-.39.226-.749.781-.749.35 0 .668.154.75.626v.852c-1.243 0-2.67.309-2.67 1.604 0 .759.472 1.314 1.386 1.314.75 0 1.14-.451 1.263-.718l.021.605h.924v-3.358c0-.442 0-1.644-1.602-1.644Zm.678 3.092c0 .575-.473 1.305-1.11 1.305-.277 0-.534-.248-.534-.627 0-.627.73-.955 1.459-.955h.185v.277ZM94.78 94.96v-.718h-1.357v-1.728l-.924.576v1.151h-.873v.719h.873v3.092c0 .667.287 1.19 1.469 1.19.246 0 .493-.02.73-.07v-.72a1.814 1.814 0 0 1-.494.072c-.719 0-.78-.514-.78-.955v-2.61h1.356Zm56.021 8.165c-.811 0-1.223.626-1.386 1.037-.093-.442-.401-1.037-1.264-1.037-.874 0-1.222.698-1.367 1.088l-.019-.975h-.926v4.889h.926v-2.074c0-.976.461-2.004 1.108-2.004.648 0 .648.504.648 1.408v2.67h.924v-2.342c0-.822.504-1.736 1.08-1.736.678 0 .678.493.678 1.408v2.67h.924v-3.389c0-.606-.175-1.613-1.326-1.613Zm2.438 5.002h1.417v-1.417h-1.417v1.417Zm-10.177-5.002c-.627 0-1.993.225-1.993 2.322 0 1.92.946 2.793 2.424 2.793.534 0 .823-.071 1.223-.165v-.728c-.217.072-.504.175-.924.175-1.337 0-1.799-1.285-1.799-2.2h2.835v-.235c0-1.151-.574-1.962-1.766-1.962Zm-1.028 1.582c0-.217.216-.863.976-.863.709 0 .894.555.894.863h-1.87Zm-2.552-8.618c0-1.15-.575-1.962-1.766-1.962-.628 0-1.993.226-1.993 2.322 0 1.92.945 2.794 2.423 2.794.534 0 .823-.072 1.223-.164v-.73c-.216.072-.502.175-.924.175-1.337 0-1.799-1.284-1.799-2.199h2.836v-.236Zm-2.795-.379c0-.216.216-.864.977-.864.709 0 .893.555.893.864h-1.87Zm-6.212 3.42v-3.39c0-.606-.186-1.613-1.316-1.613-.997 0-1.387.75-1.55 1.162l-.022-1.047h-.925v4.888h.925v-2.075c0-.976.534-2.003 1.294-2.003.668 0 .668.503.668 1.407v2.671h.926Zm-27.656.113c.535 0 .822-.072 1.223-.164v-.73c-.216.072-.503.175-.925.175-1.335 0-1.797-1.284-1.797-2.199h2.835v-.236c0-1.15-.575-1.962-1.767-1.962-.627 0-1.993.226-1.993 2.322 0 1.92.945 2.794 2.424 2.794Zm-.482-4.397c.708 0 .893.555.893.864h-1.87a.94.94 0 0 1 .977-.864Zm21.393-.719c-1.367 0-1.83.688-1.83 1.47h.976c0-.39.227-.75.781-.75.35 0 .669.154.75.626v.852c-1.243 0-2.67.309-2.67 1.603 0 .76.471 1.315 1.386 1.315.75 0 1.14-.452 1.264-.72l.02.607h.924v-3.358c0-.443 0-1.645-1.601-1.645Zm.677 3.092c0 .576-.472 1.305-1.109 1.305-.278 0-.534-.246-.534-.627 0-.627.729-.955 1.459-.955h.184v.277Zm11.541 8.093-.39-.225c-.319-.196-.709-.38-.709-.719 0-.307.401-.524.802-.524.534 0 .985.226 1.12.288v-.833c-.237-.04-.617-.174-1.11-.174-1.018 0-1.737.483-1.737 1.365 0 .72.535 1.049.977 1.326l.473.287c.328.216.78.421.78.792 0 .503-.555.627-.996.627-.515 0-1.142-.248-1.234-.289v.813c.216.06.648.194 1.315.194 1.1 0 1.839-.451 1.839-1.479 0-.81-.616-1.13-1.13-1.449Zm-15.268-2.187c-.811 0-1.222.626-1.387 1.037-.092-.442-.401-1.037-1.264-1.037-.873 0-1.222.698-1.366 1.088l-.02-.975h-.925v4.889h.925v-2.074c0-.976.462-2.004 1.109-2.004s.647.504.647 1.408v2.67h.925v-2.342c0-.822.503-1.736 1.079-1.736.678 0 .678.493.678 1.408v2.67h.924v-3.389c0-.606-.174-1.613-1.325-1.613Zm7.209 2.187-.391-.225c-.319-.196-.71-.38-.71-.719 0-.307.402-.524.802-.524.535 0 .986.226 1.12.288v-.833c-.236-.04-.616-.174-1.11-.174-1.017 0-1.735.483-1.735 1.365 0 .72.533 1.049.976 1.326l.472.287c.328.216.781.421.781.792 0 .503-.554.627-.997.627-.514 0-1.141-.248-1.232-.289v.813c.215.06.647.194 1.314.194 1.1 0 1.839-.451 1.839-1.479 0-.81-.617-1.13-1.129-1.449Zm3.607 1.459-1.305-3.533h-1.027l1.86 4.92-.688 2.075h.903l2.434-6.995h-1.026l-1.151 3.533Zm-15.216-14.729h-.924v2.876c-.134-.287-.514-.79-1.325-.79-1.11 0-1.727 1.016-1.727 2.64 0 1.397.483 2.475 1.675 2.475.853 0 1.254-.585 1.356-.863l.021.75h.924v-7.088Zm-1.983 6.482c-.863 0-.965-1.1-.965-1.838 0-1.028.236-1.84.955-1.84.822 0 1.069.976 1.069 1.829 0 .812-.309 1.849-1.059 1.849Zm20.937-.103a2.586 2.586 0 0 1-.78.103c-1.541 0-1.942-1.222-1.942-2.187 0-.905.391-1.49.997-1.49.678 0 .75.617.75.986h1.058c0-.802-.36-1.706-1.747-1.706-1.458 0-2.085 1.017-2.085 2.384 0 1.212.523 2.732 2.394 2.732.575 0 .996-.072 1.355-.185v-.637Zm-32.452 5.423c.678 0 .75.616.75.987h1.058c0-.802-.359-1.706-1.747-1.706-1.459 0-2.085 1.016-2.085 2.383 0 1.212.524 2.732 2.393 2.732.575 0 .997-.071 1.356-.185v-.636a2.624 2.624 0 0 1-.781.103c-1.54 0-1.941-1.222-1.941-2.189 0-.904.39-1.489.997-1.489Zm36.497-2.332-.925.575v1.151h-.873v.72h.873v3.091c0 .667.288 1.191 1.469 1.191.246 0 .493-.019.73-.071v-.718c-.135.04-.329.071-.494.071-.718 0-.78-.514-.78-.956v-2.608h1.356v-.72h-1.356v-1.726Zm3.886-3.132.019.75h.926v-7.088h-.926v2.876c-.133-.287-.513-.79-1.325-.79-1.108 0-1.726 1.016-1.726 2.64 0 1.397.483 2.475 1.675 2.475.853 0 1.254-.585 1.357-.863Zm-2.004-1.694c0-1.028.235-1.84.956-1.84.821 0 1.067.976 1.067 1.829 0 .812-.308 1.849-1.058 1.849-.863 0-.965-1.1-.965-1.838Zm-32.981 8.626c0 .977-.535 2.003-1.295 2.003-.668 0-.668-.492-.668-1.406v-2.671h-.924v3.39c0 .605.185 1.612 1.315 1.612.996 0 1.396-.749 1.551-1.16l.021 1.047h.924v-4.889h-.924v2.074Zm3.143-9.54c0-.443 0-1.645-1.602-1.645-1.367 0-1.829.688-1.829 1.47h.976c0-.39.225-.75.781-.75.349 0 .667.154.75.626v.852c-1.244 0-2.671.309-2.671 1.603 0 .76.472 1.315 1.386 1.315.75 0 1.141-.452 1.264-.72l.021.607h.924v-3.358Zm-.924 1.447c0 .576-.474 1.305-1.11 1.305-.278 0-.535-.246-.535-.627 0-.627.73-.955 1.459-.955h.186v.277Zm2.962 8.093c0 .977-.534 2.003-1.294 2.003-.668 0-.668-.492-.668-1.406v-2.671h-.924v3.39c0 .605.184 1.612 1.314 1.612.997 0 1.398-.749 1.552-1.16l.02 1.047h.925v-4.889h-.925v2.074ZM194.792 1.719l-1.472 3.713h-.521s-1.122-3.085-5.199-3.257c-4.911-.205-10.225 5.378-10.396 13.653-.147 7.399 5.999 7.196 6.33 7.196.327 0 2.654.406 6.911-2.534L202.808.244s.297.148 1.345.148c1.046 0 1.346-.1 1.346-.1l5.084 24.38s-1.944-.102-3.191-.102c-1.246 0-2.941.2-2.941.2l-.995-7.279h-8.176l-3.918 7.153s-.917-.104-1.804-.104c-.76 0-1.649.104-1.649.104l.184-.298c-1.258.417-3.266.89-5.899.89-4.707 0-11.145-2.488-10.894-9.489.194-5.528 2.792-9.364 4.347-10.838C176.75 3.865 180.325 0 187.764 0c4.786 0 7.028 1.719 7.028 1.719Zm1.859 13.554h6.383l-1.509-8.15-4.874 8.15Zm-185.23-.286a3.33 3.33 0 1 1 6.662 0 3.33 3.33 0 1 1-6.662 0Zm6.966 1.014s1.274-.82 1.274-3.101c0-2.28-1.65-5.729-2.352-7.09-.772-1.507-2.85-4.803-3.393-5.538 0 0 .594-.02.75-.02.164 0 1.945-.148 4.56.681 1.665.523 2.375 1.03 2.375 1.03s1.207 2.983 1.207 6.194c0 3.218-.8 5.04-1.459 6.222-.663 1.184-2.013 2.096-2.418 2.257l-.544-.635Zm-.578-3.225s.173-.869-.65-2.016c-1.488-2.07-6.627-3.361-8.124-3.663-1.661-.331-5.322-.69-6.232-.72 0 0 .277-.385.378-.512.1-.124 1.094-1.608 3.37-3.138 1.45-.974 2.384-1.29 2.384-1.29s2.972.841 5.483 2.845c2.51 2.004 3.45 3.753 3.964 5.008.51 1.256.475 2.845.348 3.442l-.921.044Zm-2.88-1.558s-.854-1.064-3.077-.557c-2.228.509-4.513 1.972-6.833 3.939-1.29 1.097-3.835 3.787-4.425 4.478 0 0-.154-.573-.189-.732-.039-.152-.576-1.857-.35-4.594.14-1.739.475-2.54.475-2.54s2.405-1.827 5.538-2.544c3.13-.716 5.18-.456 6.48-.073 1.444.421 2.672 1.506 2.918 1.865l-.537.758Zm-2.955 1.164s-1.47.173-2.444 2.271c-.608 1.313-1.064 2.838-1.064 7.493 0 1.694.493 5.446.668 6.34 0 0-.579-.228-.724-.297-.143-.074-1.764-.689-3.766-2.571-1.27-1.193-1.693-1.942-1.693-1.942s.189-3.137 1.582-6.03c1.394-2.894 2.808-4.246 3.928-5.013 1.421-.972 2.902-1.08 3.34-1.046l.173.795Zm4.255 6.079s1.435.486 3.218-.935c1.783-1.424 3.448-4.866 4.077-6.26.693-1.54 1.958-5.187 2.188-6.071 0 0 .357.419.457.543.098.122 1.299 1.426 2.28 3.983.629 1.629.7 2.592.7 2.592s-1.525 2.71-4.036 4.715c-2.513 2.002-4.434 2.52-5.772 2.737-1.341.218-2.894-.268-3.274-.486l.162-.818Zm13.96 17.958a3.332 3.332 0 1 1 6.665-.003 3.332 3.332 0 0 1-6.666.003Zm6.965 1.01s1.272-.816 1.272-3.099c0-2.283-1.647-5.729-2.35-7.09-.772-1.505-2.85-4.803-3.393-5.538 0 0 .594-.023.75-.023.164 0 1.945-.143 4.56.682 1.665.527 2.375 1.032 2.375 1.032s1.207 2.983 1.207 6.196c0 3.216-.8 5.038-1.459 6.22-.663 1.186-2.013 2.094-2.42 2.257l-.542-.638Zm-3.458-4.778s-.79-1.152-3.01-.64c-2.226.506-4.58 2.05-6.9 4.021-1.29 1.095-3.773 3.665-4.367 4.357 0 0-.152-.574-.189-.73-.035-.155-.495-1.862-.27-4.594.141-1.742.459-2.543.459-2.543s2.283-1.71 5.416-2.421c3.13-.719 5.18-.461 6.48-.079 1.444.424 2.672 1.512 2.918 1.87l-.536.759Zm-2.955 1.16s-1.47.176-2.444 2.27c-.608 1.315-1.064 2.842-1.064 7.496 0 1.69.493 5.445.668 6.339 0 0-.578-.228-.724-.3-.142-.07-1.766-.686-3.766-2.568-1.27-1.193-1.695-1.944-1.695-1.944s.19-3.135 1.582-6.029c1.396-2.895 2.81-4.247 3.93-5.014 1.421-.97 2.905-1.078 3.34-1.046l.173.797Zm-.97 3.094s-.924 1.346.233 3.523c1.49 2.812 4.103 4.551 5.326 5.473 1.347 1.02 4.402 2.842 5.208 3.266 0 0-.603.355-.746.426-.145.07-1.488.878-4.207 1.27-1.727.25-2.775.099-2.775.099s-2.412-2.168-3.762-5.087c-1.246-2.69-1.325-3.927-1.325-5.284 0-2.54.952-3.69 1.249-4.013l.8.327Zm1.84 2.691s.503 1.348 2.373 1.82c2.212.562 5.218.083 6.704-.274 1.769-.426 3.589-.871 7.28-2.394 0 0-.141.767-.174.924-.036.154-.308 1.795-1.697 4.163-.88 1.504-1.495 2.066-1.495 2.066s-3.274.518-6.407-.198c-3.135-.714-4.687-1.892-5.657-2.84-1.097-1.072-1.58-2.438-1.647-2.868l.72-.399Zm3.385.295s1.435.486 3.218-.938c1.783-1.423 3.448-4.863 4.077-6.256.694-1.541 1.958-5.188 2.19-6.07 0 0 .356.417.455.539.099.129 1.299 1.426 2.282 3.988.627 1.628.698 2.591.698 2.591s-1.527 2.709-4.035 4.713c-2.514 2.004-4.435 2.518-5.776 2.737-1.338.22-2.89-.265-3.268-.486l.159-.818Zm-1.663-24.667h6.362L38.17 7.15l-4.837 8.074Zm3.243 18.984s.173-.868-.65-2.016c-1.488-2.073-6.627-3.36-8.124-3.665-1.615-.324-5.121-.672-6.15-.718-.185.106-.524.301-.627.354-.145.067-1.488.88-4.204 1.272-1.728.244-2.779.1-2.779.1s-2.411-2.173-3.761-5.087c-1.246-2.69-1.323-3.928-1.323-5.285 0-2.545.952-3.694 1.247-4.015l.8.323s-.925 1.347.232 3.526c1.488 2.81 4.102 4.552 5.326 5.474 1.292.979 4.15 2.693 5.097 3.209.093-.127.224-.307.286-.383.092-.117.914-1.338 2.755-2.706-1.225.092-3.278.138-5.275-.318-3.133-.714-4.685-1.894-5.655-2.843-1.097-1.071-1.58-2.435-1.647-2.863l.72-.403s.503 1.347 2.373 1.82c2.212.562 5.216.082 6.704-.272 1.769-.427 3.54-.894 7.233-2.415L39.47.244s.298.148 1.344.148c1.05 0 1.347-.1 1.347-.1l5.084 24.38s-1.942-.102-3.188-.102c-1.246 0-2.944.2-2.944.2l-.995-7.279H31.94l-3.172 5.747c1.094.424 2.843 1.219 4.416 2.472 2.511 2.006 3.45 3.755 3.965 5.01.509 1.256.474 2.845.347 3.44l-.921.048ZM53.005.555h13.446s-.601 1.463-.601 2.483c0 .263.025.602.025.602s-2.748-.473-6.982-.473h-1.046l-1.437 7.558h3.92s1.91-.053 4.055-.287c0 0-.551 1.412-.551 2.278v.725s-2.094-.28-3.48-.28H55.91l-1.726 8.863s2.509-.103 4.548-.182a30.153 30.153 0 0 0 3.665-.368s-.579 1.258-.579 2.51c0 .291-.027.6-.027.6H48.379L53.005.555Zm50.856 0h13.446s-.606 1.463-.606 2.483c0 .263.025.602.025.602s-2.748-.473-6.982-.473h-1.046l-1.435 7.558h3.916s1.912-.053 4.059-.287c0 0-.553 1.412-.553 2.278v.725s-2.094-.28-3.476-.28h-4.448l-1.725 8.863s2.508-.103 4.549-.182c2.043-.08 3.663-.368 3.663-.368s-.578 1.258-.578 2.51c0 .291-.023.6-.023.6H99.231L103.86.555ZM73.405 2.511l-1.829 9.445h.814c4.68 0 5.567-3.873 5.752-6.614.202-3.048-3.218-2.831-3.218-2.831h-1.519ZM68.41.578h9.311s5.994-.366 5.994 4.37c0 4.732-3.822 7.19-6.855 7.74 0 0 1.257 3.193 1.99 4.785.73 1.598 3.269 7.295 3.269 7.295s-1.466-.154-3.27-.154c-1.803 0-3.139.182-3.139.182L71.496 13.47h-.23L69.04 24.768s-1.46-.154-2.744-.154c-1.287 0-2.566.182-2.566.182L68.41.578Zm15.984.03h18.201s-.546 1.228-.546 1.62c0 .393-.081 1.407-.081 1.407s-4.289-.652-6.199-.518l-4.157 21.628s-1.33-.182-2.693-.182c-1.36 0-2.668.182-2.668.182l4.266-21.603s-3.197-.005-6.65.47c0 0 .212-.392.477-1.52.205-.885.05-1.484.05-1.484Zm54.162 1.11-1.474 3.714h-.521s-1.117-3.085-5.197-3.257c-4.911-.205-10.398 5.378-10.564 13.653-.15 7.399 5.982 7.155 6.312 7.155.331 0 2.861.451 7.15-2.534l.417.207-1.308 3.069s-2.709 1.51-7.416 1.51c-4.701 0-11.289-2.487-11.041-9.488.194-5.528 2.94-9.364 4.495-10.838C120.513 3.865 124.086 0 131.529 0c4.782 0 7.026 1.719 7.026 1.719Zm-2.2 23.064L141.059.606h3.561s1.249 1.868 2.242 3.19c.992 1.323 5.47 7.261 5.844 7.825.371.563 3.766 5.39 3.766 5.39L159.667.607s.728.08 1.389.08c.659 0 1.467-.08 1.467-.08l-4.66 24.176s-1.057-.04-1.472-.04c-.414 0-1.596.04-1.596.04s-1.99-3.011-2.693-4c-.7-.992-5.803-8.06-6.095-8.43a1063.83 1063.83 0 0 1-3.437-4.665l-3.315 17.056s-.603-.169-1.306-.169c-.703 0-1.594.208-1.594.208Zm25.484.044 4.702-24.22s1.624.163 2.573.163c.949 0 2.776-.193 2.776-.193l-4.66 24.25s-1.968-.252-2.737-.252c-.772 0-2.654.252-2.654.252Z" fill="#2869A5"/><path d="M201.731 44.021V33.475h1.997v2.26c.398-.887 1.239-2.504 3.388-2.504 2.438 0 2.838 2.17 2.838 3.479v7.311h-1.994V38.26c0-1.949 0-3.036-1.44-3.036-1.64 0-2.792 2.216-2.792 4.322v4.475h-1.997Zm-83.643-1.707v1.553a7.44 7.44 0 0 1-1.575.154c-2.546 0-3.168-1.13-3.168-2.57v-6.67h-1.882v-1.55h1.882v-2.483l1.997-1.24v3.723h2.921v1.55h-2.921v5.628c0 .954.132 2.062 1.684 2.062.355 0 .774-.067 1.062-.157Zm2.186 1.707V28.733h1.997v7.002c.397-.887 1.242-2.504 3.389-2.504 2.439 0 2.838 2.17 2.838 3.479v7.311h-1.997V38.26c0-1.949 0-3.036-1.44-3.036-1.638 0-2.79 2.216-2.79 4.322v4.475h-1.997Zm11.721-10.546h1.992v10.546h-1.992V33.475Zm-.203-4.742h2.393v2.26h-2.393v-2.26Zm5.715 15.288V33.475h1.995v2.26c.399-.887 1.239-2.504 3.389-2.504 2.435 0 2.838 2.17 2.838 3.479v7.311h-1.995V38.26c0-1.949 0-3.036-1.44-3.036-1.64 0-2.792 2.216-2.792 4.322v4.475h-1.995Zm11.495 0V28.733h1.993v8.951l3.678-4.209h2.504l-3.902 4.61 4.28 5.936h-2.504l-4.01-5.45-.046 5.45h-1.993Zm24.78-1.773v1.375c-.777.244-1.687.398-2.928.398-4.032 0-5.16-3.28-5.16-5.895 0-2.946 1.352-5.139 4.499-5.139 2.99 0 3.766 1.949 3.766 3.677h-2.283c0-.797-.157-2.127-1.619-2.127-1.309 0-2.147 1.263-2.147 3.214 0 2.082.864 4.72 4.185 4.72.553 0 1.111-.046 1.687-.223Zm2.345-13.515h1.992V44.02h-1.992V28.733Zm12.625 13.36v1.573c-.863.2-1.485.355-2.637.355-3.191 0-5.229-1.884-5.229-6.026 0-4.52 2.948-5.008 4.298-5.008 2.569 0 3.81 1.75 3.81 4.234v.507h-6.113c0 1.972.997 4.743 3.877 4.743.909 0 1.529-.223 1.994-.378Zm-5.784-5.694h4.034c0-.666-.401-1.861-1.931-1.861a2.022 2.022 0 0 0-2.103 1.86Zm13.58 7.378v-1.306c-.309.576-1.152 1.55-2.772 1.55-1.969 0-2.987-1.195-2.987-2.836 0-2.791 3.077-3.457 5.759-3.457V35.89c-.175-1.02-.864-1.352-1.615-1.352-1.198 0-1.684.776-1.684 1.617h-2.105c0-1.684.995-3.168 3.943-3.168 3.456 0 3.456 2.592 3.456 3.545v7.245h-1.995Zm0-4.72h-.397c-1.573 0-3.148.71-3.148 2.062 0 .82.555 1.352 1.151 1.352 1.373 0 2.394-1.573 2.394-2.815v-.599Z" fill="#2C9AD5"/></svg>