<svg width="24" height="24" viewBox="0 0 24 24" fill="none" xmlns="http://www.w3.org/2000/svg">
<path d="M23 12.6667H1C0.448 12.6667 0 12.2187 0 11.6667C0 11.1147 0.448 10.6667 1 10.6667H23C23.552 10.6667 24 11.1147 24 11.6667C24 12.2187 23.552 12.6667 23 12.6667ZM23 5H1C0.448 5 0 4.552 0 4C0 3.448 0.448 3 1 3H23C23.552 3 24 3.448 24 4C24 4.552 23.552 5 23 5ZM23 20.3333H1C0.448 20.3333 0 19.8853 0 19.3333C0 18.7813 0.448 18.3333 1 18.3333H23C23.552 18.3333 24 18.7813 24 19.3333C24 19.8853 23.552 20.3333 23 20.3333Z" fill="black" fill-opacity="0.8"/>
</svg>
