<svg width="24" height="24" viewBox="0 0 24 24" fill="none" xmlns="http://www.w3.org/2000/svg">
<path d="M5.99954 6C5.99954 4.93913 6.42097 3.92172 7.17111 3.17157C7.92126 2.42143 8.93867 2 9.99954 2H13.9995C15.0604 2 16.0778 2.42143 16.828 3.17157C17.5781 3.92172 17.9995 4.93913 17.9995 6V8H21.9995C22.1447 8.00007 22.2881 8.03174 22.4198 8.09281C22.5515 8.15388 22.6683 8.24288 22.7621 8.35365C22.8559 8.46441 22.9245 8.59427 22.9631 8.73421C23.0017 8.87415 23.0093 9.02081 22.9855 9.164L21.4035 18.658C21.2478 19.5916 20.7661 20.4398 20.044 21.0517C19.3218 21.6636 18.4061 21.9996 17.4595 22H6.53954C5.59284 21.9999 4.67686 21.664 3.95451 21.052C3.23216 20.4401 2.75027 19.5918 2.59454 18.658L1.01354 9.164C0.989734 9.02081 0.997387 8.87415 1.03597 8.73421C1.07455 8.59427 1.14314 8.46441 1.23696 8.35365C1.33079 8.24288 1.4476 8.15388 1.57929 8.09281C1.71098 8.03174 1.85438 8.00007 1.99954 8H5.99954V6ZM7.99954 8H12.9995C13.2648 8 13.5191 8.10536 13.7066 8.29289C13.8942 8.48043 13.9995 8.73478 13.9995 9C13.9995 9.26522 13.8942 9.51957 13.7066 9.70711C13.5191 9.89464 13.2648 10 12.9995 10H3.17954L4.56854 18.329C4.64636 18.7957 4.88709 19.2196 5.24795 19.5255C5.60882 19.8315 6.06645 19.9996 6.53954 20H17.4595C17.9328 19.9998 18.3907 19.8318 18.7517 19.5259C19.1128 19.2199 19.3537 18.7958 19.4315 18.329L20.8195 10H16.9995C16.7343 10 16.48 9.89464 16.2924 9.70711C16.1049 9.51957 15.9995 9.26522 15.9995 9V6C15.9995 5.46957 15.7888 4.96086 15.4138 4.58579C15.0387 4.21071 14.53 4 13.9995 4H9.99954C9.46911 4 8.9604 4.21071 8.58533 4.58579C8.21025 4.96086 7.99954 5.46957 7.99954 6V8Z" fill="#0A2540"/>
</svg>
