<svg width="24" height="24" viewBox="0 0 24 24" fill="none" xmlns="http://www.w3.org/2000/svg">
<path d="M4.52495 5C4.235 5 3.99995 5.23505 3.99995 5.525C3.99995 5.81495 4.235 6.05 4.52495 6.05H6.26949C7.1384 8.20206 7.99428 10.3581 8.8562 12.5141L8.06324 14.4226C7.99681 14.5818 8.0155 14.7737 8.11139 14.917C8.20729 15.0603 8.37753 15.1507 8.54995 15.15H17.3C17.5773 15.1538 17.8324 14.9024 17.8324 14.625C17.8324 14.3476 17.5773 14.0961 17.3 14.1H9.33745L9.79137 13.0172L18.2187 12.3445C18.4393 12.3272 18.639 12.1554 18.689 11.9398L19.739 7.38984C19.8077 7.08338 19.539 6.74898 19.225 6.75H7.68041L7.11166 5.32812C7.03379 5.13566 6.83257 5.00001 6.62495 5H4.52495ZM8.10152 7.8H11.35V9.375H8.73041L8.10152 7.8ZM12.4 7.8H14.5V9.375H12.4V7.8ZM15.55 7.8H18.5632L18.2023 9.375H15.55V7.8ZM9.15152 10.425H11.35V11.8414L9.76949 11.9672L9.15152 10.425ZM12.4 10.425H14.5V11.5898L12.4 11.7594V10.425ZM15.55 10.425H17.9562L17.7484 11.3328L15.55 11.5078V10.425ZM10.3 15.5C9.33968 15.5 8.54995 16.2897 8.54995 17.25C8.54995 18.2103 9.33968 19 10.3 19C11.2602 19 12.05 18.2103 12.05 17.25C12.05 16.2897 11.2602 15.5 10.3 15.5ZM15.55 15.5C14.5897 15.5 13.8 16.2897 13.8 17.25C13.8 18.2103 14.5897 19 15.55 19C16.5102 19 17.3 18.2103 17.3 17.25C17.3 16.2897 16.5102 15.5 15.55 15.5ZM10.3 16.55C10.6928 16.55 11 16.8572 11 17.25C11 17.6428 10.6928 17.95 10.3 17.95C9.90717 17.95 9.59995 17.6428 9.59995 17.25C9.59995 16.8572 9.90717 16.55 10.3 16.55ZM15.55 16.55C15.9427 16.55 16.25 16.8572 16.25 17.25C16.25 17.6428 15.9427 17.95 15.55 17.95C15.1571 17.95 14.85 17.6428 14.85 17.25C14.85 16.8572 15.1571 16.55 15.55 16.55Z" fill="white"/>
</svg>
