<svg width="16" height="16" viewBox="0 0 16 16" fill="none" xmlns="http://www.w3.org/2000/svg">
<path d="M5.49999 13.5C5.43432 13.5001 5.36929 13.4872 5.30862 13.462C5.24796 13.4369 5.19286 13.4 5.14649 13.3535C5.10003 13.3071 5.06317 13.252 5.03803 13.1913C5.01288 13.1307 4.99994 13.0657 4.99994 13C4.99994 12.9343 5.01288 12.8693 5.03803 12.8087C5.06317 12.748 5.10003 12.6929 5.14649 12.6465L9.79299 8L5.14649 3.3535C4.95111 3.15812 4.95111 2.84175 5.14649 2.6465C5.34186 2.45125 5.65824 2.45112 5.85349 2.6465L10.8535 7.6465C10.8999 7.6929 10.9368 7.74801 10.9619 7.80866C10.9871 7.86932 11 7.93434 11 8C11 8.06566 10.9871 8.13068 10.9619 8.19134C10.9368 8.25199 10.8999 8.3071 10.8535 8.3535L5.85349 13.3535C5.80712 13.4 5.75202 13.4369 5.69135 13.462C5.63069 13.4872 5.56566 13.5001 5.49999 13.5Z" fill="#0A2540"/>
</svg>
