<svg width="22" height="22" viewBox="0 0 22 22" fill="none" xmlns="http://www.w3.org/2000/svg">
<path d="M9.92155 11.1256C10.496 11.5086 11.504 11.5087 12.0786 11.1256L12.0789 11.1254L21.87 4.59793C21.5489 3.66911 20.6661 3 19.6295 3H2.37042C1.33379 3 0.451077 3.66911 0.129883 4.59793L9.92125 11.1255L9.92155 11.1256Z" fill="#6488FF"/>
<path d="M12.7939 12.198L12.7936 12.1982C12.2907 12.5334 11.6453 12.701 11 12.701C10.3546 12.701 9.70938 12.5335 9.20651 12.1982L9.2063 12.1981L0 6.06056V17.1067C0 18.4137 1.06336 19.477 2.37043 19.477H19.6297C20.9367 19.477 22 18.4137 22 17.1067V6.06056L12.7939 12.198Z" fill="#6488FF"/>
</svg>
