<svg width="24" height="24" viewBox="0 0 24 24" fill="none" xmlns="http://www.w3.org/2000/svg">
<path fill-rule="evenodd" clip-rule="evenodd" d="M10.567 3.94615C9.09696 2.93842 7.34511 2.73518 5.64336 3.48395C3.42397 4.40869 1.29705 7.09046 2.2218 10.7894C2.86912 14.1186 5.45841 16.5229 7.58532 18.0025C8.59444 18.7173 9.5462 19.2791 10.3015 19.6794C10.3329 19.696 10.364 19.7123 10.3947 19.7284C10.9362 20.0119 11.369 20.2084 11.6385 20.3144C11.7946 20.3758 11.8959 20.4068 11.9316 20.4068H12.1166C12.209 20.4068 12.3015 20.4068 12.3015 20.3144C12.5789 20.2219 14.4284 19.3896 16.5553 17.91C18.5898 16.4304 21.1791 14.0261 21.9189 10.6045C22.7511 6.99798 20.6242 4.31622 18.4048 3.39147C16.7111 2.71399 14.9182 2.92991 13.4623 3.93014C12.9309 4.2952 12.4444 4.76473 12.0241 5.33344C11.5848 4.77214 11.094 4.30744 10.567 3.94615ZM15.3959 16.2802C17.3145 14.8819 19.3859 12.8555 19.964 10.1818L19.967 10.1683L19.9701 10.1548C20.548 7.65052 19.107 5.85784 17.6487 5.24312C16.2359 4.68439 14.6939 5.08614 13.6324 6.52222L12.0696 8.63669L10.4491 6.56606C9.26159 5.0487 7.80189 4.71923 6.44883 5.31458L6.43079 5.32252L6.41259 5.3301C4.96813 5.93196 3.51189 7.70359 4.16208 10.3044L4.17492 10.3557L4.18503 10.4077C4.67955 12.951 6.72297 14.9663 8.72745 16.3607L8.73442 16.3655L8.74136 16.3705C9.76562 17.096 10.7241 17.6492 11.4367 18.0159C11.6407 18.1209 11.8206 18.2087 11.9726 18.2794C12.1642 18.1896 12.4427 18.0538 12.7979 17.8654C13.4983 17.494 14.4154 16.9611 15.3959 16.2802Z" fill="#0A2540"/>
</svg>
