<svg width="25" height="25" viewBox="0 0 25 25" fill="none" xmlns="http://www.w3.org/2000/svg">
<circle cx="12.5" cy="12.5" r="12.45" fill="white" stroke="#0A2540" stroke-width="0.1"/>
<path d="M8.09594 8.10708C8.00117 9.11795 7.93466 10.9069 8.53154 11.6684C8.53154 11.6684 8.25056 9.70319 10.7694 7.23754C11.7836 6.24496 12.018 4.89492 11.6639 3.88239C11.4627 3.30878 11.0953 2.83494 10.7761 2.50408C10.5899 2.30955 10.7328 1.98867 11.0038 2.00031C12.6432 2.07346 15.3 2.52902 16.429 5.36211C16.9244 6.60574 16.961 7.89094 16.7249 9.19776C16.5753 10.0324 16.0432 11.8879 17.2569 12.1156C18.1232 12.2786 18.5421 11.5903 18.73 11.0948C18.8082 10.8886 19.0792 10.8371 19.2255 11.0017C20.6886 12.666 20.8133 14.6262 20.5107 16.3137C19.9254 19.5758 16.6218 21.95 13.3398 21.95C9.23982 21.95 5.97611 19.6041 5.12984 15.3577C4.789 13.6436 4.96191 10.2519 7.60547 7.85769C7.80166 7.67813 8.12254 7.83774 8.09594 8.10708Z" fill="url(#paint0_radial_0_464)"/>
<path d="M14.8387 14.2072C13.3274 12.2619 14.0041 10.0423 14.3749 9.15782C14.4247 9.04144 14.2917 8.93171 14.187 9.0032C13.5369 9.44545 12.2051 10.4862 11.585 11.951C10.7454 13.9312 10.8052 14.9005 11.3023 16.0843C11.6016 16.7975 11.2541 16.9488 11.0796 16.9754C10.91 17.002 10.7537 16.889 10.629 16.7709C10.2703 16.4265 10.0146 15.989 9.89079 15.5073C9.86419 15.4043 9.72951 15.376 9.668 15.4608C9.20247 16.1042 8.96139 17.1367 8.94975 17.8666C8.91317 20.1228 10.777 21.9516 13.0315 21.9516C15.8729 21.9516 17.9428 18.8093 16.3101 16.1824C15.8363 15.4176 15.3907 14.9171 14.8387 14.2072Z" fill="url(#paint1_radial_0_464)"/>
<defs>
<radialGradient id="paint0_radial_0_464" cx="0" cy="0" r="1" gradientTransform="matrix(-11.7359 -0.0509337 -0.0836769 19.2562 12.5278 22.0017)" gradientUnits="userSpaceOnUse">
<stop offset="0.314" stop-color="#FB7E10"/>
<stop offset="0.662" stop-color="#FB4310"/>
<stop offset="0.972" stop-color="#FB4310"/>
</radialGradient>
<radialGradient id="paint1_radial_0_464" cx="0" cy="0" r="1" gradientTransform="matrix(-0.124029 12.2788 9.24074 0.0933284 13.1877 10.323)" gradientUnits="userSpaceOnUse">
<stop offset="0.214" stop-color="#FFF176"/>
<stop offset="0.328" stop-color="#FFF27D"/>
<stop offset="0.487" stop-color="#FFF48F"/>
<stop offset="0.672" stop-color="#FFF7AD"/>
<stop offset="0.793" stop-color="#FFF9C4"/>
<stop offset="0.822" stop-color="#FFF8BD" stop-opacity="0.804"/>
<stop offset="0.863" stop-color="#FFF6AB" stop-opacity="0.529"/>
<stop offset="0.91" stop-color="#FFF38D" stop-opacity="0.209"/>
<stop offset="0.941" stop-color="#FFF176" stop-opacity="0"/>
</radialGradient>
</defs>
</svg>
