<svg width="37" height="37" viewBox="0 0 37 37" fill="none" xmlns="http://www.w3.org/2000/svg">
<g clip-path="url(#clip0_2002_8070)">
<path d="M27.7618 0H9.2382C4.13608 0 0 4.13608 0 9.2382V27.7618C0 32.8639 4.13608 37 9.2382 37H27.7618C32.8639 37 37 32.8639 37 27.7618V9.2382C37 4.13608 32.8639 0 27.7618 0Z" fill="url(#paint0_linear_2002_8070)"/>
<path d="M27.7618 0H9.2382C4.13608 0 0 4.13608 0 9.2382V27.7618C0 32.8639 4.13608 37 9.2382 37H27.7618C32.8639 37 37 32.8639 37 27.7618V9.2382C37 4.13608 32.8639 0 27.7618 0Z" fill="url(#paint1_radial_2002_8070)"/>
<path fill-rule="evenodd" clip-rule="evenodd" d="M18.8038 32.4981C16.0286 32.4981 14.7389 32.093 12.4971 30.4724C11.079 32.2956 6.58868 33.7204 6.39284 31.2827C6.39284 29.4528 5.98769 27.9065 5.52852 26.2184C4.98158 24.1386 4.36035 21.8225 4.36035 18.4666C4.36035 10.4514 10.9372 4.42149 18.7296 4.42149C26.5286 4.42149 32.6396 10.7485 32.6396 18.5408C32.6658 26.2126 26.4756 32.4572 18.8038 32.4981ZM18.9186 11.3495C15.1238 11.1537 12.1662 13.7804 11.5112 17.8994C10.971 21.3094 11.9298 25.4621 12.7469 25.6782C13.1385 25.7727 14.1244 24.9759 14.7389 24.3615C15.7549 25.0634 16.9381 25.4849 18.1691 25.5836C22.1012 25.7728 25.4611 22.7793 25.7251 18.8515C25.8788 14.9154 22.8513 11.5815 18.9186 11.3563V11.3495Z" fill="white"/>
</g>
<defs>
<linearGradient id="paint0_linear_2002_8070" x1="4.36034" y1="28.1398" x2="37" y2="18.5" gradientUnits="userSpaceOnUse">
<stop stop-color="#44CCFF"/>
<stop offset="0.662" stop-color="#5533EE"/>
<stop offset="1" stop-color="#9933DD"/>
</linearGradient>
<radialGradient id="paint1_radial_2002_8070" cx="0" cy="0" r="1" gradientUnits="userSpaceOnUse" gradientTransform="translate(-0.880259 -16.2499) rotate(51.356) scale(44.9001 18.5)">
<stop stop-color="#0000FF"/>
<stop offset="1" stop-opacity="0"/>
</radialGradient>
<clipPath id="clip0_2002_8070">
<rect width="37" height="37" rx="18.5" fill="white"/>
</clipPath>
</defs>
</svg>
