<svg width="37" height="37" viewBox="0 0 37 37" fill="none" xmlns="http://www.w3.org/2000/svg">
<rect width="37" height="37" rx="18.5" fill="#F79A38"/>
<path d="M23.6139 21.1965C24.0862 20.7085 24.1536 20.0113 23.7488 19.3142C23.4115 18.7565 22.8043 18.4776 22.1297 18.6171C21.8598 18.6868 21.5899 18.8262 21.3201 19.0354C19.2287 20.4993 16.3951 20.4296 14.3037 18.9656C14.1688 18.8959 14.0339 18.8262 13.8989 18.7565C13.1568 18.4079 12.4147 18.5474 12.0099 19.2445C11.5377 19.9416 11.6051 20.7085 12.2123 21.3359C12.3472 21.4753 12.4822 21.545 12.5496 21.6845L12.6171 21.7542C13.5616 22.521 14.7085 23.009 16.1928 23.2182L15.3157 24.1245C14.5736 24.8913 13.764 25.7279 13.0219 26.4947C12.8195 26.7039 12.5496 27.0524 12.5496 27.5404C12.5496 28.1678 12.887 28.7953 13.4942 29.0741C13.6966 29.2136 13.8989 29.2136 14.1013 29.2136C14.4387 29.2136 14.8435 29.0741 15.1133 28.7256C16.1253 27.6799 16.9349 26.8433 17.7445 26.0067C17.8119 25.937 17.8119 25.937 17.8119 25.937C17.8119 25.937 17.8794 25.937 17.8794 26.0067C18.4191 26.6341 19.0263 27.1919 19.566 27.8193C19.8359 28.0981 20.1057 28.377 20.3756 28.6558C20.7129 29.0044 20.9828 29.1438 21.3876 29.1438C21.9947 29.2136 22.6694 28.7953 22.9392 28.1678C23.2091 27.6101 23.0742 26.913 22.6019 26.4947C21.9273 25.7976 21.2526 25.0307 20.5105 24.3336L19.3636 23.1485C19.9708 23.0787 20.6454 22.9393 21.2526 22.6605C22.2646 22.3119 23.0067 21.8239 23.6139 21.1965Z" fill="white"/>
<path d="M17.8119 19.2445C20.7129 19.2445 23.0742 16.8742 23.0742 13.8765C23.0742 12.4125 22.5345 11.0183 21.5225 9.97256C20.5105 8.92685 19.2287 8.36914 17.8794 8.36914C14.9784 8.36914 12.6846 10.8091 12.6171 13.7371C12.6171 15.2011 13.1568 16.5256 14.1688 17.5714C15.1133 18.6868 16.3951 19.2445 17.8119 19.2445ZM16.3277 12.2731C16.7325 11.8548 17.2722 11.6457 17.8119 11.6457C19.0263 11.6457 19.9033 12.6217 19.9033 13.8068C19.9033 15.0617 18.9588 15.9679 17.8119 15.9679C16.5975 15.9679 15.7205 14.9919 15.7205 13.8068C15.7205 13.2491 15.9229 12.6914 16.3277 12.2731Z" fill="white"/>
<path d="M23.6139 21.1965C24.0862 20.7085 24.1536 20.0113 23.7488 19.3142C23.4115 18.7565 22.8043 18.4776 22.1297 18.6171C21.8598 18.6868 21.5899 18.8262 21.3201 19.0354C19.2287 20.4993 16.3951 20.4296 14.3037 18.9656C14.1688 18.8959 14.0339 18.8262 13.8989 18.7565C13.1568 18.4079 12.4147 18.5474 12.0099 19.2445C11.5377 19.9416 11.6051 20.7085 12.2123 21.3359C12.3472 21.4753 12.4822 21.545 12.5496 21.6845L12.6171 21.7542C13.5616 22.521 14.7085 23.009 16.1928 23.2182L15.3157 24.1245C14.5736 24.8913 13.764 25.7279 13.0219 26.4947C12.8195 26.7039 12.5496 27.0524 12.5496 27.5404C12.5496 28.1678 12.887 28.7953 13.4942 29.0741C13.6966 29.2136 13.8989 29.2136 14.1013 29.2136C14.4387 29.2136 14.8435 29.0741 15.1133 28.7256C16.1253 27.6799 16.9349 26.8433 17.7445 26.0067C17.8119 25.937 17.8119 25.937 17.8119 25.937C17.8119 25.937 17.8794 25.937 17.8794 26.0067C18.4191 26.6341 19.0263 27.1919 19.566 27.8193C19.8359 28.0981 20.1057 28.377 20.3756 28.6558C20.7129 29.0044 20.9828 29.1438 21.3876 29.1438C21.9947 29.2136 22.6694 28.7953 22.9392 28.1678C23.2091 27.6101 23.0742 26.913 22.6019 26.4947C21.9273 25.7976 21.2526 25.0307 20.5105 24.3336L19.3636 23.1485C19.9708 23.0787 20.6454 22.9393 21.2526 22.6605C22.2646 22.3119 23.0067 21.8239 23.6139 21.1965Z" fill="white"/>
</svg>
