<svg width="22" height="22" viewBox="0 0 22 22" fill="none" xmlns="http://www.w3.org/2000/svg">
<path d="M10.7451 1.50177C10.624 1.49108 10.504 1.52911 10.4114 1.60755C10.3188 1.68599 10.2606 1.79889 10.2511 1.91892C10.2309 2.17087 10.4174 2.39075 10.6691 2.41095C12.7612 2.58684 14.7775 3.38193 16.3174 4.81881C16.3186 4.82 16.321 4.82 16.3222 4.82118C16.4196 4.91507 16.5169 5.01134 16.6179 5.10879H16.6167L16.6262 5.1183C18.3894 6.71086 19.3821 8.96645 19.5899 11.3198V11.3186C19.6006 11.4399 19.6576 11.5516 19.7502 11.6288C19.8428 11.7072 19.9627 11.7453 20.0838 11.7346C20.2038 11.7239 20.3154 11.6668 20.3937 11.5741C20.4709 11.4814 20.5089 11.3614 20.4982 11.2402C20.2726 8.68615 19.1933 6.20697 17.2388 4.44202C17.1426 4.35051 17.0464 4.25424 16.9467 4.15916C16.9443 4.15679 16.9431 4.1556 16.9419 4.15441C15.2344 2.55947 13.0191 1.69314 10.7451 1.50177ZM3.8179 3.01946C3.67304 3.02184 3.52937 3.04323 3.38925 3.08007C2.83119 3.22982 2.34672 3.64935 2.17929 4.27449L1.72334 5.97281C1.11777 8.23329 1.76371 10.6458 3.41773 12.3015L9.69197 18.5815C11.346 20.2371 13.7564 20.8824 16.0149 20.2763L17.7116 19.8235C18.9608 19.4883 19.3906 17.8767 18.4775 16.9628L16.3224 14.8069C15.5601 14.0439 14.4226 13.7896 13.4086 14.1557L13.0963 14.2686C12.258 14.5704 11.3259 14.3601 10.6954 13.729L8.26839 11.2998C7.6379 10.6687 7.42773 9.73573 7.73052 8.89668L7.84332 8.58531C8.20902 7.56918 7.95493 6.4318 7.19264 5.66762L5.03755 3.51174C4.6944 3.16827 4.25389 3.01496 3.8193 3.02208L3.8179 3.01946ZM10.3259 3.69453V3.69572C10.0742 3.67908 9.85688 3.86923 9.84025 4.11999C9.83194 4.24122 9.87231 4.36125 9.95187 4.45156C10.0302 4.54307 10.143 4.60012 10.2641 4.60725C11.9289 4.72016 13.5473 5.33578 14.7881 6.44583V6.44702H14.7905C15.5563 7.13039 16.2011 7.94569 16.6369 8.85963V8.85844C16.6381 8.86319 16.6404 8.86676 16.6416 8.87032C17.0976 9.75693 17.3505 10.7291 17.4134 11.7179C17.4206 11.8391 17.4764 11.952 17.5678 12.0329C17.658 12.1125 17.778 12.1529 17.8979 12.1446C18.019 12.1375 18.1318 12.0816 18.2113 11.9913C18.2921 11.8998 18.3324 11.7809 18.3241 11.6597C18.2541 10.5592 17.9715 9.46817 17.4573 8.4663L17.455 8.46393C16.9598 7.42519 16.2379 6.5184 15.3949 5.76609C13.9854 4.50512 12.1722 3.82175 10.3246 3.69576L10.3259 3.69453ZM9.89846 5.86468C9.64674 5.85755 9.43658 6.05602 9.42944 6.30797C9.42231 6.55874 9.61823 6.76909 9.86995 6.77743C11.2711 6.82259 12.6033 7.39901 13.5948 8.39256C14.5863 9.38493 15.1633 10.716 15.2085 12.1184V12.1172C15.212 12.2384 15.2631 12.3537 15.3509 12.4369C15.44 12.5201 15.5575 12.5641 15.6787 12.5605C15.9304 12.5522 16.1275 12.3406 16.1192 12.0887C16.0669 10.4545 15.396 8.9035 14.2419 7.74705C13.0866 6.59066 11.5323 5.91681 9.89969 5.86569L9.89846 5.86468Z" fill="#6488FF"/>
</svg>
