<svg width="37" height="37" viewBox="0 0 37 37" fill="none" xmlns="http://www.w3.org/2000/svg">
<path d="M37 18.5C37 8.28273 28.7173 0 18.5 0C8.28273 0 0 8.28273 0 18.5C0 28.7173 8.28273 37 18.5 37C28.7173 37 37 28.7173 37 18.5Z" fill="#E60023"/>
<path d="M18.5 9.25195C13.4125 9.25195 9.25 13.4145 9.25 18.502C9.25 22.3176 11.5625 25.5551 14.8 26.9426C14.8 26.2488 14.8 25.5551 14.9156 24.8613C15.1469 24.052 16.0719 19.7738 16.0719 19.7738C16.0719 19.7738 15.725 19.1957 15.725 18.2707C15.725 16.8832 16.5344 15.8426 17.4594 15.8426C18.2688 15.8426 18.7312 16.4207 18.7312 17.2301C18.7312 18.0395 18.1531 19.3113 17.9219 20.4676C17.6906 21.3926 18.3844 22.202 19.425 22.202C21.1594 22.202 22.3156 20.0051 22.3156 17.2301C22.3156 15.1488 20.9281 13.6457 18.5 13.6457C15.725 13.6457 13.9906 15.727 13.9906 18.0395C13.9906 18.8488 14.2219 19.427 14.5688 19.8895C14.6844 20.1207 14.8 20.1207 14.6844 20.352C14.6844 20.4676 14.5687 20.9301 14.4531 21.0457C14.3375 21.277 14.2219 21.3926 13.9906 21.277C12.7188 20.6988 12.1406 19.3113 12.1406 17.6926C12.1406 15.0332 14.3375 11.9113 18.7312 11.9113C22.3156 11.9113 24.6281 14.4551 24.6281 17.2301C24.6281 20.8145 22.6625 23.5895 19.6562 23.5895C18.6156 23.5895 17.6906 23.0113 17.3437 22.4332C17.3437 22.4332 16.7656 24.5145 16.65 24.977C16.4187 25.6707 16.0719 26.3645 15.725 26.9426C16.5344 27.1738 17.4594 27.2895 18.3844 27.2895C23.4719 27.2895 27.6344 23.127 27.6344 18.0395C27.75 13.4145 23.5875 9.25195 18.5 9.25195Z" fill="white"/>
</svg>
