<svg width="36" height="36" viewBox="0 0 36 36" fill="none" xmlns="http://www.w3.org/2000/svg">
<g clip-path="url(#clip0_2073_7636)">
<mask id="mask0_2073_7636" style="mask-type:luminance" maskUnits="userSpaceOnUse" x="0" y="0" width="36" height="36">
<path d="M27.2727 0H8.72727C3.90733 0 0 3.90733 0 8.72727V27.2727C0 32.0927 3.90733 36 8.72727 36H27.2727C32.0927 36 36 32.0927 36 27.2727V8.72727C36 3.90733 32.0927 0 27.2727 0Z" fill="white"/>
</mask>
<g mask="url(#mask0_2073_7636)">
<path d="M36 0H0V36H36V0Z" fill="#100943"/>
<path d="M36 18C45.9412 18 54 9.94113 54 6.89246e-06C54 -9.94113 45.9412 -18 36 -18C26.0589 -18 18 -9.94113 18 6.89246e-06C18 9.94113 26.0589 18 36 18Z" fill="#ED143B"/>
<path d="M22.2372 17.1781H11.6015V12.9695H22.2372C22.8584 12.9695 23.2904 13.0778 23.5072 13.2668C23.724 13.456 23.8582 13.8067 23.8582 14.319V15.8302C23.8582 16.37 23.724 16.7207 23.5072 16.9099C23.2904 17.0989 22.8584 17.1798 22.2372 17.1798V17.1781ZM22.9668 9.00161H7.09094V27H11.6015V21.1444H19.9139L23.8582 27H28.9091L24.5604 21.1169C26.1637 20.8793 26.8836 20.388 27.4773 19.5782C28.071 18.7685 28.3688 17.4739 28.3688 15.7462V14.3966C28.3688 13.3719 28.2603 12.5622 28.071 11.9416C27.8818 11.3209 27.5583 10.7811 27.0988 10.2962C26.6134 9.83722 26.0731 9.51395 25.4243 9.29738C24.7755 9.1083 23.965 9 22.9668 9V9.00161Z" fill="white"/>
</g>
</g>
<defs>
<clipPath id="clip0_2073_7636">
<rect width="36" height="36" fill="white"/>
</clipPath>
</defs>
</svg>
