<svg width="24" height="24" viewBox="0 0 24 24" fill="none" xmlns="http://www.w3.org/2000/svg">
<path d="M11 5.00001C10.2121 5.00001 9.43185 5.1552 8.7039 5.45673C7.97595 5.75826 7.31451 6.20021 6.75736 6.75736C6.20021 7.31452 5.75825 7.97595 5.45672 8.7039C5.15519 9.43186 5 10.2121 5 11C5 11.7879 5.15519 12.5682 5.45672 13.2961C5.75825 14.0241 6.20021 14.6855 6.75736 15.2426C7.31451 15.7998 7.97595 16.2418 8.7039 16.5433C9.43185 16.8448 10.2121 17 11 17C12.5913 17 14.1174 16.3679 15.2426 15.2426C16.3679 14.1174 17 12.5913 17 11C17 9.40871 16.3679 7.88258 15.2426 6.75736C14.1174 5.63215 12.5913 5.00001 11 5.00001ZM3 11C3.00005 9.72415 3.30525 8.46682 3.89012 7.33293C4.475 6.19903 5.3226 5.22147 6.36217 4.48183C7.40175 3.74218 8.60315 3.2619 9.86612 3.08107C11.1291 2.90024 12.417 3.0241 13.6224 3.44231C14.8277 3.86053 15.9156 4.56097 16.7951 5.48519C17.6747 6.4094 18.3204 7.53058 18.6785 8.75516C19.0366 9.97973 19.0965 11.2722 18.8534 12.5247C18.6103 13.7771 18.0712 14.9533 17.281 15.955L21.7 20.285C21.7939 20.3769 21.8688 20.4864 21.9203 20.6073C21.9719 20.7282 21.9992 20.858 22.0006 20.9894C22.0019 21.1208 21.9774 21.2512 21.9285 21.3731C21.8795 21.495 21.8069 21.6061 21.715 21.7C21.6231 21.7939 21.5136 21.8688 21.3927 21.9203C21.2718 21.9719 21.142 21.9992 21.0106 22.0006C20.8792 22.002 20.7488 21.9775 20.6269 21.9285C20.505 21.8795 20.3939 21.8069 20.3 21.715L15.856 17.358C14.6705 18.2635 13.2555 18.8194 11.7708 18.9632C10.286 19.1069 8.79067 18.8326 7.45356 18.1714C6.11645 17.5101 4.99086 16.4881 4.20389 15.2209C3.41692 13.9537 2.99993 12.4917 3 11Z" fill="black" fill-opacity="0.8"/>
</svg>
