<svg width="37" height="37" viewBox="0 0 37 37" fill="none" xmlns="http://www.w3.org/2000/svg">
<g clip-path="url(#clip0_2073_7624)">
<rect x="-0.00012207" width="37" height="37" rx="18.5" fill="#111111"/>
<path d="M27.72 14.129C27.0819 14.129 26.45 14.0033 25.8604 13.7591C25.2708 13.5149 24.7351 13.157 24.2838 12.7057C23.8326 12.2545 23.4746 11.7188 23.2304 11.1292C22.9862 10.5396 22.8605 9.9077 22.8605 9.26953H19.3887V22.8646C19.388 23.4845 19.1923 24.0884 18.8292 24.5907C18.4662 25.0931 17.9542 25.4685 17.3659 25.6636C16.7776 25.8588 16.1428 25.8639 15.5515 25.6781C14.9601 25.4923 14.4423 25.1252 14.0713 24.6286C13.7003 24.1321 13.4949 23.5314 13.4844 22.9116C13.4739 22.2919 13.6587 21.6846 14.0126 21.1757C14.3665 20.6669 14.8716 20.2823 15.4563 20.0766C16.041 19.8708 16.6756 19.8543 17.2702 20.0293V16.6545C16.0065 16.4841 14.721 16.7032 13.5852 17.2827C12.4494 17.8622 11.5175 18.7743 10.9138 19.8974C10.31 21.0205 10.0633 22.301 10.2065 23.568C10.3497 24.835 10.8761 26.0281 11.7152 26.9881C12.5544 27.9481 13.6665 28.6292 14.9029 28.9406C16.1394 29.2519 17.4414 29.1786 18.6351 28.7304C19.8288 28.2823 20.8574 27.4806 21.5835 26.4325C22.3096 25.3844 22.6987 24.1397 22.6988 22.8646L22.7995 15.9927C24.226 17.0399 25.95 17.6034 27.7196 17.6007L27.72 14.129Z" fill="#B5053C"/>
<path d="M26.8031 13.1838C25.5143 13.1837 24.2782 12.6717 23.3669 11.7604C22.4556 10.8491 21.9437 9.61303 21.9437 8.32422H18.4719V21.9193C18.4712 22.5391 18.2755 23.143 17.9125 23.6454C17.5494 24.1478 17.0375 24.5232 16.4492 24.7184C15.8609 24.9135 15.2261 24.9186 14.6347 24.7328C14.0434 24.5471 13.5255 24.1799 13.1545 23.6834C12.7835 23.1869 12.5781 22.5862 12.5676 21.9664C12.5571 21.3467 12.7419 20.7393 13.0958 20.2305C13.4497 19.7216 13.9548 19.3371 14.5395 19.1313C15.1242 18.9255 15.7588 18.909 16.3534 19.0841V15.7092C15.0897 15.5388 13.8042 15.7579 12.6684 16.3374C11.5326 16.9168 10.6007 17.829 9.99695 18.9521C9.39323 20.0752 9.1465 21.3557 9.28972 22.6227C9.43293 23.8897 9.95926 25.0828 10.7984 26.0428C11.6376 27.0028 12.7497 27.6839 13.9861 27.9952C15.2226 28.3065 16.5246 28.2332 17.7183 27.7851C18.9121 27.3369 19.9406 26.5353 20.6667 25.4872C21.3928 24.4391 21.7819 23.1944 21.782 21.9193L21.8833 15.0474C23.3098 16.0946 25.0338 16.6581 26.8034 16.6554L26.8031 13.1838Z" fill="#00B2C9"/>
<path d="M26.8022 14.0421C25.6009 13.811 24.5311 13.1353 23.8061 12.15C22.8898 11.4329 22.2614 10.4108 22.0349 9.26953H19.3888V22.8646C19.3887 23.5099 19.1775 24.1373 18.7874 24.6513C18.3974 25.1653 17.8498 25.5375 17.2284 25.7111C16.607 25.8847 15.9458 25.8503 15.3458 25.6129C14.7458 25.3756 14.24 24.9485 13.9055 24.3967C13.3106 24.0095 12.875 23.4213 12.6781 22.7394C12.4812 22.0574 12.5362 21.3275 12.8331 20.6828C13.13 20.0381 13.649 19.5218 14.2952 19.2282C14.9413 18.9346 15.6716 18.8833 16.3525 19.0836V16.6001C15.1846 16.6151 14.0442 16.9563 13.0599 17.5851C12.0756 18.214 11.2868 19.1054 10.7823 20.1588C10.2778 21.2123 10.0778 22.3857 10.2049 23.5468C10.332 24.7078 10.7811 25.8102 11.5016 26.7296C12.4162 27.4928 13.5294 27.9794 14.7107 28.1324C15.8921 28.2855 17.0925 28.0986 18.1714 27.5936C19.2503 27.0887 20.1629 26.2867 20.8022 25.2816C21.4416 24.2765 21.7811 23.11 21.7811 21.9188L21.8824 15.0469C23.3089 16.0941 25.0329 16.6576 26.8025 16.6549L26.8022 14.0421Z" fill="#DDE3E4"/>
</g>
<defs>
<clipPath id="clip0_2073_7624">
<rect width="37" height="37" fill="white"/>
</clipPath>
</defs>
</svg>
