<svg width="37" height="37" viewBox="0 0 37 37" fill="none" xmlns="http://www.w3.org/2000/svg">
<rect width="37" height="37" rx="18.5" fill="#0077FF"/>
<path d="M19.4088 24.9754C12.456 24.9754 8.49025 20.1143 8.32501 12.0254H11.8078C11.9222 17.9624 14.4898 20.4772 16.5235 20.9958V12.0254H19.8029V17.1458C21.8112 16.9254 23.9212 14.5921 24.633 12.0254H27.9124C27.6441 13.3565 27.1095 14.6169 26.3418 15.7277C25.5741 16.8385 24.59 17.7758 23.4509 18.4809C24.7224 19.1253 25.8454 20.0373 26.7459 21.1568C27.6464 22.2762 28.3039 23.5777 28.675 24.9754H25.0651C24.732 23.7614 24.055 22.6747 23.1189 21.8515C22.1828 21.0283 21.0293 20.5051 19.8029 20.3476V24.9754H19.4088V24.9754Z" fill="white"/>
</svg>
