<svg width="61" height="76" viewBox="0 0 61 76" fill="none" xmlns="http://www.w3.org/2000/svg">
<g clip-path="url(#clip0_2079_7702)">
<path d="M-1.77366e-06 15.5833C3.08831 9.97748 17.349 3.48245 27.1208 3.01756C37.6819 2.48833 43.5644 4.348 55.2025 12.0037C55.1266 11.0674 54.9923 10.3114 54.9762 9.61314C54.9281 8.81889 54.8843 7.9786 54.9995 7.19988C55.0214 6.9697 55.4284 6.59032 55.6779 6.56758C55.9273 6.54484 56.3052 6.90591 56.365 7.14385C56.8903 9.42344 57.3339 11.6953 57.814 14.017C57.9483 14.773 57.6507 15.3021 56.9343 15.4663C54.2091 15.9505 51.4795 16.4808 48.7178 16.9151C48.0919 16.995 47.3741 16.741 46.5571 16.6633C47.3988 14.7459 48.8475 15.1158 49.9578 14.7104C51.1132 14.2628 52.3285 14.0531 53.8107 13.6365C50.6652 10.7363 47.3869 8.79899 43.8475 7.4407C30.8892 2.40021 18.3367 4.36599 6.22506 11.6691C4.64946 12.6342 3.17892 13.7951 1.6398 14.8101C1.16858 14.9976 0.738197 15.1889 -1.77366e-06 15.5833Z" fill="#C3D1FF"/>
<path d="M2 59.4377C5.08831 65.0436 19.349 71.5386 29.1208 72.0035C39.6819 72.5327 45.5644 70.673 57.2025 63.0174C57.1266 63.9536 56.9923 64.7096 56.9762 65.4079C56.9281 66.2021 56.8843 67.0424 56.9995 67.8211C57.0214 68.0513 57.4284 68.4307 57.6779 68.4534C57.9273 68.4762 58.3052 68.1151 58.365 67.8772C58.8903 65.5976 59.3339 63.3258 59.814 61.004C59.9483 60.248 59.6507 59.7189 58.9343 59.5547C56.2091 59.0705 53.4795 58.5402 50.7178 58.1059C50.0919 58.026 49.3741 58.2801 48.5571 58.3577C49.3988 60.2751 50.8475 59.9052 51.9578 60.3106C53.1132 60.7583 54.3285 60.9679 55.8107 61.3845C52.6652 64.2847 49.3869 66.222 45.8475 67.5803C32.8892 72.6208 20.3367 70.655 8.22506 63.3519C6.64946 62.3868 5.17892 61.2259 3.6398 60.2109C3.16858 60.0234 2.7382 59.8321 2 59.4377Z" fill="#C3D1FF"/>
</g>
<defs>
<clipPath id="clip0_2079_7702">
<rect width="60.6996" height="75.021" fill="white"/>
</clipPath>
</defs>
</svg>
