<svg width="213" height="192" viewBox="0 0 213 192" fill="none" xmlns="http://www.w3.org/2000/svg">
<circle cx="123" cy="123" r="123" fill="#1D5BFF"/>
<circle opacity="0.3" cx="123" cy="123" r="104.592" fill="#E0E0E0"/>
<circle opacity="0.3" cx="123.837" cy="123.837" r="85.3469" fill="#E8E8E8"/>
<circle opacity="0.3" cx="123.837" cy="123.837" r="68.6123" fill="#F0F0F0"/>
<circle opacity="0.3" cx="123.837" cy="123.837" r="51.8776" fill="#E8E8E8"/>
<circle opacity="0.3" cx="123.836" cy="123.837" r="36.8163" fill="white"/>
<rect x="142.399" y="141.592" width="36" height="36" rx="18" transform="rotate(178.715 142.399 141.592)" fill="white"/>
<path d="M117.969 125.816C118.159 125.811 118.351 125.877 118.504 126.024L124.167 131.438L129.581 125.775C129.864 125.479 130.344 125.468 130.641 125.752C130.937 126.035 130.948 126.515 130.665 126.811L124.732 133.016C124.449 133.312 123.969 133.323 123.672 133.04L117.468 127.107C117.171 126.824 117.161 126.344 117.444 126.048C117.581 125.894 117.779 125.82 117.969 125.816Z" fill="#2D68FF"/>
<path d="M123.792 114.752C124.202 114.743 124.55 115.075 124.559 115.485L124.936 132.311C124.946 132.721 124.613 133.069 124.203 133.078C123.794 133.087 123.446 132.755 123.437 132.345L123.059 115.519C123.05 115.109 123.383 114.762 123.792 114.752Z" fill="#2D68FF"/>
</svg>
