<svg width="70" height="70" viewBox="0 0 70 70" fill="none" xmlns="http://www.w3.org/2000/svg">
<path d="M16.3771 40.4695C16.3771 41.1483 15.8101 41.6986 15.1106 41.6986C14.4112 41.6986 13.8442 41.1483 13.8442 40.4695C13.8442 39.7908 14.4112 39.2404 15.1106 39.2404C15.8101 39.2404 16.3771 39.7907 16.3771 40.4695ZM28.541 47.9386C27.8416 47.9386 27.2745 48.4889 27.2745 49.1677C27.2745 49.8465 27.8415 50.3968 28.541 50.3968C29.2405 50.3968 29.8075 49.8465 29.8075 49.1677C29.8075 48.4861 29.2405 47.9386 28.541 47.9386ZM43.6552 44.8185C43.6552 46.4777 41.8419 47.6061 40.089 48.6984C38.8801 49.4526 37.6281 50.2319 37.2855 51.0308C36.92 51.8855 37.2395 53.3436 37.5503 54.7514C37.9734 56.6816 38.4138 58.676 37.2596 59.7961C36.1083 60.9134 34.0531 60.4888 32.0643 60.0782C30.6107 59.7766 29.1111 59.4665 28.2275 59.8212C27.4043 60.1536 26.6013 61.366 25.8241 62.5419C24.6987 64.243 23.5359 66 21.8261 66C20.1164 66 18.9536 64.2402 17.8282 62.5391C17.051 61.366 16.248 60.1509 15.4248 59.8185C14.5412 59.4665 13.0415 59.7738 11.5909 60.0754C9.60202 60.4861 7.54689 60.9107 6.39269 59.7933C5.24137 58.676 5.67887 56.6788 6.10198 54.7486C6.41284 53.338 6.73233 51.8827 6.36679 51.028C6.02427 50.2291 4.77506 49.4498 3.56331 48.6956C1.8133 47.6062 0 46.4777 0 44.8185C0 43.1593 1.8133 42.0308 3.56619 40.9386C4.77506 40.1844 6.0271 39.4051 6.36966 38.6062C6.73521 37.7514 6.41572 36.2933 6.10486 34.8855C5.68174 32.9554 5.24135 30.9609 6.39556 29.8408C7.54689 28.7235 9.6049 29.1481 11.5909 29.5587C13.0445 29.8604 14.544 30.1704 15.4277 29.8157C16.2509 29.4833 17.0539 28.271 17.831 27.095C18.9564 25.3939 20.1193 23.6369 21.829 23.6369C23.5387 23.6369 24.7015 25.3967 25.827 27.0978C26.6042 28.271 27.4072 29.486 28.2304 29.8185C29.114 30.1732 30.6136 29.8632 32.0671 29.5615C34.0531 29.1509 36.1112 28.7235 37.2625 29.8436C38.4138 30.9609 37.9763 32.9582 37.5532 34.8883C37.2423 36.299 36.9228 37.7542 37.2884 38.609C37.6309 39.4079 38.8801 40.1872 40.0919 40.9441C41.8447 42.0307 43.6552 43.1592 43.6552 44.8185ZM19.1005 40.4693C19.1005 38.3324 17.3131 36.5978 15.1112 36.5978C12.9092 36.5978 11.1218 38.3324 11.1218 40.4693C11.1218 42.6062 12.9092 44.3409 15.1112 44.3409C17.3131 44.3436 19.1005 42.609 19.1005 40.4693ZM27.8248 38.6788C28.4695 37.7682 27.7989 36.528 26.6591 36.528C26.1928 36.528 25.7581 36.7515 25.4934 37.123L15.7044 50.947C15.0597 51.8576 15.7303 53.0978 16.8701 53.0978C17.3364 53.0978 17.771 52.8743 18.0358 52.5028L27.8248 38.6788ZM32.5308 49.1677C32.5308 47.0308 30.7433 45.2961 28.5414 45.2961C26.3395 45.2961 24.5521 47.0308 24.5521 49.1677C24.5521 51.3046 26.3395 53.0392 28.5414 53.0392C30.7433 53.0392 32.5308 51.3046 32.5308 49.1677ZM69.6177 16.0557C69.2378 15.4161 68.6247 14.9608 67.8907 14.768L26.8432 4.09466C26.1093 3.90472 25.3407 4.00248 24.6845 4.3712L13.0593 10.8852H28.0953C29.2438 10.8852 30.3231 11.3181 31.1348 12.1058L61.1812 41.2677C61.4143 41.4939 61.6043 41.7481 61.7684 42.0107C61.8576 42.1559 62.0476 42.2202 62.2088 42.1504C62.9514 41.818 63.5443 41.1811 63.7717 40.3571L69.9025 18.153C70.0982 17.4379 69.9977 16.6926 69.6177 16.0557ZM60.1537 46.1672L43.4022 62.4239C42.8467 62.963 42.1185 63.2312 41.3903 63.2312C40.662 63.2312 39.9338 62.9602 39.3783 62.4239L38.2702 61.3485C38.1119 61.1949 38.1234 60.949 38.2845 60.7954L38.2874 60.7926C39.9971 59.1334 39.4531 56.6529 38.9725 54.4602C38.771 53.5496 38.4342 52.0245 38.6271 51.5719C38.8055 51.1725 40.1526 50.3344 40.875 49.8847C42.8582 48.6473 45.1062 47.2478 45.1062 44.8205C45.1062 42.3931 42.8582 40.9909 40.8722 39.7535C40.1497 39.3038 38.8055 38.463 38.6271 38.0663C38.4342 37.6138 38.771 36.0887 38.9725 35.1752C39.4531 32.9853 39.9971 30.5049 38.2874 28.8456C37.516 28.097 36.4424 27.7171 35.1012 27.7171C34.0103 27.7171 32.8676 27.9546 31.7624 28.1836C30.8528 28.3735 29.9087 28.5663 29.2381 28.5663C28.9272 28.5663 28.8063 28.5244 28.7862 28.516C28.3746 28.3428 27.5111 27.0356 27.0477 26.3344C25.7726 24.4099 24.3305 22.2283 21.8293 22.2283C19.3281 22.2283 17.886 24.4099 16.611 26.3344C16.1476 27.0356 15.2841 28.34 14.8725 28.516C14.8523 28.5244 14.7286 28.5663 14.4206 28.5663C13.7528 28.5663 12.8145 28.3708 11.8934 28.1808C10.9148 27.9797 9.90452 27.7702 8.92879 27.7255C8.72155 27.7171 8.55748 27.5495 8.55461 27.3456L8.49992 15.3236C8.49992 13.6533 9.90162 12.2929 11.6229 12.2929H28.0951C28.8549 12.2929 29.5716 12.5806 30.107 13.1029L60.1564 42.2648C61.2616 43.3374 61.2618 45.0918 60.1537 46.1672ZM16.7719 17.7004C16.3977 17.3373 15.9084 17.1585 15.4191 17.1585C14.9298 17.1585 14.4405 17.3401 14.0663 17.7004C13.3208 18.4239 13.3208 19.6027 14.0663 20.3261C14.7888 21.0272 16.0495 21.0272 16.7719 20.3261C17.5174 19.5999 17.5173 18.4239 16.7719 17.7004Z" fill="white"/>
</svg>
