<svg width="1920" height="866" viewBox="0 0 1920 866" fill="none" xmlns="http://www.w3.org/2000/svg">
<g clip-path="url(#clip0_2063_7009)">
<path d="M1141.97 41.8825L1132.64 65.3969H1129.34C1129.34 65.3969 1122.24 45.8647 1096.41 44.7707C1065.3 43.4724 1031.63 78.8312 1030.55 131.228C1029.62 178.082 1068.55 176.798 1070.65 176.798C1072.73 176.798 1087.46 179.366 1114.43 160.753L1192.75 32.5465C1192.75 32.5465 1194.63 33.4796 1201.27 33.4796C1207.9 33.4796 1209.79 32.8528 1209.79 32.8528L1242 187.228C1242 187.228 1229.68 186.586 1221.79 186.586C1213.89 186.586 1203.15 187.856 1203.15 187.856L1196.85 141.76H1145.06L1120.24 187.053C1120.24 187.053 1114.43 186.397 1108.81 186.397C1104 186.397 1098.36 187.053 1098.36 187.053L1099.53 185.171C1091.56 187.812 1078.84 190.802 1062.16 190.802C1032.35 190.802 991.561 175.048 993.152 130.718C994.377 95.7084 1010.84 71.4206 1020.69 62.0849C1027.68 55.4769 1050.33 31 1097.45 31C1127.77 31 1141.97 41.8825 1141.97 41.8825ZM1153.74 127.713H1194.18L1184.62 76.1031L1153.74 127.713ZM-19.6502 125.904C-19.6502 114.249 -10.2087 104.811 1.46543 104.811C13.1104 104.811 22.5517 114.249 22.5517 125.904C22.5517 137.574 13.1104 147.011 1.46543 147.011C-10.2087 147.011 -19.6502 137.574 -19.6502 125.904ZM24.478 132.322C24.478 132.322 32.5478 127.129 32.5478 112.688C32.5478 98.2467 22.0993 76.4102 17.6486 67.7892C12.76 58.2492 -0.402401 37.3743 -3.84626 32.721C-3.84626 32.721 -0.0813059 32.5901 0.910993 32.5901C1.94707 32.5901 13.227 31.6568 29.7897 36.9082C40.3401 40.2195 44.8348 43.4281 44.8348 43.4281C44.8348 43.4281 52.4813 62.3188 52.4813 82.6532C52.4813 103.031 47.4177 114.57 43.2443 122.053C39.0416 129.551 30.4902 135.327 27.9219 136.348L24.478 132.322ZM20.8153 111.9C20.8153 111.9 21.9098 106.401 16.7002 99.1367C7.27339 86.0229 -25.2829 77.8537 -34.7681 75.9428C-45.2894 73.8423 -68.4771 71.5669 -74.2412 71.3772C-74.2412 71.3772 -72.4901 68.9414 -71.848 68.1391C-71.2205 67.3514 -64.9165 57.9573 -50.499 48.2714C-41.3202 42.1011 -35.3956 40.1027 -35.3956 40.1027C-35.3956 40.1027 -16.571 45.4268 -0.665034 58.1176C15.2409 70.8084 21.1946 81.8802 24.4488 89.8301C27.6738 97.7801 27.4549 107.845 26.6523 111.623L20.8153 111.9ZM2.57453 102.039C2.57453 102.039 -2.83931 95.3003 -16.9212 98.5095C-31.0323 101.733 -45.5082 110.996 -60.203 123.453C-68.3749 130.397 -84.4998 147.435 -88.2356 151.811C-88.2356 151.811 -89.2133 148.179 -89.4322 147.172C-89.6802 146.209 -93.0802 135.415 -91.6501 118.085C-90.76 107.072 -88.6441 101.996 -88.6441 101.996C-88.6441 101.996 -73.4093 90.4279 -53.5633 85.8914C-33.732 81.3548 -20.7447 83.0033 -12.5144 85.4248C-3.36485 88.0942 4.41323 94.9648 5.97464 97.2404L2.57453 102.039ZM-16.1479 109.406C-16.1479 109.406 -25.4581 110.5 -31.6307 123.789C-35.4832 132.104 -38.3724 141.76 -38.3724 171.241C-38.3724 181.962 -35.2497 205.725 -34.1406 211.384C-34.1406 211.384 -37.8033 209.94 -38.7227 209.503C-39.6274 209.036 -49.9008 205.141 -62.5818 193.223C-70.6223 185.667 -73.3071 180.927 -73.3071 180.927C-73.3071 180.927 -72.1106 161.059 -63.282 142.737C-54.4535 124.416 -45.4936 115.853 -38.4016 110.996C-29.3979 104.84 -20.0149 104.154 -17.2423 104.373L-16.1479 109.406ZM10.8047 147.901C10.8047 147.901 19.896 150.979 31.1907 141.979C42.4854 132.964 53.0359 111.171 57.0197 102.346C61.4121 92.5871 69.4234 69.4955 70.8827 63.894C70.8827 63.894 73.1445 66.5492 73.772 67.3369C74.3995 68.11 82.0021 76.3664 88.2186 92.5581C92.2023 102.871 92.6547 108.968 92.6547 108.968C92.6547 108.968 82.9944 126.137 67.0884 138.828C51.1679 151.504 38.9977 154.787 30.5193 156.158C22.0264 157.544 12.1909 154.466 9.78312 153.08L10.8047 147.901ZM99.2361 261.622C99.2361 249.953 108.678 240.515 120.352 240.515C131.997 240.515 141.453 249.953 141.453 261.622C141.453 273.277 131.997 282.716 120.352 282.716C108.678 282.716 99.2361 273.277 99.2361 261.622ZM143.364 268.012C143.364 268.012 151.419 262.848 151.419 248.392C151.419 233.936 140.986 212.114 136.535 203.493C131.646 193.968 118.484 173.079 115.04 168.426C115.04 168.426 118.805 168.28 119.797 168.28C120.833 168.28 132.113 167.375 148.676 172.597C159.226 175.938 163.721 179.132 163.721 179.132C163.721 179.132 171.368 198.023 171.368 218.372C171.368 238.735 166.304 250.274 162.13 257.757C157.928 265.269 149.376 271.016 146.793 272.052L143.364 268.012ZM121.461 237.758C121.461 237.758 116.455 230.464 102.388 233.703C88.2916 236.912 73.378 246.685 58.6832 259.172C50.5114 266.101 34.7803 282.38 31.0154 286.756C31.0154 286.756 30.0523 283.124 29.8188 282.132C29.5999 281.155 26.6816 270.346 28.1116 253.045C29.0018 242.018 31.0154 236.941 31.0154 236.941C31.0154 236.941 45.4769 226.118 65.3229 221.61C85.1543 217.059 98.1416 218.693 106.372 221.114C115.521 223.798 123.299 230.683 124.861 232.959L121.461 237.758ZM102.738 245.11C102.738 245.11 93.4282 246.218 87.2555 259.478C83.4031 267.807 80.5136 277.479 80.5136 306.945C80.5136 317.652 83.6366 341.429 84.7456 347.088C84.7456 347.088 81.0829 345.644 80.1636 345.192C79.2589 344.74 68.9709 340.845 56.3045 328.928C48.264 321.371 45.5644 316.616 45.5644 316.616C45.5644 316.616 46.7756 296.763 55.5895 278.442C64.4327 260.106 73.3924 251.543 80.4845 246.685C89.4881 240.544 98.886 239.858 101.644 240.063L102.738 245.11ZM96.5948 264.7C96.5948 264.7 90.7431 273.219 98.0686 287.004C107.51 304.815 124.058 315.828 131.807 321.663C140.344 328.125 159.693 339.663 164.801 342.347C164.801 342.347 160.978 344.594 160.073 345.047C159.154 345.484 150.646 350.604 133.427 353.084C122.482 354.674 115.842 353.711 115.842 353.711C115.842 353.711 100.564 339.985 92.0128 321.503C84.1182 304.465 83.622 296.632 83.622 288.04C83.622 271.95 89.6487 264.671 91.5311 262.629L96.5948 264.7ZM108.254 281.738C108.254 281.738 111.436 290.272 123.285 293.262C137.294 296.821 156.337 293.787 165.749 291.526C176.956 288.828 188.485 286.012 211.862 276.37C211.862 276.37 210.972 281.228 210.768 282.22C210.534 283.197 208.812 293.583 200.013 308.579C194.439 318.104 190.542 321.663 190.542 321.663C190.542 321.663 169.806 324.945 149.96 320.408C130.099 315.886 120.264 308.432 114.121 302.423C107.175 295.64 104.11 286.989 103.687 284.262L108.254 281.738ZM129.691 283.605C129.691 283.605 138.782 286.683 150.077 277.668C161.372 268.653 171.922 246.875 175.906 238.05C180.298 228.291 188.31 205.2 189.783 199.613C189.783 199.613 192.031 202.253 192.658 203.026C193.286 203.843 200.888 212.056 207.12 228.277C211.089 238.59 211.541 244.687 211.541 244.687C211.541 244.687 201.866 261.841 185.975 274.532C170.054 287.223 157.884 290.476 149.391 291.861C140.913 293.262 131.077 290.184 128.684 288.784L129.691 283.605ZM119.155 127.406H159.46L149.799 76.2785L119.155 127.406ZM139.702 247.619C139.702 247.619 140.796 242.12 135.586 234.855C126.159 221.727 93.6034 213.572 84.1181 211.647C73.8887 209.59 51.6787 207.388 45.1558 207.096C43.9884 207.767 41.8433 209.007 41.1866 209.342C40.2673 209.765 31.7598 214.915 14.5551 217.394C3.6106 218.941 -3.04377 218.022 -3.04377 218.022C-3.04377 218.022 -18.3222 204.266 -26.8735 185.813C-34.7681 168.775 -35.2497 160.942 -35.2497 152.35C-35.2497 136.232 -29.223 128.953 -27.3551 126.925L-22.2915 128.967C-22.2915 128.967 -28.1429 137.501 -20.8174 151.3C-11.3906 169.096 5.17201 180.124 12.9207 185.959C21.1072 192.159 39.2166 203.012 45.2142 206.279C45.7979 205.477 46.6296 204.339 47.0236 203.858C47.6073 203.114 52.8168 195.383 64.4763 186.718C56.7131 187.301 43.7111 187.593 31.0593 184.705C11.2133 180.183 1.37785 172.714 -4.76565 166.704C-11.7117 159.921 -14.7761 151.285 -15.1993 148.572L-10.6318 146.02C-10.6318 146.02 -7.45061 154.553 4.39861 157.544C18.4075 161.103 37.4362 158.069 46.863 155.822C58.0702 153.123 69.2921 150.162 92.6841 140.535L158.044 32.5465C158.044 32.5465 159.927 33.4796 166.552 33.4796C173.206 33.4796 175.089 32.8528 175.089 32.8528L207.295 187.228C207.295 187.228 194.993 186.586 187.098 186.586C179.204 186.586 168.449 187.856 168.449 187.856L162.145 141.76H110.341L90.247 178.155C97.1785 180.839 108.254 185.872 118.221 193.807C134.127 206.512 140.081 217.584 143.335 225.534C146.56 233.484 146.341 243.549 145.539 247.313L139.702 247.619ZM243.776 34.5159H328.953C328.953 34.5159 325.144 43.7788 325.144 50.2409C325.144 51.9038 325.305 54.0479 325.305 54.0479C325.305 54.0479 307.896 51.0573 281.075 51.0573H274.45L265.344 98.9177H290.181C290.181 98.9177 302.278 98.5822 315.864 97.0943C315.864 97.0943 312.376 106.036 312.376 111.521V116.116C312.376 116.116 299.111 114.336 290.327 114.336H262.178L251.247 170.468C251.247 170.468 267.139 169.811 280.053 169.315C292.997 168.804 303.27 166.981 303.27 166.981C303.27 166.981 299.607 174.946 299.607 182.881C299.607 184.719 299.432 186.674 299.432 186.674H214.474L243.776 34.5159ZM565.938 34.5159H651.115C651.115 34.5159 647.277 43.7788 647.277 50.2409C647.277 51.9038 647.438 54.0479 647.438 54.0479C647.438 54.0479 630.029 51.0573 603.208 51.0573H596.582L587.491 98.9177H612.299C612.299 98.9177 624.41 98.5822 638.011 97.0943C638.011 97.0943 634.509 106.036 634.509 111.521V116.116C634.509 116.116 621.244 114.336 612.488 114.336H584.31L573.38 170.468C573.38 170.468 589.272 169.811 602.201 169.315C615.144 168.804 625.403 166.981 625.403 166.981C625.403 166.981 621.74 174.946 621.74 182.881C621.74 184.719 621.594 186.674 621.594 186.674H536.607L565.938 34.5159ZM373.009 46.9003L361.422 106.707H366.573C396.225 106.707 401.844 82.1867 403.011 64.828C404.295 45.5292 382.625 46.9003 382.625 46.9003H373.009ZM341.357 34.6619H400.341C400.341 34.6619 438.31 32.3422 438.31 62.3333C438.31 92.2952 414.102 107.859 394.883 111.346C394.883 111.346 402.85 131.564 407.491 141.644C412.117 151.767 428.198 187.841 428.198 187.841C428.198 187.841 418.917 186.863 407.491 186.863C396.065 186.863 387.601 188.016 387.601 188.016L360.911 116.306H359.452L345.355 187.841C345.355 187.841 336.104 186.863 327.975 186.863C319.818 186.863 311.72 188.016 311.72 188.016L341.357 34.6619ZM442.615 34.8515H557.912C557.912 34.8515 554.453 42.6256 554.453 45.1054C554.453 47.5998 553.943 54.0185 553.943 54.0185C553.943 54.0185 526.771 49.8907 514.674 50.7368L488.334 187.695C488.334 187.695 479.914 186.542 471.275 186.542C462.666 186.542 454.377 187.695 454.377 187.695L481.403 50.897C481.403 50.897 461.148 50.8676 439.274 53.8725C439.274 53.8725 440.616 51.3931 442.294 44.2454C443.593 38.6439 442.615 34.8515 442.615 34.8515ZM785.717 41.8825L776.378 65.3969H773.08C773.08 65.3969 766.003 45.8647 740.159 44.7707C709.048 43.4724 674.288 78.8312 673.237 131.228C672.289 178.082 711.135 176.536 713.221 176.536C715.323 176.536 731.346 179.395 758.517 160.49L761.158 161.803L752.869 181.233C752.869 181.233 735.708 190.802 705.896 190.802C676.112 190.802 634.377 175.048 635.953 130.718C637.179 95.7084 654.573 71.4206 664.423 62.0849C671.428 55.4769 694.061 31 741.21 31C771.504 31 785.717 41.8825 785.717 41.8825ZM771.782 187.928L801.58 34.8364H824.14C824.14 34.8364 832.049 46.6667 838.339 55.0397C844.628 63.4127 872.996 101.018 875.36 104.592C877.709 108.151 899.219 138.726 899.219 138.726L919.459 34.8364C919.459 34.8364 924.07 35.3475 928.258 35.3475C932.432 35.3475 937.554 34.8364 937.554 34.8364L908.033 187.928C908.033 187.928 901.335 187.68 898.708 187.68C896.082 187.68 888.596 187.928 888.596 187.928C888.596 187.928 875.988 168.863 871.537 162.605C867.101 156.318 834.778 111.565 832.925 109.216C831.101 106.853 811.153 79.6777 811.153 79.6777L790.154 187.68C790.154 187.68 786.33 186.615 781.88 186.615C777.429 186.615 771.782 187.928 771.782 187.928ZM933.22 188.206L963.004 34.8364C963.004 34.8364 973.291 35.8719 979.303 35.8719C985.315 35.8719 996.888 34.6468 996.888 34.6468L967.367 188.206C967.367 188.206 954.905 186.615 950.031 186.615C945.142 186.615 933.22 188.206 933.22 188.206Z" fill="white" fill-opacity="0.05"/>
<path d="M1739.62 440.367C1779.46 440.367 1811.72 472.648 1811.72 512.562C1811.72 552.377 1779.46 584.657 1739.62 584.657C1699.74 584.657 1667.48 552.377 1667.48 512.562C1667.48 472.648 1699.74 440.367 1739.62 440.367ZM1717.68 591.243C1717.68 591.243 1735.43 618.834 1784.79 618.834C1834.15 618.834 1908.79 583.11 1938.26 567.893C1970.86 551.179 2042.21 506.176 2058.12 494.401C2058.12 494.401 2058.57 507.274 2058.57 510.666C2058.57 514.209 2061.76 552.775 2043.81 609.404C2032.49 645.476 2021.52 660.844 2021.52 660.844C2021.52 660.844 1956.95 686.988 1887.45 686.988C1817.8 686.988 1778.36 669.675 1752.79 655.406C1727.16 641.036 1707.41 611.799 1703.92 603.018L1717.68 591.243ZM1787.49 578.72C1787.49 578.72 1806.28 582.462 1831.11 564.651C1875.93 532.42 1903.86 421.109 1910.39 388.678C1917.57 352.705 1925.34 273.426 1925.99 253.718C1925.99 253.718 1934.32 259.705 1937.06 261.901C1939.75 264.046 1971.86 285.599 2004.97 334.894C2026.06 366.276 2032.89 386.533 2032.89 386.533C2032.89 386.533 2014.69 450.895 1971.31 505.278C1927.94 559.661 1890.09 580.017 1862.92 591.143C1835.75 602.169 1801.35 601.421 1788.43 598.677L1787.49 578.72ZM1821.19 516.354C1821.19 516.354 1844.22 497.844 1833.26 449.697C1822.24 401.451 1790.58 351.957 1748 301.715C1724.27 273.775 1666.03 218.643 1651.07 205.871C1651.07 205.871 1663.49 202.528 1666.93 201.78C1670.22 200.931 1707.12 189.307 1766.35 194.196C1803.99 197.24 1821.34 204.474 1821.34 204.474C1821.34 204.474 1860.88 256.562 1876.38 324.417C1891.89 392.221 1886.26 436.625 1877.98 464.764C1868.85 496.047 1845.37 522.641 1837.59 527.979L1821.19 516.354ZM1796.01 452.341C1796.01 452.341 1792.27 420.51 1746.85 399.405C1718.43 386.233 1685.43 376.355 1584.66 376.355C1548.02 376.355 1466.8 387.032 1447.45 390.824C1447.45 390.824 1452.39 378.301 1453.89 375.157C1455.48 372.064 1468.79 336.939 1509.53 293.582C1535.35 266.091 1551.56 256.912 1551.56 256.912C1551.56 256.912 1619.46 261.003 1682.09 291.188C1744.71 321.373 1773.98 352.007 1790.58 376.255C1811.62 407.039 1813.96 439.12 1813.21 448.6L1796.01 452.341ZM1664.44 544.494C1664.44 544.494 1653.92 575.577 1684.68 614.194C1715.49 652.811 1789.98 688.884 1820.14 702.504C1853.5 717.522 1932.42 744.913 1951.57 749.902C1951.57 749.902 1942.49 757.636 1939.8 759.781C1937.16 761.927 1908.94 787.92 1853.6 809.175C1818.35 822.795 1797.51 824.342 1797.51 824.342C1797.51 824.342 1738.83 791.313 1695.45 736.93C1652.12 682.497 1640.9 640.886 1636.22 611.899C1631.48 582.861 1642 549.233 1646.74 541.001L1664.44 544.494ZM1275.74 846.844C1315.63 846.844 1347.89 879.125 1347.89 919.039C1347.89 958.854 1315.63 991.184 1275.74 991.184C1235.91 991.184 1203.65 958.854 1203.65 919.039C1203.65 879.125 1235.91 846.844 1275.74 846.844ZM1253.9 997.72C1253.9 997.72 1271.55 1025.26 1320.96 1025.26C1370.37 1025.26 1444.96 989.587 1474.43 974.37C1506.98 957.656 1578.38 912.653 1594.29 900.878C1594.29 900.878 1594.78 913.75 1594.78 917.143C1594.78 920.685 1597.88 959.252 1580.03 1015.88C1568.61 1051.95 1557.69 1067.32 1557.69 1067.32C1557.69 1067.32 1493.12 1093.46 1423.57 1093.46C1353.97 1093.46 1314.53 1076.15 1288.95 1061.88C1263.28 1047.51 1243.63 1018.28 1240.09 1009.44L1253.9 997.72ZM1357.31 922.831C1357.31 922.831 1382.24 905.718 1371.17 857.621C1360.2 809.424 1326.8 758.434 1284.12 708.192C1260.44 680.252 1204.79 626.467 1189.84 613.595C1189.84 613.595 1202.25 610.302 1205.64 609.504C1208.98 608.755 1245.93 598.777 1305.06 603.667C1342.75 606.71 1360.1 613.595 1360.1 613.595C1360.1 613.595 1397.1 663.039 1412.5 730.893C1428.06 798.698 1422.47 843.102 1414.2 871.241C1405.02 902.524 1381.49 929.117 1373.71 934.455L1357.31 922.831ZM1332.18 858.818C1332.18 858.818 1328.39 826.987 1283.07 805.882C1254.6 792.71 1221.55 782.831 1120.83 782.831C1084.24 782.831 1002.97 793.509 983.623 797.3C983.623 797.3 988.56 784.778 990.105 781.634C991.651 778.541 1004.96 743.366 1045.7 700.059C1071.52 672.568 1087.78 663.338 1087.78 663.338C1087.78 663.338 1155.63 667.479 1218.26 697.615C1280.93 727.85 1310.19 758.483 1326.8 782.731C1347.79 813.515 1350.13 845.647 1349.43 855.077L1332.18 858.818ZM1265.22 837.813C1265.22 837.813 1236.1 817.806 1188.99 842.852C1128.11 875.133 1090.47 931.712 1070.53 958.205C1048.44 987.392 1009 1053.55 999.828 1071.01C999.828 1071.01 992.148 1057.94 990.603 1054.85C989.107 1051.7 971.607 1022.62 963.131 963.743C957.697 926.323 960.987 903.622 960.987 903.622C960.987 903.622 1007.9 851.384 1071.07 822.147C1129.31 795.155 1156.08 793.459 1185.45 793.459C1240.44 793.459 1265.32 814.064 1272.3 820.5L1265.22 837.813ZM1206.99 877.677C1206.99 877.677 1177.82 888.555 1167.6 929.068C1155.43 976.965 1165.8 1042.07 1173.53 1074.26C1182.76 1112.57 1192.38 1151.99 1225.34 1231.92C1225.34 1231.92 1208.73 1228.87 1205.34 1228.17C1202 1227.38 1166.5 1221.49 1115.25 1191.4C1082.69 1172.34 1070.53 1159.02 1070.53 1159.02C1070.53 1159.02 1059.31 1088.13 1074.81 1020.27C1090.27 952.367 1115.75 918.74 1136.29 897.735C1159.47 873.986 1189.04 863.508 1198.36 862.062L1206.99 877.677ZM1200.61 950.97C1200.61 950.97 1190.09 982.054 1220.9 1020.67C1251.71 1059.29 1326.15 1095.36 1356.31 1108.98C1389.67 1124 1468.59 1151.39 1487.69 1156.43C1487.69 1156.43 1478.67 1164.11 1476.02 1166.26C1473.23 1168.4 1445.16 1194.4 1389.72 1215.7C1354.47 1229.27 1333.63 1230.82 1333.63 1230.82C1333.63 1230.82 1274.99 1197.74 1231.62 1143.41C1188.24 1088.97 1177.12 1047.36 1172.39 1018.33C1167.6 989.338 1178.12 955.71 1182.91 947.528L1200.61 950.97ZM1734.49 914.948L1734.49 1052.75L1909.24 1019.72L1734.49 914.948ZM1323.61 985.197C1323.61 985.197 1342.4 988.938 1367.23 971.127C1412.1 938.896 1439.98 827.585 1446.56 795.155C1453.59 760.18 1461.11 684.243 1462.11 661.941C1459.82 657.95 1455.58 650.616 1454.43 648.37C1452.99 645.227 1435.39 616.14 1426.91 557.316C1421.63 519.897 1424.77 497.145 1424.77 497.145C1424.77 497.145 1471.78 444.907 1534.86 415.67C1593.09 388.678 1619.86 387.031 1649.23 387.031C1704.32 387.031 1729.2 407.637 1736.13 414.024L1729.15 431.336C1729.15 431.336 1699.99 411.33 1652.82 436.376C1591.99 468.607 1554.3 525.235 1534.36 551.728C1513.17 579.718 1476.07 641.635 1464.9 662.141C1467.65 664.137 1471.54 666.98 1473.18 668.327C1475.72 670.323 1502.15 688.135 1531.76 727.999C1529.77 701.456 1528.77 657.002 1538.64 613.745C1554.1 545.891 1579.63 512.263 1600.17 491.258C1623.35 467.509 1652.87 457.032 1662.14 455.585L1670.87 471.201C1670.87 471.201 1641.7 482.078 1631.48 522.591C1619.31 570.488 1629.69 635.548 1637.36 667.778C1646.59 706.096 1656.71 744.464 1689.62 824.442L2058.71 1047.91C2058.71 1047.91 2055.53 1054.35 2055.53 1077C2055.53 1099.75 2057.67 1106.19 2057.67 1106.19L1530.02 1216.3C1530.02 1216.3 1532.21 1174.24 1532.21 1147.25C1532.21 1120.26 1527.87 1083.49 1527.87 1083.49L1685.43 1061.93L1685.43 884.812L1561.03 816.11C1551.86 839.809 1534.66 877.678 1507.53 911.755C1464.11 966.138 1426.26 986.494 1399.09 997.62C1371.92 1008.65 1337.52 1007.9 1324.65 1005.15L1323.61 985.197Z" fill="white" fill-opacity="0.05"/>
</g>
<defs>
<clipPath id="clip0_2063_7009">
<rect width="1920" height="866" fill="white"/>
</clipPath>
</defs>
</svg>
