<svg width="400" height="282" viewBox="0 0 400 282" fill="none" xmlns="http://www.w3.org/2000/svg">
<g clip-path="url(#clip0_2063_7009)">
<path d="M324.843 104.705C341.441 104.705 354.883 118.152 354.883 134.778C354.883 151.362 341.441 164.808 324.843 164.808C308.223 164.808 294.783 151.362 294.783 134.778C294.783 118.152 308.223 104.705 324.843 104.705ZM315.702 167.552C315.702 167.552 323.098 179.044 343.664 179.044C364.231 179.044 395.329 164.164 407.607 157.825C421.193 150.863 450.922 132.117 457.549 127.213C457.549 127.213 457.736 132.575 457.736 133.988C457.736 135.464 459.065 151.528 451.586 175.116C446.87 190.142 442.301 196.543 442.301 196.543C442.301 196.543 415.398 207.433 386.438 207.433C357.417 207.433 340.984 200.222 330.327 194.278C319.649 188.293 311.423 176.114 309.968 172.456L315.702 167.552ZM344.786 162.335C344.786 162.335 352.618 163.894 362.963 156.475C381.639 143.049 393.273 96.6832 395.995 83.1745C398.986 68.1903 402.227 35.1668 402.497 26.9577C402.497 26.9577 405.966 29.4517 407.109 30.3661C408.23 31.2597 421.609 40.2377 435.403 60.7709C444.191 73.8431 447.037 82.2809 447.037 82.2809C447.037 82.2809 439.454 109.09 421.381 131.743C403.307 154.396 387.539 162.876 376.217 167.51C364.895 172.103 350.561 171.791 345.181 170.648L344.786 162.335ZM358.83 136.357C358.83 136.357 368.427 128.647 363.857 108.592C359.265 88.495 346.074 67.8786 328.333 46.9506C318.444 35.3124 294.18 12.3476 287.948 7.02728C287.948 7.02728 293.12 5.63483 294.554 5.32309C295.925 4.96979 311.298 0.12761 335.978 2.1643C351.663 3.43203 358.892 6.44537 358.892 6.44537C358.892 6.44537 375.366 28.1425 381.827 56.4067C388.287 84.6502 385.94 103.146 382.491 114.868C378.689 127.898 368.905 138.976 365.664 141.2L358.83 136.357ZM348.339 109.693C348.339 109.693 346.78 96.4337 327.855 87.6427C316.013 82.1561 302.261 78.0413 260.276 78.0413C245.007 78.0413 211.166 82.4887 203.106 84.0681C203.106 84.0681 205.163 78.8518 205.786 77.5425C206.451 76.254 211.997 61.6229 228.97 43.5629C239.731 32.1117 246.482 28.288 246.482 28.288C246.482 28.288 274.777 29.9921 300.869 42.5655C326.962 55.139 339.156 67.8995 346.074 77.9998C354.841 90.8226 355.817 104.186 355.506 108.134L348.339 109.693ZM293.515 148.078C293.515 148.078 289.132 161.026 301.95 177.112C314.788 193.197 345.825 208.223 358.393 213.897C372.291 220.152 405.177 231.562 413.154 233.64C413.154 233.64 409.373 236.861 408.251 237.755C407.15 238.649 395.392 249.476 372.332 258.33C357.645 264.003 348.962 264.647 348.962 264.647C348.962 264.647 324.511 250.889 306.437 228.236C288.384 205.563 283.71 188.23 281.757 176.156C279.783 164.06 284.167 150.053 286.14 146.623L293.515 148.078ZM131.56 274.02C148.179 274.02 161.62 287.467 161.62 304.093C161.62 320.677 148.179 334.144 131.56 334.144C114.961 334.144 101.52 320.677 101.52 304.093C101.52 287.467 114.961 274.02 131.56 274.02ZM122.46 336.867C122.46 336.867 129.814 348.339 150.401 348.339C170.989 348.339 202.067 333.479 214.345 327.141C227.91 320.178 257.659 301.433 264.286 296.528C264.286 296.528 264.494 301.89 264.494 303.303C264.494 304.779 265.782 320.844 258.345 344.432C253.587 359.458 249.038 365.859 249.038 365.859C249.038 365.859 222.135 376.749 193.155 376.749C164.154 376.749 147.722 369.537 137.064 363.593C126.366 357.608 118.181 345.429 116.706 341.751L122.46 336.867ZM165.546 305.672C165.546 305.672 175.933 298.544 171.321 278.51C166.751 258.434 152.832 237.194 135.05 216.266C125.182 204.628 101.997 182.224 95.7651 176.862C95.7651 176.862 100.938 175.49 102.351 175.158C103.743 174.846 119.136 170.69 143.774 172.727C159.48 173.994 166.709 176.862 166.709 176.862C166.709 176.862 182.124 197.458 188.543 225.722C195.024 253.966 192.698 272.462 189.249 284.183C185.427 297.214 175.622 308.291 172.381 310.515L165.546 305.672ZM155.076 279.008C155.076 279.008 153.497 265.749 134.613 256.958C122.751 251.471 108.977 247.356 67.0135 247.356C51.7652 247.356 17.9035 251.804 9.84309 253.383C9.84309 253.383 11.8998 248.167 12.5438 246.858C13.1878 245.569 18.7344 230.917 35.7069 212.878C46.468 201.427 53.2403 197.582 53.2403 197.582C53.2403 197.582 81.5141 199.307 107.607 211.86C133.72 224.454 145.914 237.215 152.832 247.315C161.578 260.138 162.555 273.522 162.264 277.45L155.076 279.008ZM127.176 270.259C127.176 270.259 115.044 261.925 95.4119 272.358C70.0466 285.804 54.3625 309.372 46.0528 320.407C36.8498 332.565 20.4174 360.122 16.595 367.396C16.595 367.396 13.3952 361.952 12.7512 360.663C12.1279 359.354 4.83627 347.237 1.30466 322.714C-0.959736 307.127 0.41138 297.671 0.41138 297.671C0.41138 297.671 19.9601 275.912 46.2811 263.733C70.5454 252.49 81.7013 251.783 93.9373 251.783C116.851 251.783 127.218 260.366 130.126 263.047L127.176 270.259ZM102.912 286.864C102.912 286.864 90.7588 291.395 86.5001 308.27C81.4312 328.222 85.752 355.342 88.972 368.747C92.8152 384.708 96.8247 401.126 110.556 434.42C110.556 434.42 103.639 433.152 102.226 432.861C100.834 432.529 86.0427 430.077 64.6867 417.545C51.1212 409.606 46.0528 404.057 46.0528 404.057C46.0528 404.057 41.3786 374.525 47.8394 346.261C54.2794 317.975 64.8951 303.968 73.4541 295.219C83.1141 285.326 95.4331 280.962 99.3179 280.359L102.912 286.864ZM100.252 317.394C100.252 317.394 95.8693 330.341 108.708 346.427C121.546 362.513 152.562 377.538 165.131 383.212C179.029 389.467 211.914 400.877 219.87 402.976C219.87 402.976 216.111 406.177 215.01 407.07C213.846 407.964 202.15 418.792 179.049 427.666C164.362 433.319 155.678 433.963 155.678 433.963C155.678 433.963 131.248 420.184 113.174 397.552C95.1005 374.878 90.4681 357.545 88.4946 345.45C86.5002 333.375 90.8836 319.368 92.8779 315.96L100.252 317.394ZM322.703 302.389L322.703 359.79L395.517 346.032L322.703 302.389ZM151.503 331.651C151.503 331.651 159.335 333.209 169.68 325.79C188.377 312.364 199.99 265.999 202.732 252.49C205.661 237.921 208.798 206.29 209.213 197.001C208.258 195.338 206.492 192.283 206.014 191.348C205.412 190.038 198.078 177.922 194.547 153.42C192.345 137.833 193.653 128.356 193.653 128.356C193.653 128.356 213.244 106.596 239.523 94.4179C263.787 83.1745 274.943 82.4886 287.179 82.4886C310.135 82.4886 320.501 91.0718 323.388 93.7319L320.48 100.943C320.48 100.943 308.327 92.61 288.675 103.043C263.33 116.468 247.625 140.056 239.315 151.092C230.486 162.751 215.03 188.542 210.376 197.084C211.519 197.915 213.14 199.099 213.825 199.661C214.885 200.492 225.895 207.911 238.235 224.516C237.404 213.46 236.988 194.943 241.102 176.925C247.542 148.66 258.178 134.653 266.737 125.903C276.397 116.011 288.696 111.647 292.56 111.044L296.195 117.549C296.195 117.549 284.042 122.08 279.783 138.955C274.714 158.906 279.036 186.006 282.235 199.432C286.078 215.393 290.295 231.375 304.006 264.689L457.798 357.774C457.798 357.774 456.469 360.455 456.469 369.89C456.469 379.367 457.362 382.048 457.362 382.048L237.508 427.915C237.508 427.915 238.422 410.395 238.422 399.152C238.422 387.909 236.614 372.592 236.614 372.592L302.261 363.614L302.261 289.836L250.429 261.218C246.607 271.09 239.44 286.864 228.139 301.059C210.044 323.712 194.277 332.191 182.955 336.825C171.633 341.418 157.299 341.107 151.939 339.964L151.503 331.651Z" fill="white" fill-opacity="0.05"/>
</g>
<defs>
<clipPath id="clip0_2063_7009">
<rect width="400" height="282" fill="white"/>
</clipPath>
</defs>
</svg>
