<svg width="252" height="131" viewBox="0 0 252 131" fill="none" xmlns="http://www.w3.org/2000/svg">
<path d="M4 16C4 9.37259 9.37258 4 16 4H220.314C226.219 4 231.246 8.29523 232.167 14.1274L247.808 113.127C248.959 120.411 243.33 127 235.955 127H16C9.37259 127 4 121.627 4 115V16Z" fill="white"/>
<path d="M220.314 2C227.203 2.00005 233.068 7.01132 234.143 13.8154L249.784 112.815C251.127 121.313 244.558 129 235.955 129H16C8.26802 129 2 122.732 2 115V16C2 8.26802 8.26801 2 16 2H220.314Z" stroke="white" stroke-opacity="0.2" stroke-width="4"/>
</svg>
