<svg width="492" height="103" viewBox="0 0 492 103" fill="none" xmlns="http://www.w3.org/2000/svg">
<path d="M4 16C4 9.37258 9.37258 4 16 4H446.297C451.179 4 455.574 6.95759 457.413 11.48L486.283 82.48C489.491 90.3714 483.685 99 475.167 99H16C9.37259 99 4 93.6274 4 87V16Z" fill="white"/>
<path d="M446.297 2C451.992 2 457.12 5.45051 459.266 10.7266L488.136 81.7266C491.879 90.933 485.105 101 475.167 101H16C8.26802 101 2 94.732 2 87V16C2 8.26801 8.26801 2 16 2H446.297Z" stroke="white" stroke-opacity="0.2" stroke-width="4"/>
</svg>
