<svg width="700" height="441" viewBox="0 0 700 441" fill="none" xmlns="http://www.w3.org/2000/svg">
<g clip-path="url(#clip0_2023_6736)">
<rect width="700" height="441" rx="12" fill="#0C43B9"/>
<path d="M171.109 300.166L-74.0914 318.873C-75.1945 318.957 -76.2721 319.248 -77.2667 319.73C-85.1952 323.572 -93.1968 314.698 -88.4501 307.327L-39.7988 231.774C-33.6155 222.171 -22.9865 216.27 -11.5014 216.062L303.877 210.359L329.08 213.284C337.951 214.313 346.378 217.667 353.493 223L363.799 230.725C373.629 238.094 380.366 248.796 382.723 260.789L383.613 265.315C385.431 274.565 384.556 284.143 381.09 292.934L376.861 303.659C374.336 310.065 370.499 315.888 365.593 320.759L343.862 342.338L301.306 377.521L257.31 410.932L210.428 453.592C198.33 466.653 170.081 497.277 138.639 531.523C130.142 540.778 123.862 547.822 119.207 553.025C110.046 563.265 99.1031 557.559 88.1175 549.325C62.8782 530.406 60.4206 491.89 82.7371 469.539C89.9362 462.329 97.9288 454.352 106.69 445.68C142.983 409.757 180.628 386.573 200.748 366.384C227.249 341.402 207.547 297.386 171.109 300.166Z" fill="#FCFDFF" fill-opacity="0.05"/>
<path d="M664.371 112.243L890.626 257.137C892.108 258.086 893.416 259.31 894.491 260.756C900.193 268.418 898.092 280.135 890.005 285.785L835.754 323.684C819.098 335.319 798.178 335.467 782.651 324.06L537.375 143.86L514.617 122.37C509.945 117.959 506.195 112.534 503.585 106.411L492.396 80.1583C488.648 71.3664 487.386 61.4495 488.757 51.5821L490.024 42.4572C491.528 31.6386 496.124 21.4013 503.164 13.1913L503.873 12.3651C510.251 4.9267 518.358 -0.523238 527.246 -3.34751L546.147 -9.35401L591.377 -17.5289L637.218 -23.0921L688.257 -35.9005C702.066 -41.207 734.348 -53.7203 770.329 -67.8051C781.297 -72.0987 789.117 -75.3811 794.641 -77.6491C804.701 -81.7798 809.045 -71.8211 813.353 -61.7128L818.441 -49.7761C831.533 -19.0598 813.301 21.4786 782.057 31.4802C778.013 32.7746 773.797 34.1156 769.412 35.4982C728.682 48.3395 695.748 60.6189 673.26 67.9496C653.038 72.5086 647.262 101.287 664.371 112.243Z" fill="#FCFDFF" fill-opacity="0.05"/>
</g>
<defs>
<clipPath id="clip0_2023_6736">
<rect width="700" height="441" fill="white"/>
</clipPath>
</defs>
</svg>
