<svg width="100" height="100" viewBox="0 0 100 100" fill="none" xmlns="http://www.w3.org/2000/svg">
<g clip-path="url(#clip0_51_617)">
<path d="M50 0C28.9088 0 11.75 17.159 11.75 38.25C11.75 59.341 28.909 76.5 50 76.5C71.091 76.5 88.25 59.341 88.25 38.25C88.25 17.159 71.0912 0 50 0ZM67.949 62.9547L50 54.4607L32.051 62.9547L34.5826 43.2596L20.958 28.8141L40.4715 25.1357L50 7.71348L59.5283 25.1353L79.042 28.8137L65.4174 43.2594L67.949 62.9547Z" fill="#105BFB"/>
<path d="M55.7182 30.3797L50 19.9246L44.2818 30.3797L32.5713 32.5871L40.7479 41.2563L39.2285 53.0758L50 47.9783L60.7715 53.0758L59.2521 41.2563L67.4287 32.5871L55.7182 30.3797ZM23.2803 86.6117C25.8655 86.2368 28.3519 85.3579 30.5984 84.025V77.8854C28.0161 76.6179 25.5649 75.0993 23.2803 73.3514V86.6117ZM69.4016 84.025C71.6481 85.3579 74.1345 86.2368 76.7197 86.6117V73.3514C74.435 75.0992 71.9838 76.6178 69.4016 77.8854V84.025ZM36.4578 80.2492V100C40.7955 99.3738 44.784 97.3592 47.9078 94.1723L50 92.0379L52.0922 94.1723C55.216 97.359 59.2045 99.3738 63.5422 100V80.2492C59.223 81.6367 54.6674 82.3594 50 82.3594C45.3326 82.3594 40.777 81.6367 36.4578 80.2492Z" fill="#105BFB"/>
</g>
<defs>
<clipPath id="clip0_51_617">
<rect width="100" height="100" fill="white"/>
</clipPath>
</defs>
</svg>
