<svg width="100" height="100" viewBox="0 0 100 100" fill="none" xmlns="http://www.w3.org/2000/svg">
<path fill-rule="evenodd" clip-rule="evenodd" d="M61.5754 4.00011C68.8747 5.06763 75.4717 8.9564 79.9666 14.8404C77.1336 16.0858 74.1784 17.0263 71.1475 17.6405C70.5413 15.6368 69.7541 13.6882 68.7944 11.8285C66.8537 8.11334 64.3747 5.36848 61.5754 4.00011ZM70.024 95.5478V97.6235C70.024 98.9367 68.9674 99.9958 67.6666 100H47.3345C46.0338 99.9958 44.9771 98.9367 44.9771 97.6235V95.5478C44.9771 88.5877 50.5843 82.941 57.5005 82.941C64.4168 82.941 70.024 88.5877 70.024 95.5478ZM85.5864 90.3034H85.5906C85.5948 85.4785 82.5471 81.1829 78.0134 79.6198C73.4755 78.0567 68.4534 79.569 65.5147 83.3816C69.2024 85.8427 71.5765 89.8587 71.9639 94.2934H83.4732C84.6392 94.2891 85.5864 93.3402 85.5906 92.1669V90.3072L85.5864 90.3034ZM29.4093 90.3034V92.1674C29.4135 93.3408 30.3607 94.2897 31.5267 94.2939H43.036C43.4233 89.8587 45.7975 85.8427 49.4852 83.3821C46.5468 79.5696 41.5249 78.0572 36.9865 79.6204C32.4528 81.1835 29.405 85.4784 29.4093 90.3034ZM100 86.1943V87.9099C100 88.9902 99.1286 89.8628 98.0552 89.8671H87.5732C87.4301 85.669 85.3254 81.7845 81.8945 79.3868C84.715 76.1122 89.2613 74.9472 93.2983 76.4638C97.3311 77.9803 100.004 81.8607 100 86.1943ZM15 86.1943C14.9958 81.8607 17.6689 77.9804 21.7017 76.4638C25.7387 74.9473 30.285 76.1122 33.1055 79.3868C29.6746 81.7844 27.5699 85.669 27.4268 89.8671H16.9448C15.8714 89.8628 15 88.9902 15 87.9099V86.1943ZM25.3219 63.5009C23.3223 63.5009 21.5207 64.7124 20.7587 66.5678C19.9925 68.4275 20.4135 70.5668 21.8279 71.9901C23.2423 73.4092 25.3682 73.8371 27.212 73.0661C29.0599 72.2951 30.2639 70.4821 30.2639 68.4699C30.2639 67.1525 29.7419 65.89 28.8157 64.9538C27.8896 64.0219 26.6353 63.5009 25.3219 63.5009ZM57.4996 68.0082C59.9243 68.0082 62.109 69.4782 63.0394 71.7318C63.9655 73.9896 63.4519 76.5822 61.7386 78.3105C60.0254 80.0346 57.4448 80.5515 55.2053 79.6153C52.9659 78.6833 51.5051 76.4848 51.5051 74.0447C51.5051 70.7109 54.1866 68.0082 57.4996 68.0082ZM74.3627 65.6317C76.539 65.6317 78.4965 66.9491 79.3258 68.9656C80.1593 70.9862 79.7005 73.3119 78.164 74.8581C76.6275 76.4043 74.3165 76.8661 72.3085 76.0315C70.3005 75.1927 68.9914 73.2229 68.9914 71.037C68.9914 68.0505 71.3992 65.6317 74.3627 65.6317ZM89.6771 63.501C91.6767 63.501 93.4784 64.7125 94.2404 66.5679C95.0065 68.4276 94.5855 70.5669 93.1711 71.986C91.7567 73.4093 89.6308 73.8372 87.7871 73.0662C85.9391 72.2952 84.7351 70.4822 84.7351 68.47C84.7351 65.725 86.9452 63.501 89.6771 63.501ZM40.6354 65.6318C38.459 65.6318 36.5016 66.9492 35.6722 68.9657C34.8387 70.9863 35.2976 73.312 36.834 74.8582C38.3705 76.4044 40.6816 76.8662 42.6896 76.0316C44.6976 75.1928 46.0067 73.223 46.0067 71.0371C46.0067 68.0506 43.5989 65.6318 40.6354 65.6318ZM69.1803 18.0264C68.6204 16.209 67.9048 14.4468 67.0334 12.7608C64.7686 8.42719 61.7756 5.59318 58.4963 5.1145V19.0053C62.0786 18.9629 65.6526 18.6368 69.1845 18.0268L69.1803 18.0264ZM56.5006 19.0049C52.9182 18.9625 49.3443 18.6364 45.8124 18.0264C46.3765 16.209 47.0921 14.4468 47.9635 12.7608C50.2283 8.42719 53.2213 5.59318 56.5006 5.1145V19.0049ZM35.0316 14.8408C37.8646 16.0862 40.8197 17.0266 43.8506 17.6409C44.4568 15.6371 45.2441 13.6886 46.2038 11.8288C48.1445 8.11371 50.6239 5.36873 53.4232 4.00036C46.1239 5.06788 39.5264 8.95676 35.0316 14.8408ZM81.1433 16.4971C78.1166 17.8738 74.9426 18.9033 71.6886 19.5725C72.6484 23.385 73.1578 27.295 73.2125 31.2261H85.8243C85.6475 25.9775 84.0269 20.8772 81.1433 16.4971ZM71.2213 31.2262H58.4953V21.0086C62.2629 20.9662 66.0221 20.6146 69.7353 19.958C70.6698 23.6434 71.1666 27.4259 71.2213 31.2262ZM56.5006 31.2262H43.7746C43.8293 27.4264 44.326 23.6435 45.2605 19.9576C48.9734 20.6142 52.7326 20.9658 56.5005 21.0082L56.5006 31.2262ZM41.7798 31.2262H29.1723C29.3491 25.9776 30.9699 20.8772 33.8535 16.4971C36.8802 17.8738 40.0542 18.9033 43.3082 19.5725C42.3484 23.385 41.839 27.295 41.7842 31.2261L41.7798 31.2262ZM85.8203 33.2342H85.8245C85.6477 38.4827 84.027 43.5831 81.1392 47.9633C78.1125 46.5865 74.9427 45.5571 71.6887 44.8878C72.6485 41.0753 73.1579 37.1653 73.2126 33.2343L85.8203 33.2342ZM69.7353 44.5028C66.0224 43.8462 62.2632 43.4946 58.4953 43.4522V33.2346H71.2213C71.1666 37.0344 70.6698 40.8169 69.7353 44.5028ZM56.5006 43.4522C52.733 43.4946 48.9738 43.8462 45.2606 44.5028C44.3261 40.8173 43.8294 37.0344 43.7747 33.2342H56.5007L56.5006 43.4522ZM33.8569 47.9638C30.9691 43.5835 29.3484 38.4832 29.1716 33.2347H41.7834C41.8381 37.1658 42.3475 41.0758 43.3073 44.8882C40.0533 45.5575 36.8836 46.587 33.8569 47.9638ZM79.9644 49.62C77.1313 48.3746 74.1762 47.4342 71.1453 46.82C70.5391 48.8237 69.7519 50.7723 68.7921 52.632C66.8515 56.3471 64.372 59.0921 61.5727 60.4605C68.8721 59.3972 75.4695 55.5041 79.9644 49.62ZM53.4228 60.4604C50.6234 59.0963 48.144 56.347 46.2034 52.6319C45.2436 50.7723 44.4564 48.8236 43.8502 46.8199C40.8193 47.4341 37.8642 48.3745 35.0311 49.6199C39.527 55.504 46.1239 59.3971 53.4228 60.4604ZM45.8119 46.4384C49.3437 45.8241 52.9177 45.4979 56.5 45.4598V59.3506C53.2207 58.8677 50.2278 56.0379 47.963 51.7043V51.7001C47.0916 50.0141 46.3759 48.2518 45.8161 46.4387L45.8119 46.4384ZM58.4915 45.4598H58.4958C62.0781 45.4979 65.652 45.8241 69.1797 46.4384C68.6199 48.2515 67.9042 50.0137 67.0328 51.6997C64.768 56.0333 61.7751 58.8673 58.4958 59.346L58.4915 45.4598Z" fill="#105BFB"/>
</svg>
