<svg width="100" height="100" viewBox="0 0 100 100" fill="none" xmlns="http://www.w3.org/2000/svg">
<path d="M18.6401 53.9868C21.1987 50.5962 20.5385 45.9165 20.1401 44.0571C19.8003 42.4985 20.0503 41.0376 20.8901 39.7368C23.1792 36.2056 29.2885 34.9165 32.2301 34.2954C32.691 34.1938 33.2106 34.0845 33.3512 34.0454C37.7028 32.3345 40.3121 29.8852 41.1129 26.7837C42.1129 22.854 40.1715 17.7056 35.6324 12.2637C33.1519 9.2949 32.1012 6.4551 32.484 3.7832C17.722 10.5293 8 25.4672 8 41.8692C8 47.3692 9.0391 52.6892 11.0898 57.6972C14.5429 57.3066 17.0698 56.0571 18.6401 53.9868Z" fill="#105BFB"/>
<path d="M53.01 83.6196C50.8108 80.1001 48.9709 76.7993 47.4983 73.729C44.2092 74.4282 41.4671 74.4204 38.9475 73.7094C38.8694 73.6899 38.7874 73.6508 38.7092 73.6196C38.51 73.518 38.2991 73.4009 38.0999 73.2915C34.6507 71.3696 29.7913 71.772 23.6309 74.4712C31.0528 80.4595 40.2909 83.7329 49.8809 83.7329C50.92 83.7368 51.9709 83.6977 53.01 83.6196Z" fill="#105BFB"/>
<path d="M39.4471 70.8513C39.576 70.9216 39.7089 70.9997 39.826 71.0622C41.7049 71.574 43.7948 71.5935 46.2948 71.1208C44.1464 66.1208 43.0643 61.7927 43.0643 58.1598C43.0683 46.4998 52.5682 36.9998 64.2403 36.9998C65.0997 36.9998 65.9513 37.0506 66.7912 37.1483C67.2521 36.5389 67.5021 35.7889 67.5021 35.0272C67.5021 34.367 67.3224 33.7381 66.963 33.1678C66.9513 33.1561 66.924 33.0975 66.8927 33.0584C65.8927 31.41 65.8029 29.3865 66.6544 27.66C67.5138 25.8983 69.1935 24.7303 71.1349 24.5116C79.3966 23.5702 85.0449 26.1327 87.0449 31.7225C87.9043 34.1327 89.334 35.7733 91.416 36.703C88.8691 16.039 71.209 0 49.869 0C45.0604 0 40.3378 0.80859 35.83 2.4219C34.5917 4.793 35.2285 7.4336 37.7714 10.4727C42.9706 16.7032 45.0722 22.5937 43.8222 27.4847C42.791 31.5159 39.6113 34.5941 34.373 36.6644C34.0723 36.7855 33.6543 36.8753 32.8222 37.055C30.4511 37.555 24.912 38.7269 23.2519 41.2855C22.8222 41.9574 22.7012 42.6566 22.8808 43.4964C23.3613 45.7269 24.1425 51.3753 20.8808 55.6954C18.9824 58.2149 16.1113 59.7852 12.3105 60.3868C14.5293 64.9063 17.6191 69.047 21.3105 72.4958C28.8574 68.8903 34.9581 68.3513 39.4471 70.8513ZM45.7674 6.82031C46.119 5.37111 47.3377 4.32031 48.8182 4.21091C59.2282 3.3906 63.3692 7.25001 65.0092 10.6406C65.6108 11.8906 65.4975 13.3203 64.7007 14.4609C63.9819 15.5 62.8022 16.1015 61.5522 16.1015C61.4233 16.1015 61.3022 16.0898 61.1733 16.082C57.0717 15.6835 49.8643 14.8125 47.6343 13.5703C45.6499 12.4687 44.9901 10.0703 45.7674 6.82031Z" fill="#105BFB"/>
<path d="M91.7404 41.8697C91.7404 41.1705 91.7209 40.4714 91.6896 39.7682C88.2013 38.6979 85.7013 36.2564 84.4084 32.6587C82.4592 27.229 76.2873 26.7368 71.4474 27.2876C70.4591 27.4087 69.6076 27.9986 69.1662 28.897C68.7248 29.7877 68.7756 30.7759 69.2951 31.6275C69.3069 31.6393 69.3069 31.6471 69.3147 31.6588C69.3147 31.6705 69.3264 31.6783 69.3342 31.69C69.9748 32.7095 70.2951 33.8306 70.2951 35.0299C70.2951 35.9595 70.0842 36.8696 69.6936 37.7095C78.7327 40.1197 85.4046 48.3815 85.4046 58.1586C85.4046 60.4867 84.9554 63.1194 84.0648 66.0296C89.0492 59.0179 91.7404 50.6467 91.7404 41.8697Z" fill="#105BFB"/>
<path d="M64.2401 39.7998C54.1111 39.7998 45.8691 48.0381 45.8691 58.1708C45.8691 64.2997 49.541 73.1318 56.5801 84.0228C57.8887 86.0423 59.3106 88.1439 60.8496 90.304C60.8809 90.3431 60.9082 90.3821 60.9395 90.4329C61.5098 91.2337 62.0997 92.054 62.709 92.8743C63.0801 93.3743 63.6387 93.6556 64.2481 93.6556C64.8575 93.6556 65.4278 93.3743 65.7872 92.8743C66.3966 92.0462 66.9864 91.2141 67.5684 90.4055C67.5879 90.3743 67.6074 90.3469 67.627 90.3274C72.5567 83.3977 76.3184 77.1474 78.838 71.7254C78.8575 71.6863 78.8692 71.6473 78.8888 71.6043C81.3497 66.284 82.6193 61.7527 82.6193 58.1633C82.6075 48.0383 74.3691 39.7998 64.2401 39.7998ZM64.6698 64.6788C60.1112 64.6788 56.4003 60.9679 56.4003 56.4093C56.4003 51.8507 60.1112 48.1398 64.6698 48.1398C69.2284 48.1398 72.9393 51.8507 72.9393 56.4093C72.9393 60.9679 69.2284 64.6788 64.6698 64.6788Z" fill="#105BFB"/>
<path d="M69.4195 92.6006C68.9702 93.2412 68.4976 93.8818 68.0289 94.5225C67.1304 95.7413 65.7477 96.4444 64.2398 96.4444C62.7203 96.4444 61.3414 95.7452 60.4507 94.5225C59.9819 93.8741 59.5093 93.2334 59.0523 92.6006C50.2906 93.2725 46.5723 95.4287 46.5723 96.2022C46.5723 96.4209 47.3809 97.5108 51.1309 98.5303C54.6114 99.4795 59.2715 99.9991 64.2519 99.9991C69.2207 99.9991 73.8808 99.4796 77.3729 98.5303C81.1112 97.5108 81.9315 96.4092 81.9315 96.2022C81.908 95.4209 78.1893 93.2686 69.4195 92.6006Z" fill="#105BFB"/>
</svg>
