<svg width="100" height="100" viewBox="0 0 100 100" fill="none" xmlns="http://www.w3.org/2000/svg">
<path d="M74.2025 46.9135C73.131 45.4214 72.6782 43.5495 73.0016 41.664L73.6461 37.9057L70.916 35.2443C70.8744 35.204 70.8369 35.1608 70.7965 35.1196C49.9035 52.5488 47.5271 80.4873 47.7547 94.203C47.7584 94.4447 47.8513 94.6766 48.0155 94.854C48.1797 95.0314 48.4037 95.142 48.6444 95.1643C48.8852 95.1866 49.1257 95.1192 49.3197 94.975C49.5138 94.8308 49.6477 94.62 49.6958 94.3831C55.4591 66.3145 66.3586 53.0483 74.2025 46.9135ZM33.2295 28.1704L26.9245 29.5818L24.5128 35.5758C24.469 35.6847 24.4196 35.7901 24.3708 35.8958C34.2111 49.8168 39.3361 78.2391 41.3848 92.5561C41.407 92.7189 41.4902 92.8672 41.6175 92.9711C41.7449 93.0749 41.9069 93.1264 42.0708 93.1154C42.2348 93.1043 42.3884 93.0314 42.5006 92.9113C42.6129 92.7913 42.6753 92.6332 42.6754 92.4689C42.9246 61.5882 38.2006 40.9841 33.4327 28.1179C33.3649 28.1348 33.2983 28.1551 33.2295 28.1704ZM76.3487 78.1713L75.4552 76.9422C74.7496 75.9745 74.3046 74.8416 74.1627 73.6523C67.2852 75.4865 56.9396 80.1799 53.634 92.0511C53.5475 92.3616 53.5738 92.6927 53.7084 92.9857C53.843 93.2786 54.077 93.5143 54.369 93.651C54.661 93.7876 54.9919 93.8163 55.303 93.732C55.6142 93.6476 55.8853 93.4557 56.0683 93.1903C59.6753 87.9593 66.1591 81.0515 75.8286 79.6489C75.834 79.6339 75.8377 79.6186 75.843 79.6032L76.3487 78.1713ZM27.1682 66.1831C26.5249 67.0824 25.6779 67.8166 24.6964 68.3256L23.3488 69.0265L23.1621 70.5338C23.1059 70.9811 23.0072 71.4219 22.8672 71.8504C28.6417 78.373 32.897 87.3326 35.4686 93.7658C35.5519 93.9741 35.7094 94.1443 35.9107 94.2435C36.1119 94.3427 36.3428 94.3639 36.5588 94.3031C36.7748 94.2422 36.9607 94.1036 37.0806 93.914C37.2005 93.7243 37.246 93.4969 37.2083 93.2757C34.9313 79.8306 30.9487 71.4104 27.1682 66.1831ZM80.3666 35.7222L79.1661 42.7214C79.1426 42.8578 79.1578 42.9982 79.2099 43.1265C79.2621 43.2548 79.3491 43.3659 79.4612 43.4473C79.5732 43.5287 79.7058 43.5771 79.844 43.587C79.9821 43.597 80.1203 43.568 80.2428 43.5035L86.5286 40.1989L92.8142 43.5035C92.9367 43.5679 93.0748 43.5967 93.2129 43.5868C93.351 43.5768 93.4835 43.5284 93.5956 43.447C93.7076 43.3656 93.7946 43.2546 93.8468 43.1263C93.899 42.9981 93.9142 42.8578 93.8909 42.7214L92.6903 35.7222L97.7756 30.7651C97.8747 30.6684 97.9447 30.546 97.9779 30.4115C98.011 30.2771 98.0059 30.1361 97.9631 30.0045C97.9204 29.8728 97.8416 29.7557 97.7358 29.6664C97.63 29.5771 97.5013 29.5192 97.3643 29.4992L90.3367 28.4782L87.1938 22.1101C87.1324 21.986 87.0376 21.8815 86.92 21.8085C86.8024 21.7355 86.6667 21.6968 86.5283 21.6968C86.3899 21.6968 86.2542 21.7355 86.1366 21.8085C86.019 21.8815 85.9242 21.986 85.8628 22.1101L82.7199 28.4782L75.6923 29.4992C75.5552 29.5191 75.4264 29.5769 75.3205 29.6661C75.2146 29.7554 75.1357 29.8725 75.0929 30.0042C75.0501 30.1359 75.045 30.277 75.0782 30.4115C75.1114 30.546 75.1815 30.6685 75.2807 30.7651L80.3666 35.7222ZM31.8635 22.0669C31.9987 22.0368 32.1228 21.9694 32.2217 21.8724C32.3206 21.7754 32.3904 21.6526 32.4231 21.518C32.4558 21.3834 32.4502 21.2423 32.4068 21.1107C32.3634 20.9791 32.2841 20.8623 32.1778 20.7735L24.7004 14.5174L25.6152 4.81121C25.6279 4.67345 25.6019 4.53486 25.5402 4.41107C25.4784 4.28728 25.3832 4.1832 25.2655 4.11057C25.1477 4.03794 25.012 3.99965 24.8737 4C24.7353 4.00036 24.5998 4.03935 24.4825 4.11258L16.2217 9.29073L7.27303 5.42166C7.14598 5.36654 7.00603 5.34814 6.86906 5.36853C6.73208 5.38893 6.60357 5.44731 6.49809 5.53705C6.39254 5.6267 6.31419 5.7441 6.27191 5.87597C6.22963 6.00784 6.22511 6.14892 6.25885 6.28322L8.6309 15.7395L2.18557 23.0542C2.09392 23.1581 2.03318 23.2855 2.01024 23.4221C1.9873 23.5588 2.00307 23.6991 2.05577 23.8272C2.10846 23.9553 2.19598 24.0661 2.3084 24.147C2.42083 24.2279 2.55367 24.2758 2.69188 24.2851L12.4183 24.9515L17.3835 33.3417C17.4541 33.4609 17.5565 33.558 17.6794 33.622C17.8022 33.686 17.9405 33.7143 18.0786 33.7039C18.2167 33.6934 18.3491 33.6445 18.4609 33.5627C18.5726 33.4809 18.6593 33.3695 18.7111 33.241L22.3503 24.1966L31.8635 22.0669ZM96.5225 75.2335C96.5025 75.0965 96.4446 74.9677 96.3553 74.8619C96.266 74.7561 96.1488 74.6773 96.0171 74.6346L91.445 73.1507L90.0756 68.543C90.0362 68.4102 89.9605 68.291 89.8569 68.199C89.7533 68.1071 89.6261 68.0459 89.4895 68.0226C89.353 67.9992 89.2126 68.0145 89.0843 68.0668C88.9561 68.1191 88.845 68.2063 88.7637 68.3185L85.9395 72.2085L81.1341 72.0871L81.1153 72.0868C80.9785 72.0869 80.8443 72.1247 80.7276 72.1963C80.611 72.2678 80.5163 72.3702 80.4542 72.4921C80.3921 72.6141 80.365 72.7508 80.3757 72.8873C80.3865 73.0237 80.4347 73.1545 80.5152 73.2652L83.3419 77.1533L81.7414 81.6863C81.6951 81.8169 81.6864 81.9579 81.7161 82.0932C81.7458 82.2285 81.8128 82.3528 81.9096 82.452C82.0063 82.5512 82.1289 82.6213 82.2634 82.6544C82.398 82.6875 82.5391 82.6822 82.6708 82.6392L87.2423 81.1522L91.0588 84.0749C91.1688 84.159 91.3001 84.2107 91.4379 84.2241C91.5757 84.2375 91.7144 84.2121 91.8386 84.1508C91.9627 84.0895 92.0672 83.9947 92.1403 83.8771C92.2134 83.7596 92.2521 83.6239 92.2522 83.4854L92.2506 78.6785L96.2098 75.9521C96.3236 75.8733 96.4132 75.7643 96.4684 75.6373C96.5237 75.5104 96.5424 75.3705 96.5225 75.2335ZM21.8105 62.7769C21.9333 62.713 22.0358 62.6159 22.1064 62.4968C22.177 62.3776 22.2129 62.2411 22.21 62.1027C22.207 61.9642 22.1654 61.8294 22.0899 61.7133C22.0143 61.5972 21.9078 61.5046 21.7824 61.4459L17.4276 59.4101L16.6361 54.6688C16.6133 54.5323 16.5527 54.4048 16.4612 54.3009C16.3698 54.197 16.251 54.1208 16.1185 54.0808C15.986 54.0408 15.8449 54.0387 15.7112 54.0747C15.5775 54.1107 15.4566 54.1833 15.3621 54.2845L12.0803 57.797L7.32619 57.0846C7.18916 57.0639 7.04904 57.0819 6.92174 57.1367C6.79444 57.1915 6.68505 57.2809 6.60599 57.3948C6.52692 57.5086 6.48135 57.6423 6.47444 57.7808C6.46753 57.9192 6.49956 58.0568 6.56689 58.1779L8.89327 62.3847L6.74671 66.686C6.68508 66.8099 6.6593 66.9486 6.67229 67.0864C6.68528 67.2242 6.73651 67.3556 6.82021 67.4659C6.90391 67.5761 7.01674 67.6608 7.14599 67.7103C7.27523 67.7598 7.41574 67.7722 7.55167 67.7462L12.2714 66.8336L15.6989 70.2042C15.7975 70.3014 15.9215 70.3691 16.0566 70.3995C16.1917 70.4299 16.3327 70.4219 16.4635 70.3763C16.5943 70.3307 16.7097 70.2495 16.7967 70.1417C16.8837 70.0339 16.9388 69.9039 16.9557 69.7664L17.5465 64.9957L21.8105 62.7769ZM53.3576 22.5435L52.7806 21.1384L51.2958 20.8173C50.2151 20.5848 49.2048 20.0998 48.3477 19.4019C45.955 25.7659 44.2797 35.6096 46.0416 50.4157C46.1364 51.2125 47.2988 51.2032 47.3745 50.4045C48.0259 43.5363 49.7046 32.4307 53.9905 23.7381C53.7418 23.3611 53.5298 22.9611 53.3576 22.5435ZM55.4744 5.51954L55.9598 10.3021L52.2952 13.4131C52.1894 13.5026 52.1107 13.62 52.0682 13.7519C52.0257 13.8838 52.021 14.025 52.0547 14.1595C52.0884 14.2939 52.159 14.4162 52.2587 14.5126C52.3584 14.6089 52.4831 14.6753 52.6186 14.7044L57.317 15.7207L59.1434 20.1674C59.1958 20.2956 59.2832 20.4066 59.3955 20.4877C59.5078 20.5688 59.6406 20.6168 59.7788 20.6264C59.917 20.6359 60.0551 20.6066 60.1775 20.5416C60.2998 20.4767 60.4016 20.3788 60.4712 20.259L62.8898 16.1048L67.6833 15.742C67.8215 15.7317 67.954 15.6829 68.0658 15.6011C68.1776 15.5193 68.2644 15.4079 68.3161 15.2794C68.3679 15.1509 68.3826 15.0104 68.3586 14.874C68.3347 14.7375 68.273 14.6105 68.1806 14.5073L64.977 10.9235L66.1131 6.25258C66.1461 6.11796 66.1407 5.9768 66.0975 5.8451C66.0543 5.71341 65.9751 5.59644 65.8688 5.50747C65.7626 5.41849 65.6335 5.36107 65.4963 5.3417C65.359 5.32233 65.2191 5.3418 65.0924 5.39789L60.6939 7.33712L56.6024 4.81309C56.4846 4.74021 56.3487 4.70183 56.2102 4.70233C56.0717 4.70283 55.936 4.74218 55.8187 4.8159C55.7014 4.88938 55.607 4.99422 55.5461 5.11857C55.4853 5.24291 55.4604 5.38181 55.4744 5.51954Z" fill="#105BFB"/>
</svg>
