<svg width="35" height="145" viewBox="0 0 35 145" fill="none" xmlns="http://www.w3.org/2000/svg">
<g clip-path="url(#clip0_0_222)">
<path d="M5.10095 -1.04432C17.7525 6.27423 32.7936 41.6746 34.1837 66.262C35.7461 92.8332 31.7965 107.811 15.0869 137.775C17.1787 137.506 18.8651 137.105 20.4267 137.007C22.2018 136.819 24.08 136.639 25.8263 136.865C26.342 136.901 27.2053 137.896 27.2651 138.522C27.3249 139.149 26.5307 140.131 26.0005 140.302C20.9197 141.815 15.8532 143.121 10.6764 144.523C8.99001 144.924 7.79562 144.218 7.40266 142.426C6.22173 135.598 4.93766 128.763 3.8671 121.839C3.66599 120.269 4.20854 118.439 4.35296 116.373C8.67261 118.336 7.89693 122.017 8.84376 124.782C9.88651 127.656 10.3991 130.702 11.3841 134.403C17.7595 126.235 21.9761 117.813 24.8879 108.781C35.6998 75.7075 30.8524 44.2369 14.0805 14.3193C11.865 10.4285 9.21528 6.81876 6.88942 3.02411C6.45313 1.8521 6.00963 0.783358 5.10095 -1.04432Z" fill="#105BFB"/>
</g>
<defs>
<clipPath id="clip0_0_222">
<rect width="145" height="35" fill="white" transform="matrix(0 1 -1 0 35 0)"/>
</clipPath>
</defs>
</svg>
