<svg width="629" height="170" viewBox="0 0 629 170" fill="none" xmlns="http://www.w3.org/2000/svg">
<g clip-path="url(#clip0_2061_6947)">
<path d="M287.775 0.613525C283.081 1.20035 262.543 3.84094 242.298 6.48154C146.943 18.5109 41.3194 58.4133 -41.4194 113.866C-70.7594 133.524 -78.3878 137.631 -71.933 129.71C-66.3584 122.961 -56.6762 91.8609 -58.73 86.2863C-59.6102 83.3523 -63.131 79.5381 -66.6518 77.7777C-71.933 74.8437 -73.9868 75.4305 -81.3218 84.2325C-110.662 118.854 -171.982 228.292 -165.528 234.747C-163.767 236.507 -162.594 240.028 -162.594 242.962C-162.594 245.896 -160.54 248.243 -158.193 248.243C-155.845 248.243 -153.792 249.417 -153.792 251.177C-153.792 252.644 -152.325 254.111 -150.271 254.111C-148.51 254.111 -144.403 256.458 -141.469 259.099C-136.481 263.793 -133.254 263.207 -86.8964 251.764C-59.9036 245.016 -19.7078 236.801 2.29724 233.573C38.092 227.999 87.3832 216.263 91.7842 211.862C95.0116 208.634 89.437 195.725 80.635 187.216C66.2584 173.133 48.6544 172.546 -22.3484 182.522C-30.2702 183.695 -36.4316 183.695 -36.4316 182.522C-36.4316 181.641 -22.3484 171.372 -4.74437 159.93C31.3438 135.871 107.921 97.4355 148.41 82.7655C163.667 77.1909 174.23 72.2031 171.882 72.2031C168.948 71.9097 169.242 71.0295 173.349 69.2691C181.565 65.7483 189.78 66.0417 182.151 69.5625C177.164 71.9097 177.164 72.2031 183.618 70.7361C187.726 70.1493 192.42 69.2691 193.887 69.2691C195.648 69.2691 194.768 67.8021 192.42 66.3351C189.193 63.9879 190.073 63.6945 195.941 65.1615C201.516 66.3351 205.623 65.4549 208.557 62.2275C214.132 56.9463 220.293 55.7727 217.066 60.7605C215.892 62.8143 217.066 63.4011 220.587 62.5209C230.562 59.5869 257.849 54.8925 284.841 51.6651C311.247 48.1443 416.871 46.9707 426.554 49.9047C429.194 50.7849 445.038 52.8387 461.468 54.3057C500.49 58.4133 530.711 64.5747 563.571 75.7239C598.193 87.4599 610.809 94.2081 612.863 101.543C614.33 107.705 624.892 109.758 628.119 104.477C631.64 98.6091 626.359 84.5259 615.797 72.4965C603.18 57.8265 564.158 37.8753 525.429 26.7261C476.138 12.3495 401.615 1.49374 346.455 0.320129C319.169 -0.266663 292.763 0.0267334 287.775 0.613525ZM248.166 17.6307C248.166 19.3911 209.438 25.8459 207.971 24.0855C207.384 23.4987 213.545 21.4449 222.347 19.9779C240.538 16.7505 248.166 15.8703 248.166 17.6307ZM189.486 29.9535C120.244 48.1443 41.9062 80.7117 -12.0794 113.573C-35.8448 127.949 -39.9524 130.003 -32.0306 123.548C-9.43877 104.771 67.1386 66.3351 119.07 47.2641C144.89 37.8753 191.247 25.5525 199.755 25.5525C202.983 25.8459 198.288 27.6063 189.486 29.9535ZM145.476 80.7117C143.129 82.1787 137.848 83.9391 133.74 85.1127C127.579 86.5797 127.872 85.9929 135.207 82.4721C144.596 78.0711 152.811 76.6041 145.476 80.7117ZM122.004 89.8071C119.657 91.2741 116.43 92.7411 114.669 92.7411C113.202 92.7411 113.789 91.2741 116.136 89.8071C118.484 88.3401 122.004 86.8731 123.471 86.8731C125.232 86.8731 124.352 88.3401 122.004 89.8071ZM107.334 95.6751C104.987 97.1421 101.76 98.6091 99.9994 98.6091C98.5324 98.6091 99.1192 97.1421 101.466 95.6751C103.814 94.2081 107.334 92.7411 108.801 92.7411C110.562 92.7411 109.682 94.2081 107.334 95.6751ZM55.9894 120.321C36.625 130.296 9.33884 146.14 -4.74437 155.235C-19.121 164.624 -30.5636 171.372 -30.5636 170.492C-30.5636 165.211 79.168 101.837 88.2634 101.543C90.0238 101.543 75.3538 110.052 55.9894 120.321ZM36.9184 120.614C36.9184 121.201 33.1042 123.842 28.1164 126.482C16.9672 132.057 16.3804 129.71 27.5296 123.842C36.625 118.854 36.9184 118.56 36.9184 120.614ZM11.9794 135.578C4.35103 141.446 -4.15756 146.14 -4.15756 144.38C-4.15756 142.913 14.3266 130.883 16.3804 130.883C17.2606 131.177 15.2068 133.23 11.9794 135.578ZM-33.4976 173.133C-33.4976 173.72 -35.8448 176.067 -38.4854 178.121C-43.1798 181.935 -43.4732 181.641 -39.659 176.947C-35.8448 172.253 -33.4976 170.786 -33.4976 173.133Z" fill="white" fill-opacity="0.12"/>
<path d="M287.408 103.316C283.815 103.945 268.101 106.752 252.613 109.548C179.648 122.403 99.8242 157.121 38.2067 202.959C16.3563 219.209 10.6374 222.66 15.3091 216.314C19.3473 210.905 25.6314 186.578 23.8403 182.36C23.0521 180.133 20.1977 177.326 17.4206 176.102C13.2439 174.04 11.6846 174.57 6.36836 181.627C-14.9188 209.406 -58.0132 296.034 -52.8003 300.765C-51.3787 302.055 -50.3425 304.724 -50.2321 306.984C-50.1216 309.245 -48.4519 310.976 -46.6447 310.888C-44.8375 310.799 -43.212 311.626 -43.1457 312.983C-43.0905 314.113 -41.9058 315.188 -40.3244 315.111C-38.969 315.045 -35.718 316.699 -33.3596 318.623C-29.3425 322.052 -26.8796 321.479 8.38244 310.919C28.9116 304.704 59.5511 296.862 76.3724 293.548C103.723 287.906 141.233 277.009 144.456 273.453C146.819 270.845 142.041 261.108 134.944 254.883C123.344 244.573 109.768 244.783 55.4748 255.14C49.4196 256.342 44.6756 256.574 44.6315 255.67C44.5983 254.992 55.0551 246.55 68.1787 237.071C95.0592 217.176 152.573 184.682 183.196 171.856C194.733 166.987 202.678 162.746 200.871 162.834C198.6 162.719 198.793 162.03 201.89 160.519C208.082 157.497 214.419 157.414 208.678 160.414C204.926 162.41 204.937 162.636 209.851 161.263C212.992 160.656 216.573 159.801 217.703 159.746C219.058 159.68 218.325 158.583 216.463 157.541C213.89 155.854 214.556 155.594 219.13 156.504C223.466 157.199 226.595 156.366 228.733 153.769C232.826 149.49 237.526 148.354 235.229 152.318C234.403 153.945 235.328 154.353 238.006 153.542C245.576 150.906 266.409 146.263 287.07 142.761C307.269 139.055 388.55 134.178 396.116 136.074C398.182 136.653 410.458 137.639 423.164 138.152C453.364 139.849 476.864 143.459 502.585 150.813C529.683 158.554 539.651 163.279 541.508 168.853C542.87 173.545 551.08 174.73 553.366 170.54C555.856 165.886 551.259 155.234 542.674 146.362C532.408 135.534 501.612 121.629 471.373 114.496C432.88 105.273 375.091 99.7119 332.577 100.883C311.546 101.457 291.226 102.676 287.408 103.316ZM257.551 117.917C257.618 119.274 228.041 125.704 226.845 124.403C226.372 123.973 231.038 122.159 237.76 120.697C251.645 117.526 257.485 116.561 257.551 117.917ZM212.834 129.619C160.206 146.24 101.115 174.279 60.7861 201.629C43.029 213.6 39.9437 215.337 45.8001 210.066C62.4879 194.748 120.002 162.253 159.269 145.606C178.795 137.401 214.024 126.162 220.575 125.842C223.071 125.947 219.523 127.48 212.834 129.619ZM180.859 170.384C179.107 171.602 175.107 173.157 171.989 174.216C167.3 175.578 167.504 175.115 173.019 172.126C180.082 168.382 186.352 166.943 180.859 170.384ZM163.13 178.274C161.378 179.493 158.948 180.745 157.592 180.811C156.463 180.866 156.859 179.714 158.611 178.495C160.363 177.277 163.019 176.014 164.149 175.959C165.504 175.892 164.882 177.056 163.13 178.274ZM152.055 183.347C150.303 184.566 147.873 185.818 146.518 185.884C145.389 185.939 145.785 184.787 147.537 183.568C149.289 182.35 151.945 181.087 153.074 181.032C154.43 180.965 153.807 182.129 152.055 183.347ZM113.45 204.268C98.9156 212.683 78.503 225.916 68.0019 233.454C57.2861 241.229 48.7298 246.859 48.6967 246.18C48.4979 242.111 130.6 189.154 137.592 188.586C138.948 188.52 127.973 195.627 113.45 204.268ZM98.7771 205.211C98.7991 205.664 95.9618 207.842 92.2208 210.064C83.8463 214.778 83.3062 212.992 91.6696 208.051C98.4849 203.866 98.6997 203.629 98.7771 205.211ZM80.1385 217.679C74.4859 222.487 68.1114 226.424 68.0451 225.068C67.9899 223.937 81.769 213.973 83.3504 213.896C84.0391 214.089 82.5351 215.749 80.1385 217.679ZM46.5371 248.325C46.5592 248.777 44.8403 250.674 42.8845 252.356C39.4136 255.471 39.1766 255.256 41.9367 251.496C44.6967 247.735 46.4487 246.517 46.5371 248.325Z" fill="white" fill-opacity="0.11"/>
<path d="M285.661 151.66C282.962 152.393 271.159 155.642 259.528 158.867C204.712 173.816 146.196 205.944 102.366 245.283C86.8232 259.229 82.6988 262.268 85.8199 257.093C88.5231 252.678 91.6108 233.658 89.9462 230.563C89.1876 228.918 86.8104 226.975 84.6036 226.236C81.2689 224.955 80.1155 225.469 76.5521 231.233C62.2502 253.944 35.4348 323.129 39.7484 326.375C40.9249 327.261 41.9038 329.226 42.1472 330.944C42.3906 332.663 43.7874 333.867 45.1613 333.673C46.5352 333.478 47.8347 333.995 47.9807 335.027C48.1024 335.886 49.0828 336.623 50.2849 336.453C51.3153 336.307 53.9143 337.342 55.8507 338.645C59.1596 340.981 61.0001 340.37 87.1853 329.825C102.425 323.635 125.272 315.491 137.884 311.777C158.374 305.545 186.252 294.585 188.463 291.642C190.084 289.484 185.751 282.385 179.893 278.13C170.31 271.073 159.957 272.188 119.224 283.917C114.684 285.261 111.078 285.772 110.981 285.084C110.908 284.569 118.299 277.386 127.654 269.225C146.782 252.141 188.417 223.28 210.9 211.332C219.368 206.802 225.137 203.005 223.763 203.199C222.021 203.27 222.12 202.731 224.378 201.359C228.895 198.616 233.728 198.107 229.555 200.801C226.83 202.59 226.854 202.761 230.511 201.367C232.866 200.683 235.541 199.778 236.4 199.657C237.43 199.511 236.793 198.724 235.298 198.06C233.214 196.952 233.705 196.707 237.261 197.08C240.622 197.306 242.953 196.45 244.403 194.316C247.227 190.761 250.737 189.562 249.261 192.752C248.745 194.052 249.48 194.298 251.468 193.491C257.064 190.945 272.646 185.934 288.178 181.806C303.342 177.555 365.07 168.113 370.981 169.029C372.599 169.325 382.043 169.215 391.782 168.713C414.964 167.884 433.164 168.988 453.323 172.795C474.562 176.799 482.506 179.706 484.317 183.833C485.686 187.32 492.039 187.648 493.49 184.287C495.064 180.558 490.805 172.746 483.625 166.576C475.023 159.028 450.527 150.577 426.933 147.256C396.889 142.921 352.368 142.739 319.984 146.624C303.964 148.542 288.532 150.903 285.661 151.66ZM263.888 164.911C264.034 165.942 241.9 172.933 240.895 172.023C240.503 171.728 243.939 170.015 248.97 168.426C259.35 165.027 263.742 163.88 263.888 164.911ZM230.563 176.993C191.542 193.387 148.389 218.957 119.516 242.679C106.797 253.07 104.563 254.614 108.665 250.176C120.331 237.305 161.966 208.444 190.782 192.969C205.116 185.329 231.228 174.269 236.208 173.564C238.122 173.468 235.52 174.888 230.563 176.993ZM209.012 210.372C207.76 211.426 204.815 212.894 202.508 213.922C199.023 215.292 199.146 214.924 203.148 212.254C208.278 208.898 212.965 207.358 209.012 210.372ZM196.028 217.645C194.776 218.699 193.008 219.826 191.978 219.971C191.119 220.093 191.341 219.185 192.593 218.131C193.845 217.077 195.785 215.926 196.643 215.805C197.674 215.659 197.28 216.591 196.028 217.645ZM187.928 222.298C186.676 223.352 184.908 224.479 183.878 224.625C183.019 224.746 183.241 223.838 184.493 222.784C185.745 221.731 187.684 220.579 188.543 220.458C189.574 220.312 189.18 221.244 187.928 222.298ZM159.918 240.99C149.411 248.438 134.754 259.98 127.265 266.475C119.628 273.166 113.491 278.067 113.418 277.552C112.979 274.458 171.952 228.242 177.252 227.316C178.282 227.17 170.401 233.37 159.918 240.99ZM148.78 242.743C148.828 243.086 146.815 244.949 144.114 246.909C138.051 251.099 137.513 249.772 143.552 245.411C148.462 241.736 148.609 241.54 148.78 242.743ZM135.423 253.574C131.445 257.644 126.854 261.099 126.708 260.068C126.586 259.208 136.408 250.63 137.61 250.46C138.149 250.559 137.118 251.932 135.423 253.574ZM111.919 279.342C111.968 279.685 110.789 281.255 109.413 282.677C106.982 285.3 106.786 285.152 108.629 282.086C110.472 279.021 111.724 277.967 111.919 279.342Z" fill="white" fill-opacity="0.11"/>
</g>
<defs>
<clipPath id="clip0_2061_6947">
<rect width="629" height="170" fill="white"/>
</clipPath>
</defs>
</svg>
