<svg width="180" height="60" viewBox="0 0 180 60" fill="none" xmlns="http://www.w3.org/2000/svg">
<g clip-path="url(#clip0_2042_6844)">
<rect width="180" height="60" fill="#FB4310"/>
<g clip-path="url(#clip1_2042_6844)">
<path opacity="0.4" d="M46.1242 0.990431L46.6383 -0.682366L50.4255 0.481454L49.9114 2.15425L46.1242 0.990431ZM51.3695 5.80984L54.0015 -2.75488L54.6504 -1.53024L51.8401 -2.39385L52.3747 -4.13356L56.4162 -2.89161L53.5375 6.47605L51.3695 5.80984ZM59.1302 8.37045C58.3629 8.13467 57.7335 7.73622 57.242 7.17508C56.7532 6.60502 56.4459 5.9052 56.32 5.07563C56.1942 4.24606 56.2889 3.31828 56.6042 2.2923C56.9194 1.26632 57.3621 0.445468 57.9321 -0.170257C58.5021 -0.785982 59.148 -1.18798 59.8699 -1.37626C60.5944 -1.57346 61.3403 -1.55416 62.1076 -1.31838C62.8837 -1.07986 63.5118 -0.676944 63.9916 -0.109627C64.4831 0.45151 64.7918 1.14686 64.9177 1.97644C65.0436 2.80601 64.9489 3.73378 64.6336 4.75977C64.3183 5.78575 63.8756 6.6066 63.3056 7.22233C62.7356 7.83805 62.0883 8.24451 61.3638 8.44171C60.6509 8.63273 59.9063 8.60897 59.1302 8.37045ZM59.6936 6.53707C60.0594 6.64948 60.4076 6.6442 60.7383 6.52126C61.0779 6.40105 61.3921 6.14121 61.6809 5.74174C61.9785 5.34501 62.2357 4.79424 62.4523 4.08944C62.6688 3.38463 62.7654 2.78452 62.7419 2.28909C62.7273 1.7964 62.6132 1.40496 62.3997 1.11478C62.1951 0.827333 61.91 0.627407 61.5442 0.515C61.1873 0.405335 60.8391 0.410606 60.4994 0.530812C60.1687 0.653759 59.8545 0.913598 59.5569 1.31033C59.2681 1.7098 59.0155 2.26194 58.7989 2.96674C58.5823 3.67155 58.4813 4.27029 58.4959 4.76298C58.5194 5.25841 58.6334 5.64985 58.838 5.93729C59.0515 6.22748 59.3367 6.4274 59.6936 6.53707ZM65.5992 10.1826L74.8747 2.78073L76.4672 3.27011L67.1917 10.672L65.5992 10.1826ZM67.7397 6.12438C67.2847 5.98456 66.9148 5.75859 66.6299 5.44647C66.3477 5.12543 66.163 4.74156 66.0757 4.29488C66.0001 3.84201 66.0431 3.35239 66.2049 2.82602C66.3666 2.29965 66.6046 1.8748 66.9188 1.55149C67.2418 1.23092 67.6103 1.01704 68.024 0.909843C68.4377 0.802648 68.8721 0.818963 69.3271 0.958786C69.7821 1.09861 70.1507 1.32904 70.4328 1.65008C70.715 1.97112 70.8952 2.35362 70.9736 2.79756C71.052 3.2415 71.0103 3.72666 70.8486 4.25303C70.6868 4.77941 70.4475 5.20871 70.1306 5.54095C69.8164 5.86426 69.4525 6.07951 69.0387 6.18671C68.6277 6.28498 68.1947 6.2642 67.7397 6.12438ZM68.0769 5.02703C68.3713 5.1175 68.6448 5.06971 68.8972 4.88366C69.1524 4.68869 69.3568 4.3414 69.5103 3.84179C69.6639 3.34218 69.6884 2.94452 69.584 2.64881C69.4823 2.34417 69.2843 2.14661 68.9899 2.05614C68.7044 1.96841 68.4296 2.02066 68.1655 2.21289C67.913 2.39894 67.71 2.74177 67.5565 3.24137C67.4057 3.73206 67.3812 4.12972 67.4828 4.43436C67.5934 4.74174 67.7914 4.93929 68.0769 5.02703ZM72.7392 12.494C72.2932 12.3569 71.9232 12.1309 71.6294 11.8161C71.3473 11.495 71.167 11.1125 71.0886 10.6686C71.013 10.2157 71.056 9.7261 71.2178 9.19972C71.3795 8.67335 71.6175 8.24851 71.9317 7.92519C72.2458 7.60188 72.6098 7.38663 73.0235 7.27943C73.4462 7.17498 73.8806 7.1913 74.3266 7.32838C74.7906 7.47094 75.1636 7.70274 75.4457 8.02379C75.7279 8.34483 75.9081 8.72732 75.9865 9.17126C76.0649 9.61521 76.0232 10.1004 75.8615 10.6267C75.6997 11.1531 75.4604 11.5824 75.1435 11.9146C74.8293 12.238 74.4654 12.4532 74.0516 12.5604C73.6406 12.6587 73.2032 12.6365 72.7392 12.494ZM73.0765 11.3966C73.3709 11.4871 73.6443 11.4393 73.8968 11.2533C74.152 11.0583 74.3563 10.711 74.5099 10.2114C74.6606 9.7207 74.6852 9.32303 74.5835 9.0184C74.4819 8.71376 74.2838 8.5162 73.9894 8.42573C73.7039 8.338 73.4291 8.39025 73.165 8.58248C72.9125 8.76853 72.7096 9.11136 72.556 9.61097C72.4025 10.1106 72.3766 10.5127 72.4782 10.8173C72.5916 11.1158 72.791 11.3089 73.0765 11.3966Z" fill="white"/>
</g>
<g clip-path="url(#clip2_2042_6844)">
<circle cx="23.3513" cy="54.1586" r="19" transform="rotate(0.116907 23.3513 54.1586)" fill="#0A2540"/>
<path d="M47.6932 54.4207C47.5844 54.1989 47.5281 53.955 47.5286 53.708C47.5291 53.461 47.5864 53.2174 47.6961 52.996L49.7559 48.8038C50.9028 46.4696 50.0036 43.6828 47.7088 42.4593L43.5872 40.2616C43.3688 40.1461 43.18 39.9819 43.0352 39.7818C42.8904 39.5816 42.7935 39.3509 42.7521 39.1074L41.9545 34.505C41.5104 31.9425 39.1444 30.2164 36.5691 30.5754L31.943 31.2201C31.6984 31.255 31.4491 31.2331 31.2144 31.1563C30.9796 31.0795 30.7656 30.9497 30.589 30.777L27.2386 27.5226C25.373 25.7105 22.4448 25.7044 20.5719 27.509L17.2082 30.7501C17.0308 30.922 16.8163 31.0508 16.5812 31.1267C16.3462 31.2026 16.0968 31.2234 15.8524 31.1876L11.2289 30.524C8.65425 30.1543 6.2821 31.8709 5.82753 34.4316L5.0112 39.0305C4.96876 39.2738 4.87097 39.5042 4.72538 39.7037C4.57979 39.9033 4.39028 40.0667 4.1715 40.1814L0.0409913 42.3622C-2.2588 43.5763 -3.1694 46.3596 -2.03207 48.6984L0.010576 52.8989C0.119309 53.1207 0.175598 53.3646 0.175094 53.6116C0.174589 53.8586 0.117306 54.1023 0.00766895 54.3236L-2.05221 58.5157C-3.19907 60.8499 -2.29984 63.6367 -0.00502196 64.8602L4.11655 67.0579C4.33489 67.1734 4.52375 67.3376 4.66855 67.5378C4.81335 67.7379 4.91021 67.9686 4.95166 68.2121L5.74922 72.8145C6.15352 75.1472 8.14971 76.7867 10.4478 76.7912C10.6741 76.7916 10.9038 76.7762 11.1347 76.744L15.7609 76.0993C16.0054 76.0644 16.2547 76.0862 16.4895 76.163C16.7243 76.2399 16.9382 76.3697 17.1149 76.5424L20.4652 79.7968C21.3982 80.7029 22.5963 81.1574 23.7958 81.1598C24.9949 81.1621 26.1956 80.7125 27.1318 79.8104L30.4955 76.5697C30.8585 76.2201 31.3525 76.061 31.8513 76.1321L36.4748 76.7957C39.0498 77.1654 41.4216 75.4488 41.8762 72.8881L42.6926 68.2893C42.7351 68.0459 42.8329 67.8156 42.9785 67.616C43.124 67.4165 43.3136 67.253 43.5323 67.1383L47.6628 64.9575C49.9626 63.7434 50.8732 60.9601 49.7359 58.6213L47.6932 54.4207ZM17.5366 39.3721C20.7433 39.3786 23.3469 41.9929 23.3404 45.1996C23.3339 48.4063 20.7196 51.0099 17.5129 51.0034C14.3061 50.9968 11.7025 48.3826 11.7091 45.1759C11.7156 41.9691 14.3299 39.3655 17.5366 39.3721ZM14.4821 65.2297C14.1717 65.5388 13.7655 65.6928 13.3596 65.692C12.9538 65.6912 12.5481 65.5355 12.2391 65.2251C11.621 64.6045 11.623 63.6002 12.2437 62.9821L33.2216 42.0896C33.8421 41.4715 34.8465 41.4735 35.4646 42.0942C36.0828 42.7148 36.0807 43.7191 35.4601 44.3372L14.4821 65.2297ZM30.1669 67.9474C26.9602 67.9409 24.3566 65.3266 24.3631 62.1199C24.3697 58.9132 26.9839 56.3096 30.1906 56.3161C33.3974 56.3227 36.001 58.9369 35.9945 62.1436C35.9879 65.3504 33.3736 67.954 30.1669 67.9474Z" fill="white"/>
<path d="M30.1844 59.4884C28.7268 59.4854 27.5385 60.6688 27.5355 62.1264C27.5325 63.584 28.7159 64.7722 30.1736 64.7752C31.6312 64.7782 32.8195 63.5948 32.8225 62.1372C32.8254 60.6796 31.642 59.4914 30.1844 59.4884ZM17.5304 42.5442C16.0728 42.5412 14.8845 43.7246 14.8816 45.1822C14.8786 46.6398 16.062 47.8282 17.5196 47.8312C18.9772 47.8341 20.1655 46.6507 20.1685 45.193C20.1714 43.7355 18.988 42.5472 17.5304 42.5442Z" fill="white"/>
</g>
<g opacity="0.3" clip-path="url(#clip3_2042_6844)">
<circle cx="177.96" cy="57.0253" r="6.93399" transform="rotate(0.116907 177.96 57.0253)" fill="#0A2540"/>
<path d="M186.844 57.1208C186.804 57.0399 186.783 56.9509 186.784 56.8607C186.784 56.7706 186.805 56.6817 186.845 56.6009L187.597 55.0709C188.015 54.2191 187.687 53.2021 186.849 52.7555L185.345 51.9535C185.266 51.9113 185.197 51.8514 185.144 51.7784C185.091 51.7053 185.056 51.6211 185.04 51.5323L184.749 49.8526C184.587 48.9175 183.724 48.2875 182.784 48.4185L181.096 48.6538C181.006 48.6666 180.916 48.6586 180.83 48.6306C180.744 48.6025 180.666 48.5552 180.602 48.4921L179.379 47.3045C178.698 46.6431 177.629 46.6409 176.946 47.2995L175.718 48.4823C175.654 48.545 175.575 48.5921 175.49 48.6197C175.404 48.6474 175.313 48.655 175.224 48.642L173.536 48.3998C172.597 48.2649 171.731 48.8914 171.565 49.8259L171.267 51.5042C171.252 51.593 171.216 51.6771 171.163 51.7499C171.11 51.8227 171.04 51.8824 170.961 51.9242L169.453 52.7201C168.614 53.1632 168.282 54.1789 168.697 55.0325L169.442 56.5654C169.482 56.6464 169.502 56.7354 169.502 56.8255C169.502 56.9157 169.481 57.0046 169.441 57.0854L168.689 58.6153C168.271 59.4671 168.599 60.4841 169.436 60.9307L170.941 61.7327C171.02 61.7749 171.089 61.8348 171.142 61.9078C171.195 61.9809 171.23 62.0651 171.245 62.154L171.536 63.8336C171.684 64.6849 172.412 65.2832 173.251 65.2849C173.334 65.285 173.418 65.2794 173.502 65.2676L175.19 65.0323C175.279 65.0196 175.37 65.0276 175.456 65.0556C175.542 65.0837 175.62 65.131 175.684 65.194L176.907 66.3817C177.247 66.7124 177.685 66.8783 178.122 66.8791C178.56 66.88 178.998 66.7159 179.34 66.3867L180.567 65.204C180.7 65.0764 180.88 65.0184 181.062 65.0443L182.75 65.2865C183.689 65.4214 184.555 64.7949 184.721 63.8604L185.019 62.1821C185.034 62.0933 185.07 62.0092 185.123 61.9364C185.176 61.8636 185.245 61.8039 185.325 61.7621L186.833 60.9662C187.672 60.5231 188.004 59.5074 187.589 58.6538L186.844 57.1208ZM175.838 51.6289C177.008 51.6313 177.959 52.5853 177.956 53.7556C177.954 54.9259 177 55.8761 175.83 55.8737C174.659 55.8713 173.709 54.9172 173.711 53.7469C173.714 52.5767 174.668 51.6265 175.838 51.6289ZM174.723 61.0655C174.61 61.1783 174.462 61.2345 174.314 61.2342C174.166 61.2339 174.018 61.1771 173.905 61.0639C173.679 60.8373 173.68 60.4708 173.907 60.2453L181.562 52.6206C181.789 52.395 182.155 52.3958 182.381 52.6223C182.607 52.8488 182.606 53.2153 182.379 53.4409L174.723 61.0655ZM180.448 62.0574C179.277 62.055 178.327 61.1009 178.329 59.9306C178.332 58.7603 179.286 57.8102 180.456 57.8125C181.627 57.8149 182.577 58.769 182.574 59.9393C182.572 61.1096 181.618 62.0597 180.448 62.0574Z" fill="white"/>
<path d="M180.454 58.9704C179.922 58.9693 179.488 59.4011 179.487 59.9331C179.486 60.465 179.918 60.8987 180.45 60.8998C180.982 60.9009 181.416 60.469 181.417 59.937C181.418 59.4051 180.986 58.9714 180.454 58.9704ZM175.836 52.7866C175.304 52.7856 174.87 53.2174 174.869 53.7494C174.868 54.2813 175.3 54.715 175.832 54.7161C176.364 54.7172 176.797 54.2853 176.799 53.7533C176.8 53.2214 176.368 52.7877 175.836 52.7866Z" fill="white"/>
</g>
<g clip-path="url(#clip4_2042_6844)">
<circle cx="153.458" cy="6.89092" r="7.47538" transform="rotate(-179.497 153.458 6.89092)" fill="#0A2540"/>
<path d="M143.883 6.72329C143.925 6.81085 143.946 6.90693 143.945 7.00412C143.945 7.10131 143.921 7.19701 143.878 7.28381L143.056 8.9277C142.599 9.843 142.945 10.9418 143.845 11.4293L145.46 12.3048C145.546 12.3509 145.62 12.4159 145.676 12.4951C145.733 12.5742 145.77 12.6652 145.786 12.7611L146.087 14.574C146.255 15.5833 147.182 16.2687 148.196 16.1343L150.018 15.8929C150.114 15.8798 150.212 15.8891 150.304 15.9199C150.396 15.9508 150.48 16.0024 150.549 16.0708L151.859 17.3601C152.588 18.078 153.74 18.0881 154.482 17.3831L155.814 16.1169C155.884 16.0497 155.968 15.9996 156.061 15.9704C156.154 15.9412 156.252 15.9336 156.348 15.9484L158.165 16.2217C159.177 16.374 160.115 15.7049 160.301 14.6986L160.634 12.8915C160.652 12.7958 160.691 12.7055 160.748 12.6273C160.806 12.5492 160.881 12.4854 160.968 12.4409L162.598 11.5938C163.506 11.1223 163.872 10.0297 163.431 9.10646L162.638 7.44844C162.596 7.36088 162.575 7.26479 162.576 7.1676C162.576 7.07041 162.6 6.97472 162.643 6.88792L163.465 5.24407C163.922 4.32877 163.576 3.22999 162.676 2.74251L161.06 1.86695C160.975 1.82091 160.901 1.75582 160.845 1.6767C160.788 1.59758 160.751 1.50654 160.735 1.41062L160.433 -0.402216C160.28 -1.32106 159.499 -1.97137 158.595 -1.97922C158.506 -1.98 158.416 -1.97454 158.325 -1.96249L156.503 -1.72109C156.407 -1.70801 156.309 -1.71726 156.217 -1.74811C156.125 -1.77896 156.041 -1.83058 155.972 -1.899L154.662 -3.18827C154.297 -3.54726 153.827 -3.72925 153.355 -3.73335C152.884 -3.73745 152.41 -3.56375 152.039 -3.2113L150.707 -1.94522C150.564 -1.80865 150.369 -1.74739 150.173 -1.77667L148.356 -2.05002C147.343 -2.20227 146.406 -1.5332 146.22 -0.526962L145.887 1.28022C145.869 1.37585 145.83 1.46621 145.772 1.54434C145.715 1.62246 145.64 1.68626 145.553 1.7308L143.922 2.57785C143.014 3.04942 142.649 4.14203 143.09 5.06522L143.883 6.72329ZM155.707 12.7239C154.446 12.7128 153.428 11.6774 153.439 10.4157C153.45 9.15412 154.486 8.13671 155.747 8.14779C157.009 8.15887 158.026 9.1943 158.015 10.4559C158.004 11.7175 156.969 12.7349 155.707 12.7239ZM156.977 2.55874C157.1 2.43797 157.261 2.37843 157.42 2.37983C157.58 2.38124 157.739 2.44354 157.86 2.56649C158.101 2.81232 158.098 3.20742 157.852 3.44897L149.543 11.6131C149.298 11.8547 148.902 11.8512 148.661 11.6054C148.419 11.3595 148.423 10.9644 148.669 10.7229L156.977 2.55874ZM150.814 1.4479C152.075 1.45898 153.093 2.49442 153.082 3.75603C153.071 5.01764 152.035 6.03506 150.774 6.02398C149.512 6.0129 148.495 4.97747 148.506 3.71585C148.517 2.45424 149.552 1.43683 150.814 1.4479Z" fill="white"/>
<path d="M150.785 4.77605C151.358 4.78108 151.829 4.31865 151.834 3.74519C151.839 3.17173 151.376 2.7011 150.803 2.69607C150.23 2.69103 149.759 3.15347 149.754 3.72693C149.749 4.30039 150.211 4.77102 150.785 4.77605ZM155.718 11.476C156.292 11.481 156.762 11.0186 156.767 10.4451C156.772 9.87166 156.31 9.40099 155.737 9.39595C155.163 9.39092 154.692 9.85336 154.687 10.4269C154.682 11.0003 155.145 11.4709 155.718 11.476Z" fill="white"/>
</g>
</g>
<defs>
<clipPath id="clip0_2042_6844">
<rect width="180" height="60" fill="white"/>
</clipPath>
<clipPath id="clip1_2042_6844">
<rect width="37" height="20.4091" fill="white" transform="translate(43.6743 -4.09717) rotate(0.151335)"/>
</clipPath>
<clipPath id="clip2_2042_6844">
<rect width="62.9288" height="44.4038" fill="white" transform="translate(0.266113 15.8369) rotate(0.116907)"/>
</clipPath>
<clipPath id="clip3_2042_6844">
<rect width="12.1603" height="14.2273" fill="white" transform="translate(168.127 46.7866) rotate(0.116907)"/>
</clipPath>
<clipPath id="clip4_2042_6844">
<rect width="21.6392" height="18.5441" fill="white" transform="translate(163.985 18) rotate(-179.497)"/>
</clipPath>
</defs>
</svg>
