<svg width="101" height="101" viewBox="0 0 101 101" fill="none" xmlns="http://www.w3.org/2000/svg">
<path d="M61 73C72.028 73 81 64.028 81 53C81 41.972 72.028 33 61 33C49.972 33 41 41.972 41 53C41 64.028 49.972 73 61 73ZM48.2594 52.9603C49.0532 52.1665 50.3392 52.1665 51.133 52.9603L56.3007 58.128L70.867 43.5616C71.6608 42.7678 72.9468 42.7678 73.7406 43.5616C74.5344 44.3554 74.5344 45.6414 73.7406 46.4352L57.7374 62.4384C57.3405 62.8353 56.8206 63.0337 56.3007 63.0337C55.7807 63.0337 55.2608 62.8353 54.8639 62.4384L48.2594 55.8339C47.4656 55.0401 47.4656 53.7541 48.2594 52.9603Z" fill="#105BFB"/>
<path d="M22.2877 37.6468C21.4336 37.9669 20.8972 38.8471 21.0165 39.7672C22.5063 51.8498 25.6845 63.1121 29.5579 69.9135C35.6561 80.6358 44.6742 90.2777 55.639 97.7792L59.8898 100.66C60.2275 100.88 60.6247 101 61.0021 101C61.3994 101 61.7768 100.88 62.1145 100.66L66.3455 97.7792C77.3103 90.2777 86.3483 80.6358 92.4464 69.9135C96.3 63.1121 99.498 51.8498 100.988 39.7672C101.087 38.8471 100.571 37.9669 99.6968 37.6468C94.4527 35.6864 91.2547 30.4053 91.9499 24.8042C92.0491 23.8839 91.5328 23.0037 90.6588 22.6837C67.2195 13.9419 62.8098 6.14025 62.7899 6.10033C62.4523 5.42013 61.7768 5 61.0419 5C60.3069 5 59.5919 5.40011 59.2542 6.06028C59.1946 6.14025 54.7849 13.9419 31.3456 22.6837C30.4716 23.0037 29.9353 23.8839 30.0545 24.8042C30.7497 30.4053 27.5517 35.6864 22.2877 37.6468ZM60.9986 29.3022C73.9681 29.3022 84.5208 39.9294 84.5208 52.9907C84.5208 66.052 73.9681 76.6792 60.9986 76.6792C48.028 76.6792 37.4764 66.052 37.4764 52.9907C37.4764 39.9294 48.028 29.3022 60.9986 29.3022Z" fill="#105BFB"/>
</svg>
