<svg width="101" height="101" viewBox="0 0 101 101" fill="none" xmlns="http://www.w3.org/2000/svg">
<path fill-rule="evenodd" clip-rule="evenodd" d="M86.0692 57.0905V46.9913C86.0692 45.7794 85.0856 44.7958 83.8736 44.7958H17.1253C15.9134 44.7958 14.9297 45.7794 14.9297 46.9913V99.6825C14.9297 100.403 14.3325 101 13.6123 101H6.58613C5.86596 101 5.2687 100.403 5.2687 99.6825V35.2413H5.3214L50.5 15.8509L95.6786 35.2064H95.7313V61.4638L95.3273 60.7788C93.9923 58.4956 91.5332 57.0905 88.8808 57.0905L86.0692 57.0905ZM72.895 29.428C72.895 28.7079 72.2977 28.1107 71.5775 28.1107H29.4207C28.7006 28.1107 28.1033 28.7079 28.1033 29.428V36.4535C28.1033 37.1736 28.7005 37.7708 29.4207 37.7708H71.5775C72.2977 37.7708 72.895 37.1736 72.895 36.4535V29.428ZM70.2601 30.7453V35.1362H30.7384V30.7453H70.2601ZM36.0254 93.9567C34.9012 93.8514 33.8473 93.3596 33.0394 92.5692C32.126 91.6559 31.6166 90.444 31.6166 89.1619V57.5472C31.6166 56.265 32.126 55.0355 33.0394 54.1399C33.9528 53.2265 35.1823 52.7172 36.447 52.7172H66.3075C67.5897 52.7172 68.8194 53.2266 69.7151 54.1399C70.6285 55.0356 71.1379 56.265 71.1379 57.5472V93.992H54.4337C54.2053 89.1093 50.1653 85.2102 45.2294 85.2102C40.2936 85.2102 36.2535 89.0917 36.0252 93.9745L36.0254 93.9567ZM39.96 81.6796H62.7944C63.5146 81.6796 64.1118 81.0824 64.1118 80.3622C64.1118 79.6421 63.5146 79.0449 62.7944 79.0449H39.96C39.2399 79.0449 38.6426 79.6421 38.6426 80.3622C38.6426 81.0824 39.2398 81.6796 39.96 81.6796ZM39.96 67.6286H62.7944C63.5146 67.6286 64.1118 67.0314 64.1118 66.3113C64.1118 65.5911 63.5146 64.994 62.7944 64.994H39.96C39.2399 64.994 38.6426 65.5911 38.6426 66.3113C38.6426 67.0314 39.2398 67.6286 39.96 67.6286ZM39.96 60.6031H62.7944C63.5146 60.6031 64.1118 60.0059 64.1118 59.2858C64.1118 58.5656 63.5146 57.9685 62.7944 57.9685H39.96C39.2399 57.9685 38.6426 58.5656 38.6426 59.2858C38.6426 60.0059 39.2398 60.6031 39.96 60.6031ZM39.96 74.6541H62.7944C63.5146 74.6541 64.1118 74.0569 64.1118 73.3368C64.1118 72.6166 63.5146 72.0195 62.7944 72.0195H39.96C39.2399 72.0195 38.6426 72.6166 38.6426 73.3368C38.6426 74.0569 39.2398 74.6541 39.96 74.6541ZM78.1822 93.9747H73.7733V61.0426C73.7733 60.3225 74.3705 59.7253 75.0907 59.7253H80.7994V71.581C80.7994 74.2506 82.96 76.411 85.6299 76.411H100.965C100.982 76.6042 101 76.7798 101 76.973V80.8019H92.6564C91.9363 80.8019 91.339 81.399 91.339 82.1192C91.339 82.8393 91.9362 83.4365 92.6564 83.4365H101V89.1447C101 90.4268 100.491 91.6563 99.5772 92.552C98.7692 93.3599 97.7154 93.8516 96.5912 93.9396C96.3453 89.0568 92.3228 85.1752 87.387 85.1752C82.4511 85.1752 78.411 89.0744 78.1827 93.9571L78.1822 93.9747ZM83.4343 59.7252H88.8796C90.6009 59.7252 92.1819 60.6385 93.0425 62.1138L99.8754 73.7762H85.6118C84.3998 73.7762 83.4162 72.7926 83.4162 71.5807V59.7251L83.4343 59.7252ZM99.138 20.4173C100.262 20.9091 101 22.0156 101 23.245V29.9544C101 30.9907 100.473 31.9566 99.6121 32.5187C98.7514 33.0807 97.6624 33.1861 96.7139 32.7821L50.4999 12.9702L4.28594 32.8001C3.33741 33.2041 2.24836 33.1162 1.38769 32.5366C0.526994 31.9746 0 31.0086 0 29.9724V23.263C0 22.0335 0.737744 20.927 1.86187 20.4353L48.6031 0.395184C49.8151 -0.131728 51.1852 -0.131728 52.4147 0.395184L99.156 20.4173H99.138ZM87.3869 87.8272C91.023 87.8272 93.9739 90.7779 93.9739 94.4136C93.9739 98.0493 91.023 101 87.3869 101C83.7509 101 80.7999 98.0493 80.7999 94.4136C80.7999 90.7779 83.7509 87.8272 87.3869 87.8272ZM45.2301 87.8272C48.8661 87.8272 51.8171 90.7779 51.8171 94.4136C51.8171 98.0493 48.8661 101 45.2301 101C41.594 101 38.6431 98.0493 38.6431 94.4136C38.6431 90.7779 41.594 87.8272 45.2301 87.8272Z" fill="#105BFB"/>
</svg>
