<svg width="101" height="101" viewBox="0 0 101 101" fill="none" xmlns="http://www.w3.org/2000/svg">
<g clip-path="url(#clip0_2046_6916)">
<path d="M42.3524 44.875H31.7374C32.2668 49.7989 34.1016 54.3372 36.888 58.1369C39.8906 54.3218 41.7948 49.7005 42.3524 44.875ZM69.8367 44.875H62.0283V69.2479C67.8137 68.6259 73.0667 66.202 77.2146 62.55C73.0393 57.5625 70.4468 51.3522 69.8367 44.875ZM75.7862 44.875C76.3441 49.7005 78.2481 54.3216 81.2508 58.1369C84.037 54.3372 85.872 49.7989 86.4014 44.875H75.7862ZM48.302 38.957H56.1103V14.584C50.3249 15.206 45.0721 17.63 40.9242 21.2818C45.0993 26.2695 47.6918 32.48 48.302 38.957ZM56.1103 44.875H48.302C47.6918 51.352 45.0993 57.5625 40.9242 62.5502C45.0721 66.2021 50.3251 68.6259 56.1103 69.2479V44.875ZM42.3524 38.957C41.7946 34.1315 39.8906 29.5103 36.888 25.695C34.1016 29.4948 32.2668 34.0331 31.7374 38.957H42.3524ZM62.0283 14.584V38.957H69.8367C70.4468 32.48 73.0393 26.2695 77.2144 21.2818C73.0665 17.63 67.8135 15.206 62.0283 14.584ZM75.7862 38.957H86.4012C85.8718 34.0331 84.037 29.4948 81.2506 25.695C78.2481 29.5105 76.3439 34.1315 75.7862 38.957Z" fill="#105BFB"/>
<path d="M59.0693 0C47.8658 0 37.3338 4.32544 29.4167 12.1786C21.4985 20.0327 17.0892 30.5282 17.0012 41.7313C16.9219 51.8112 20.6854 61.6909 27.8848 70.3019C34.806 78.5806 59.0748 101 59.0748 101C59.0748 101 82.454 79.2834 90.1525 70.4155C97.3396 62.1365 101.138 52.3344 101.138 42.0691C101.138 18.8722 82.2664 0 59.0693 0ZM59.0693 75.3257C40.6473 75.3257 25.6598 60.3382 25.6598 41.9162C25.6598 23.4941 40.6473 8.50649 59.0693 8.50649C77.4913 8.50649 92.4788 23.4939 92.4788 41.916C92.4788 60.338 77.4913 75.3257 59.0693 75.3257Z" fill="#105BFB"/>
</g>
<defs>
<clipPath id="clip0_2046_6916">
<rect width="101" height="101" fill="white"/>
</clipPath>
</defs>
</svg>
