<svg width="101" height="101" viewBox="0 0 101 101" fill="none" xmlns="http://www.w3.org/2000/svg">
<path d="M94.5843 16.741C94.072 16.2485 93.2933 16.2895 92.6528 16.9155L83.2567 26.079C81.9606 27.3463 79.8857 27.3155 78.6201 26.0175L74.0399 21.3126C72.7745 20.0145 72.8052 17.9366 74.1014 16.6692L83.4616 7.54167C84.312 6.71049 84.143 5.59707 83.0261 5.19174C76.0072 2.6264 68.056 4.25794 62.6 9.55285C57.4768 14.5758 55.5504 21.9076 57.3436 28.6796C57.8251 30.501 57.405 32.9535 56.0576 34.267L45.9136 44.1642L55.1559 53.6664L65.3666 43.7486C66.7191 42.4352 69.1835 42.0709 70.992 42.584C77.6624 44.4823 84.9535 42.7327 90.0554 37.7816C95.5065 32.461 97.3611 24.5287 94.9839 17.4176C94.8917 17.1354 94.7534 16.9097 94.5792 16.7455L94.5843 16.741ZM60.6217 54.5703C60.1145 54.0521 59.2846 54.0418 58.7671 54.5446L55.0219 58.1976L18.7601 20.9122C18.5142 20.6197 18.3093 20.2862 18.1966 19.9219L16.8031 15.5403C16.4034 14.2833 15.5222 13.2418 14.3541 12.6364L7.51465 9.10131C7.41218 9.04487 7.29947 9.02435 7.19189 9.01409L6.98183 8.7986L6.52074 9.25011L5.08105 10.6559L4.61996 11.1074L4.83002 11.3229C4.83514 11.4358 4.85564 11.5487 4.90687 11.6513L8.25749 18.588C8.8313 19.7732 9.85076 20.6814 11.0907 21.1123L15.425 22.6207C15.7887 22.749 16.1115 22.9593 16.3984 23.2159L52.6602 60.5013L48.9202 64.1492C48.4027 64.6572 48.3925 65.4883 48.8945 66.0066L51.5381 68.7259C52.1734 69.3775 53.0905 69.6699 53.9819 69.5006C56.067 69.1107 57.8757 70.9732 57.4299 73.0459L57.3991 73.1845C57.2301 73.9849 57.4657 74.8212 58.0395 75.4112L76.6675 94.5642C79.4084 97.381 83.7017 97.7607 86.8678 95.6725L86.9703 95.7802L88.0615 94.7181L88.246 94.5386L89.3372 93.4765L89.2348 93.3688C91.407 90.2595 91.1406 85.9498 88.3997 83.1278L69.7717 63.9748C69.1979 63.3847 68.3731 63.123 67.5687 63.2718L67.4252 63.2975C65.3401 63.6874 63.5315 61.825 63.9773 59.7522C64.1669 58.8594 63.9004 57.9359 63.2652 57.2843L60.6217 54.5703ZM69.9409 68.8595L85.9563 85.3239C86.5916 85.9754 86.5762 87.0119 85.9256 87.648C85.3313 88.2278 84.4194 88.2586 83.7841 87.766L67.4513 70.9733C66.9749 70.3217 67.0312 69.4136 67.6255 68.8338C68.2761 68.1976 69.3111 68.213 69.9463 68.8646L69.9409 68.8595ZM65.0841 73.2771L81.4169 90.0698C81.8934 90.7214 81.837 91.6296 81.2427 92.2093C80.5921 92.8455 79.5571 92.8301 78.9219 92.1785L62.9066 75.7142C62.2713 75.0626 62.2866 74.0261 62.9373 73.39C63.5316 72.8102 64.4435 72.7795 65.0788 73.272L65.0841 73.2771ZM38.8741 51.0295L5.98825 83.1018L5.98313 83.107C4.73818 84.323 4.02603 85.9853 4.00046 87.7246C3.97996 89.469 4.6511 91.1469 5.86024 92.3936C8.39114 94.9949 12.541 95.0564 15.1435 92.527L48.0963 60.5217L38.8741 51.0295ZM12.9093 85.5239C14.1696 86.822 14.144 88.8999 12.8478 90.1673C12.2228 90.7727 11.3877 91.1113 10.5168 91.0959C9.64586 91.0857 8.81586 90.7265 8.21136 90.1057C6.94593 88.8076 6.97666 86.7246 8.27284 85.4623C8.89276 84.8518 9.73299 84.5183 10.6039 84.5285C11.4748 84.5439 12.2997 84.8979 12.9093 85.5239Z" fill="#105BFB"/>
</svg>
