<svg width="101" height="101" viewBox="0 0 101 101" fill="none" xmlns="http://www.w3.org/2000/svg">
<path d="M18.0124 89.7338H73.2108L72.993 88.4555C72.941 88.2464 72.941 88.0231 72.993 87.814L74.7873 82.8532L78.423 72.9124L86.9063 49.4481V47.8515C86.8731 46.521 85.808 45.4518 84.4825 45.4186H23.3433V79.2605C23.3386 83.4089 21.3593 87.3009 18.0124 89.7338ZM39.4388 60.6385C39.4388 59.9638 39.6139 59.3079 39.9453 58.7283C40.2767 58.1581 40.7501 57.6829 41.3182 57.3503L53.2573 50.4507L53.2526 50.4554C54.4361 49.7712 55.8894 49.7712 57.0729 50.4554L68.9741 57.355L68.9694 57.3503C69.5374 57.6829 70.0108 58.1581 70.3422 58.7283C70.6736 59.308 70.8487 59.9637 70.8487 60.6385V74.4429C70.8487 75.8114 70.1244 77.0754 68.9457 77.7644L57.035 84.6736C56.4622 85.0109 55.8089 85.1867 55.1414 85.1867C54.4739 85.182 53.8207 85.0062 53.2431 84.6736L41.3182 77.7644C40.1347 77.0707 39.4104 75.8019 39.4152 74.4334L39.4388 60.6385ZM0.00473399 71.5866L0 44.1166C0.194098 38.4762 4.80494 34 10.429 34C16.0531 34 20.6686 38.4762 20.858 44.1166V71.6438C18.4342 68.2986 14.5571 66.3171 10.429 66.3171C6.30576 66.3171 2.42853 68.2986 0 71.6438L0.00473399 71.5866ZM20.8628 79.2132H20.858C20.8817 84.5115 16.9572 88.9925 11.7214 89.6481V68.8735C16.9383 69.534 20.8533 73.9816 20.858 79.2609L20.8628 79.2132ZM41.9147 74.3474L41.91 61.3033L53.9438 68.2742V82.1784L42.5869 75.6114C42.1656 75.3691 41.9052 74.9177 41.91 74.433L41.9147 74.3474ZM56.4575 68.1938L68.4534 61.2229V74.3619L68.4486 74.3571C68.4676 74.8561 68.2119 75.3217 67.7859 75.5736L56.4527 82.1405L56.4575 68.1938ZM74.8117 98.9423C74.8496 99.1608 74.9443 99.3699 75.091 99.5362C74.6981 100.439 73.8081 101.014 72.8282 101H6.2306C2.79849 100.99 0.0148781 98.1962 0.0148781 94.7464V79.2609C0.0432814 73.9721 3.98664 69.534 9.21296 68.8973V90.9261C9.17509 91.4536 9.48753 91.9478 9.97514 92.1426C10.1361 92.2044 10.3018 92.2376 10.4722 92.2376H73.6522L74.8117 98.9423ZM100.773 42.3623L88.8245 75.2919L81.2359 72.5311L93.1608 39.5918C93.4874 38.6605 94.1786 37.905 95.0685 37.4915C95.9633 37.0781 96.9858 37.0448 97.8994 37.4012L98.5764 37.6435H98.5811C99.4995 37.9714 100.252 38.6557 100.664 39.5443C101.071 40.4328 101.109 41.4452 100.773 42.3623ZM80.3889 74.8697L87.9775 77.6447L87.0922 80.0777L85.2128 85.2618L77.6242 82.4868L80.3889 74.8697ZM55.1802 66.098L43.1558 59.1176L54.5126 52.5506V52.5459C54.9292 52.3178 55.431 52.3178 55.8477 52.5459L67.1809 59.1128L55.1802 66.098ZM76.7665 84.8436L84.3551 87.6186L83.0816 91.1349L76.899 96.3524L75.5072 88.3504L76.7665 84.8436Z" fill="#105BFB"/>
</svg>
