<svg width="101" height="101" viewBox="0 0 101 101" fill="none" xmlns="http://www.w3.org/2000/svg">
<g clip-path="url(#clip0_2046_6914)">
<path fill-rule="evenodd" clip-rule="evenodd" d="M50.3595 83.1328H76.0545C76.238 83.1328 76.3787 82.9688 76.3787 82.8086V78.5547C76.3787 78.3711 76.2146 78.2305 76.0545 78.2305H50.3595C50.1759 78.2305 50.0352 78.3945 50.0352 78.5547V82.8086C50.0313 82.9727 50.1759 83.1328 50.3595 83.1328Z" fill="#105BFB"/>
<path fill-rule="evenodd" clip-rule="evenodd" d="M63.2189 101.141C68.4884 101.141 72.8439 97.0898 73.3319 91.9453H53.0859C53.5742 97.0898 57.9257 101.141 63.2189 101.141Z" fill="#105BFB"/>
<path fill-rule="evenodd" clip-rule="evenodd" d="M67.8985 39.8594C67.8985 40.4101 67.4727 40.8359 66.9219 40.8359H64.1953V45.0664H72.1289V37.1328H67.8984L67.8985 39.8594Z" fill="#105BFB"/>
<path fill-rule="evenodd" clip-rule="evenodd" d="M58.5156 32.4326C58.5156 31.8819 58.9414 31.4561 59.4922 31.4561H62.2188V27.2217H54.2852V35.1553H58.5157L58.5156 32.4326Z" fill="#105BFB"/>
<path fill-rule="evenodd" clip-rule="evenodd" d="M60.4688 38.8828H65.9218V33.4297H60.4688V38.8828Z" fill="#105BFB"/>
<path fill-rule="evenodd" clip-rule="evenodd" d="M64.1953 31.457H66.9219C67.4727 31.457 67.8985 31.9062 67.8985 32.4336V35.1602H72.129V27.2266H64.1954L64.1953 31.457Z" fill="#105BFB"/>
<path fill-rule="evenodd" clip-rule="evenodd" d="M58.5157 39.8594V37.1328H54.2852V45.0664H62.2188V40.8359H59.4922C58.9648 40.8359 58.5157 40.3868 58.5157 39.8594Z" fill="#105BFB"/>
<path fill-rule="evenodd" clip-rule="evenodd" d="M54.5508 60.2266C54.5508 61.2657 55.3867 62.0977 56.4219 62.0977C57.461 62.0977 58.293 61.2617 58.293 60.2266C58.293 59.1875 57.457 58.3555 56.4219 58.3555C55.4063 58.3516 54.5508 59.207 54.5508 60.2266Z" fill="#105BFB"/>
<path fill-rule="evenodd" clip-rule="evenodd" d="M71.8633 60.2266C71.8633 59.1875 71.0274 58.3555 69.9922 58.3555C68.9531 58.3555 68.1211 59.1914 68.1211 60.2266C68.1211 61.2657 68.957 62.0977 69.9922 62.0977C71.0078 62.1172 71.8633 61.2617 71.8633 60.2266Z" fill="#105BFB"/>
<path fill-rule="evenodd" clip-rule="evenodd" d="M98.0504 39.6562C96.7262 39.6562 95.5699 40.4296 95.0192 41.5703H84.7852C84.9883 40.3711 85.0704 39.0273 85.0704 37.4414C85.0704 33.6992 84.1133 30.1562 82.4454 27.0664L87.9376 21.5742C88.2852 21.6953 88.6485 21.7578 89.0353 21.7578C90.8869 21.7578 92.4142 20.2539 92.4142 18.3789C92.4142 16.5273 90.9103 15 89.0353 15C87.1837 15 85.6564 16.5039 85.6564 18.3789C85.6564 18.7656 85.7189 19.1328 85.84 19.4766L80.8126 24.5039C76.8243 19.0937 70.4147 15.5703 63.2147 15.5703C55.992 15.5703 49.5817 19.0898 45.6167 24.5039L40.5893 19.4766C40.7104 19.1289 40.7729 18.7657 40.7729 18.3789C40.7729 16.5273 39.269 15 37.394 15C35.5424 15 34.0151 16.5039 34.0151 18.3789C34.0151 20.2305 35.519 21.7578 37.394 21.7578C37.7808 21.7578 38.1479 21.6953 38.4917 21.5742L43.9839 27.0664C42.3159 30.1602 41.3589 33.6797 41.3589 37.4414C41.3589 39.0273 41.4214 40.3711 41.6441 41.5703H31.4101C30.8593 40.4531 29.7226 39.6562 28.3789 39.6562C26.5273 39.6562 25 41.1601 25 43.0351C25 44.8867 26.5039 46.414 28.3789 46.414C29.7031 46.414 30.8594 45.6406 31.4101 44.4999H42.5191C43.0269 45.6796 43.7808 46.8788 44.8199 48.2655C47.1207 51.3358 49.8668 55.0194 50.9254 66.4535H40.5074C39.9566 65.3363 38.8199 64.5394 37.4762 64.5394C35.6246 64.5394 34.0973 66.0433 34.0973 67.9183C34.0973 69.7699 35.6012 71.2972 37.4762 71.2972C38.8004 71.2972 39.9567 70.5238 40.5074 69.3831H51.1484C51.289 71.7034 51.3515 73.8401 51.3711 76.2815H58.8594V65.6405L57.5977 63.91C57.2305 64.0116 56.8633 64.0741 56.4571 64.0741C54.3399 64.0741 52.6329 62.3632 52.6329 60.2499C52.6329 58.1327 54.3438 56.4257 56.4571 56.4257C58.5743 56.4257 60.2813 58.1366 60.2813 60.2499C60.2813 61.2655 59.8945 62.1835 59.2422 62.8749L60.6055 64.7655C60.7266 64.9295 60.789 65.1327 60.789 65.3358V76.2808H65.6524V65.3358C65.6524 65.1327 65.7148 64.9295 65.8359 64.7655L67.1992 62.8749C66.5469 62.1835 66.1601 61.2694 66.1601 60.2499C66.1601 58.1327 67.871 56.4257 69.9843 56.4257C72.1015 56.4257 73.8085 58.1366 73.8085 60.2499C73.8085 62.3671 72.0976 64.0741 69.9843 64.0741C69.5976 64.0741 69.2109 64.0116 68.8437 63.91L67.582 65.6405V76.2815H75.0703C75.0899 73.8401 75.1719 71.7034 75.293 69.3831H85.914C86.4648 70.5003 87.6015 71.2972 88.9452 71.2972C90.7968 71.2972 92.3241 69.7933 92.3241 67.9183C92.3241 66.0667 90.8202 64.5394 88.9452 64.5394C87.621 64.5394 86.4647 65.3129 85.914 66.4535H75.496C76.5351 55.0195 79.2812 51.3365 81.6015 48.2655C82.6406 46.8827 83.371 45.6835 83.9023 44.4999H95.0113C95.5621 45.6171 96.6988 46.414 98.0425 46.414C99.8941 46.414 101.421 44.9101 101.421 43.0351C101.406 41.1601 99.902 39.6562 98.0504 39.6562ZM76.9294 44.5781H74.0817V46.0429C74.0817 46.5937 73.6559 47.0195 73.1051 47.0195H71.6403V49.8672C71.6403 51.1484 69.6872 51.1484 69.6872 49.8672V47.0195H66.6755V49.8672C66.6755 51.1484 64.7224 51.1484 64.7224 49.8672V47.0195H61.7107V49.8672C61.7107 51.1484 59.7576 51.1484 59.7576 49.8672V47.0195H56.7459V49.8672C56.7459 51.1484 54.7928 51.1484 54.7928 49.8672V47.0195H53.328C52.7773 47.0195 52.3515 46.5937 52.3515 46.0429V44.5781H49.5038C48.2226 44.5781 48.2226 42.625 49.5038 42.625H52.3515V39.6133H49.5038C48.2226 39.6133 48.2226 37.6602 49.5038 37.6602H52.3515V34.6485H49.5038C48.2226 34.6485 48.2226 32.6954 49.5038 32.6954H52.3515V29.6837H49.5038C48.2226 29.6837 48.2226 27.7306 49.5038 27.7306H52.3515V26.2658C52.3515 25.715 52.7773 25.2893 53.328 25.2893H54.7928V22.4416C54.7928 21.1604 56.7459 21.1604 56.7459 22.4416V25.2893H59.7576V22.4416C59.7576 21.1604 61.7107 21.1604 61.7107 22.4416V25.2893H64.7224V22.4416C64.7224 21.1604 66.6755 21.1604 66.6755 22.4416V25.2893H69.6872V22.4416C69.6872 21.1604 71.6403 21.1604 71.6403 22.4416V25.2893H73.1051C73.6559 25.2893 74.0817 25.715 74.0817 26.2658V27.7306H76.9294C78.2106 27.7306 78.2106 29.6837 76.9294 29.6837H74.0817V32.6954H76.9294C78.2106 32.6954 78.2106 34.6485 76.9294 34.6485H74.0817V37.6602H76.9294C78.2106 37.6602 78.2106 39.6133 76.9294 39.6133H74.0817V42.625H76.9294C78.2106 42.625 78.2106 44.5781 76.9294 44.5781Z" fill="#105BFB"/>
<path fill-rule="evenodd" clip-rule="evenodd" d="M89.9721 84.1719C88.6479 84.1719 87.4916 84.9453 86.9409 86.086H76.4019V85.4336C76.4019 85.25 76.2379 85.1094 76.0777 85.1094H50.3827C50.1991 85.1094 50.0585 85.2735 50.0585 85.4336V86.086H39.5195C38.9687 84.9688 37.832 84.1719 36.4883 84.1719C34.6367 84.1719 33.1094 85.6758 33.1094 87.5508C33.1094 89.4024 34.6133 90.9297 36.4883 90.9297C37.8125 90.9297 38.9688 90.1562 39.5195 89.0156H50.0315V89.6679C50.0315 89.8515 50.1955 89.9921 50.3557 89.9921H76.0507C76.2343 89.9921 76.3749 89.8281 76.3749 89.6679V89.0156H86.9139C87.4647 90.1328 88.6014 90.9297 89.9451 90.9297C91.7967 90.9297 93.324 89.4258 93.324 87.5508C93.3279 85.6758 91.8237 84.1719 89.9721 84.1719Z" fill="#105BFB"/>
</g>
<defs>
<clipPath id="clip0_2046_6914">
<rect width="101" height="101" fill="white"/>
</clipPath>
</defs>
</svg>
