<svg width="90" height="90" viewBox="0 0 90 90" fill="none" xmlns="http://www.w3.org/2000/svg">
<path fill-rule="evenodd" clip-rule="evenodd" d="M26.609 12.4505C21.0376 13.8946 15.6282 14.64 10 15.2989V43.2166C10 68.6027 29.0033 75.5274 44.7465 84.252C60.4897 75.5274 79.493 68.6027 79.493 43.2166V15.2989C66.7224 13.8048 56.6488 11.8582 44.7465 5C38.3461 8.6869 32.4248 10.9464 26.609 12.4505ZM56.0578 31.0115C62.3062 37.3072 62.3062 47.5127 56.0578 53.8087C46.0045 63.9347 28.7488 56.7237 28.7488 42.4084C28.7488 28.093 46.0045 20.8821 56.0578 31.0115ZM44.7465 23.0187C61.8374 23.0187 70.4466 43.9359 58.3532 56.1208C46.259 68.3066 25.5031 59.6281 25.5031 42.4077C25.5031 31.6999 34.1191 23.0179 44.7473 23.0179L44.7465 23.0187ZM51.9692 34.5153C53.4785 32.9946 55.7771 35.3073 54.2644 36.8279L40.8894 50.3008C40.2553 50.9397 39.2282 50.9397 38.5941 50.3008L33.6667 45.3361C32.1574 43.8154 34.4527 41.4995 35.962 43.0235L39.7401 46.8303L51.9692 34.5153Z" fill="#105BFB"/>
</svg>
