<svg width="1920" height="1226" viewBox="0 0 1920 1226" fill="none" xmlns="http://www.w3.org/2000/svg">
<g clip-path="url(#clip0_0_197)">
<mask id="mask0_0_197" style="mask-type:alpha" maskUnits="userSpaceOnUse" x="0" y="0" width="1921" height="1226">
<rect width="1921" height="1226" fill="#1354EB"/>
</mask>
<g mask="url(#mask0_0_197)">
<path d="M456.08 686.313L-229.077 1315.07L-266.649 1392.26L-301.377 1028.51L379.315 473.035L424.143 445.494C452.083 428.328 484.015 418.869 516.654 418.09L529.621 417.781C566.378 416.904 602.037 429.578 629.808 453.39C651.263 471.787 666.986 495.96 675.141 523.091L678.67 534.831C686.299 560.211 688.567 586.952 685.329 613.363L677.087 680.602L646.373 822.509L609.792 963.102L582.312 1127.49C578.565 1174.15 570.022 1283.37 560.775 1405.26C551.529 1527.15 555.76 1537.1 541.915 1522.87L324.085 1528.07C329.553 1500.29 338.252 1413.16 354.803 1279.92C371.354 1146.67 411.458 1037.54 420.186 963.102L461.062 688.927C461.479 686.134 458.168 684.397 456.08 686.313Z" fill="#2A65ED"/>
<path d="M1742.33 553.468L2466.35 1016.41L2498.86 1060.03L2243.57 1238.09L1530.17 714.789L1491.75 678.567C1465.25 653.583 1443.97 622.847 1429.17 588.162L1416.08 557.506C1403.36 527.722 1399.08 494.129 1403.73 460.711L1405.26 449.711C1409.36 420.26 1421.88 392.398 1441.07 370.059C1458.44 349.836 1480.51 335.02 1504.71 327.342L1553.27 311.935L1672.38 290.44L1793.1 275.812L1927.51 242.134C1963.88 228.181 2048.89 195.28 2143.65 158.246C2238.4 121.212 2243.93 112.788 2239.46 133.283L2339.38 367.362C2316.3 372.161 2247.66 396.366 2141.23 429.867C2033.97 463.632 1947.24 495.918 1888.02 515.193L1743.48 547.729C1740.85 548.32 1740.11 552.049 1742.33 553.468Z" fill="#2A65ED"/>
</g>
</g>
<defs>
<clipPath id="clip0_0_197">
<rect width="1920" height="1226" fill="white"/>
</clipPath>
</defs>
</svg>
