<svg width="81" height="81" viewBox="0 0 81 81" fill="none" xmlns="http://www.w3.org/2000/svg">
<g clip-path="url(#clip0_0_541)">
<rect width="81" height="81" rx="10.5" fill="white"/>
<path fill-rule="evenodd" clip-rule="evenodd" d="M57.3045 35.2241C57.3232 35.2361 57.3399 35.248 57.3565 35.262L60.7962 37.7801C61.1692 38.0532 61.6275 38.1569 62.0629 38.101C62.4963 38.0452 62.9088 37.8319 63.1942 37.475C63.4797 37.1181 63.588 36.6795 63.5297 36.2628C63.4713 35.8481 63.2484 35.4534 62.8755 35.1802L41.2246 19.334C41.0558 19.2104 40.8704 19.1207 40.6767 19.0669C40.4767 19.0111 40.2662 18.9891 40.0579 19.0051C40.0329 19.0071 40.0058 19.0071 39.9829 19.0051C39.7766 18.9911 39.5683 19.0111 39.3704 19.0669C39.1787 19.1207 38.9912 19.2104 38.8225 19.334L17.1695 35.1782C16.7965 35.4513 16.5736 35.8461 16.5153 36.2608C16.4569 36.6775 16.5653 37.1161 16.8507 37.473C17.1361 37.8298 17.5486 38.0432 17.982 38.099C18.4174 38.1548 18.8758 38.0512 19.2487 37.778L22.6884 35.2599C22.705 35.246 22.7217 35.234 22.7405 35.2221L39.7325 22.7873C39.9096 22.6578 40.1513 22.6657 40.318 22.7933L57.3041 35.2224L57.3045 35.2241ZM38.5598 32.8137V34.0637H37.2535V32.8137H38.5598ZM36.7743 31.9005H39.0369C39.3015 31.9005 39.514 32.1059 39.514 32.3571V34.5223C39.514 34.7755 39.2994 34.9788 39.0369 34.9788H36.7743C36.5097 34.9788 36.2972 34.7735 36.2972 34.5223V32.3571C36.2972 32.1039 36.5118 31.9005 36.7743 31.9005ZM42.7911 32.8137V34.0637H41.4848V32.8137H42.7911ZM41.0056 31.9005H43.2681C43.5327 31.9005 43.7452 32.1059 43.7452 32.3571V34.5223C43.7452 34.7755 43.5307 34.9788 43.2681 34.9788H41.0056C40.741 34.9788 40.5285 34.7735 40.5285 34.5223V32.3571C40.5285 32.1039 40.743 31.9005 41.0056 31.9005ZM38.5597 36.8649V38.115H37.2534V36.8649H38.5597ZM36.7742 35.9498H39.0367C39.3013 35.9498 39.5138 36.1551 39.5138 36.4063V38.5715C39.5138 38.8247 39.2993 39.0281 39.0367 39.0281H36.7742C36.5096 39.0281 36.2971 38.8227 36.2971 38.5715V36.4063C36.2971 36.1531 36.5117 35.9498 36.7742 35.9498ZM42.7909 36.8649V38.115H41.4846V36.8649H42.7909ZM41.0054 35.9498H43.268C43.5326 35.9498 43.7451 36.1551 43.7451 36.4063V38.5715C43.7451 38.8247 43.5305 39.0281 43.268 39.0281H41.0054C40.7408 39.0281 40.5283 38.8227 40.5283 38.5715V36.4063C40.5283 36.1531 40.7429 35.9498 41.0054 35.9498ZM52.7391 43.8527H42.8785V50.2224H52.7391V43.8527ZM42.399 42.9376H53.2159C53.4805 42.9376 53.693 43.1429 53.693 43.3941V50.679C53.693 50.9322 53.4785 51.1355 53.2159 51.1355H42.399C42.1345 51.1355 41.9219 50.9302 41.9219 50.679V43.3941C41.9219 43.1409 42.1365 42.9376 42.399 42.9376ZM28.8839 22.5116V25.4544L25.3505 28.0402V22.5116H28.8839ZM24.1671 21.5965V19.5051H30.067V21.5965H24.1671ZM41.3991 59.972H21.9798V61.6826H40.9826C41.0117 61.0765 41.1574 60.4983 41.3991 59.972ZM42.6179 59.7407C42.6075 59.7586 42.5971 59.7746 42.5825 59.7905C42.1742 60.3926 41.9346 61.1184 41.9346 61.8979C41.9346 61.9677 41.9367 62.0374 41.9408 62.1072V62.1192C41.9471 62.2069 41.9554 62.2926 41.9658 62.3764C41.9721 62.4183 41.9763 62.4581 41.9825 62.5H64.4521C64.4583 62.4601 64.4646 62.4183 64.4688 62.3764C64.4896 62.2209 64.5 62.0594 64.5 61.8959C64.5 60.8571 64.075 59.9141 63.3916 59.2323C62.7125 58.5544 61.7749 58.1337 60.7457 58.1337H59.7145V58.1317C59.4811 58.1317 59.2769 57.9683 59.2415 57.739C59.1457 57.1109 58.8248 56.5567 58.3644 56.162C57.9873 55.839 57.5123 55.6237 56.9915 55.5638C56.9873 55.5638 56.9811 55.5618 56.9769 55.5618C56.8831 55.5519 56.7894 55.5459 56.6915 55.5459C56.4019 55.5459 56.1248 55.5937 55.8706 55.6795C55.6018 55.7692 55.3539 55.9028 55.1331 56.0722C55.1206 56.0822 55.106 56.0922 55.0935 56.1001C54.8726 56.2357 54.5768 56.1739 54.4351 55.9626C54.0497 55.3904 53.5288 54.9179 52.9184 54.5929C52.3329 54.2819 51.6641 54.1044 50.9516 54.1044C49.8995 54.1044 48.937 54.4912 48.2016 55.1312C47.4578 55.7771 46.9452 56.6783 46.7973 57.6991C46.7848 57.9403 46.5765 58.1317 46.3202 58.1317H45.6911C44.6618 58.1317 43.7243 58.5524 43.0452 59.2302C42.8889 59.3857 42.7472 59.5552 42.6201 59.7346L42.6179 59.7407ZM27.9988 59.0569H37.2593V43.8548H27.9988V59.0569ZM23.4986 59.0569C23.4882 58.9851 23.482 58.9133 23.482 58.8375V35.8321L40.0222 23.7281L56.5625 35.8321V54.639C56.2125 54.651 55.8729 54.7148 55.5542 54.8245C55.3438 54.8962 55.1438 54.986 54.9521 55.0916C54.5208 54.5653 53.9875 54.1247 53.3791 53.8017C52.6541 53.4149 51.8249 53.1956 50.9478 53.1956C49.6498 53.1956 48.4623 53.6741 47.556 54.4616C46.7414 55.1694 46.1539 56.1324 45.9143 57.223H45.6872C44.3892 57.223 43.208 57.7513 42.3537 58.6026C42.21 58.7442 42.0767 58.8957 41.9537 59.0572H38.214V43.3963C38.214 43.1431 37.9994 42.9397 37.7369 42.9397H27.5201C27.2555 42.9397 27.043 43.1451 27.043 43.3963V59.0572L23.4986 59.0569Z" fill="#266AFD"/>
</g>
<defs>
<clipPath id="clip0_0_541">
<rect width="81" height="81" fill="white"/>
</clipPath>
</defs>
</svg>
