<svg width="81" height="81" viewBox="0 0 81 81" fill="none" xmlns="http://www.w3.org/2000/svg">
<g clip-path="url(#clip0_0_300)">
<rect width="81" height="81" rx="10.6296" fill="white"/>
<path d="M45.3814 22.9764C45.6237 23.2187 45.7595 23.5454 45.7595 23.8886C45.7595 24.2319 45.6237 24.5586 45.3814 24.8009L40.7834 29.3989C40.2786 29.9037 39.4618 29.9037 38.9589 29.3989C38.4541 28.8941 38.4541 28.0773 38.9589 27.5744L41.3542 25.179H31.7252C29.9264 25.179 28.4616 26.6438 28.4616 28.4444V35.5276C28.4616 36.2416 27.8852 36.818 27.1712 36.818C26.4572 36.818 25.8809 36.2416 25.8809 35.5276V28.4444C25.8809 25.2212 28.5038 22.5985 31.7254 22.5985H41.3545L38.9591 20.2031C38.4543 19.6983 38.4543 18.8815 38.9591 18.3786C39.4639 17.8738 40.2807 17.8738 40.7836 18.3786L45.3814 22.9764Z" fill="#266AFD"/>
<path d="M39.4056 57.2528C39.1633 57.0105 39.0275 56.6838 39.0275 56.3405C39.0275 55.9972 39.1633 55.6705 39.4056 55.4283L44.0036 50.8302C44.5084 50.3255 45.3252 50.3255 45.8281 50.8302C46.3329 51.335 46.3329 52.1518 45.8281 52.6547L43.4327 55.0501H53.6454C55.4442 55.0501 56.9089 53.5854 56.9089 51.7847V44.1913C56.9089 43.4773 57.4853 42.9009 58.1993 42.9009C58.9133 42.9009 59.4897 43.4773 59.4897 44.1913V51.7847C59.4897 55.0079 56.8667 57.6307 53.6452 57.6307H43.4325L45.8279 60.0261C46.3326 60.5308 46.3326 61.3476 45.8279 61.8506C45.3231 62.3553 44.5063 62.3553 44.0034 61.8506L39.4056 57.2528Z" fill="#266AFD"/>
<path d="M31.6265 50.1404C31.386 50.067 31.1272 50.2083 31.0446 50.4451L28.5446 57.5983L27.9701 52.9232H28.3519C28.5831 52.9232 28.7685 52.7342 28.7685 52.5047V51.2199C28.7685 50.9886 28.5813 50.8032 28.3519 50.8032H26.2557C26.0263 50.8032 25.8391 50.9886 25.8391 51.2199V52.5047C25.8391 52.7342 26.0244 52.9232 26.2557 52.9232H26.6375L26.063 57.5983L23.563 50.4451C23.4804 50.2065 23.2216 50.0651 22.9811 50.1404C20.5288 50.904 18.6566 53.0295 18.3336 55.6964L18.0069 59.5309C17.9133 60.6414 18.7888 61.5995 19.9066 61.5995L34.6956 61.6142C35.8135 61.6142 36.6927 60.6597 36.5991 59.5437L36.2723 55.6965C35.9511 53.0276 34.077 50.9021 31.6248 50.1385L31.6265 50.1404Z" fill="#266AFD"/>
<path d="M27.3156 49.3988C30.1185 49.3988 32.3891 47.1283 32.3891 44.3254C32.3891 41.5226 30.1167 39.252 27.3156 39.252C24.5146 39.252 22.2422 41.5243 22.2422 44.3254C22.2422 47.1264 24.5145 49.3988 27.3156 49.3988Z" fill="#266AFD"/>
<path d="M57.6597 29.0979C57.4192 29.0245 57.1604 29.1658 57.0778 29.4026L54.5778 36.5558L54.0033 31.8807H54.3851C54.6163 31.8807 54.8017 31.6917 54.8017 31.4622V30.1774C54.8017 29.9461 54.6145 29.7607 54.3851 29.7607H52.2889C52.0595 29.7607 51.8723 29.9461 51.8723 30.1774V31.4622C51.8723 31.6917 52.0576 31.8807 52.2889 31.8807H52.6707L52.0962 36.5558L49.5962 29.4026C49.5136 29.164 49.2548 29.0227 49.0143 29.0979C46.562 29.8615 44.6898 31.987 44.3668 34.6539L44.0401 38.4884C43.9465 39.5989 44.822 40.557 45.9399 40.557L60.7288 40.5717C61.8467 40.5717 62.7259 39.6172 62.6323 38.5012L62.3055 34.654C61.9843 31.9851 60.1103 29.8596 57.658 29.0961L57.6597 29.0979Z" fill="#266AFD"/>
<path d="M53.3526 28.3569C56.1554 28.3569 58.4261 26.0863 58.4261 23.2834C58.4261 20.4806 56.1537 18.21 53.3526 18.21C50.5515 18.21 48.2792 20.4823 48.2792 23.2834C48.2792 26.0844 50.5515 28.3569 53.3526 28.3569Z" fill="#266AFD"/>
</g>
<defs>
<clipPath id="clip0_0_300">
<rect width="81" height="81" fill="white"/>
</clipPath>
</defs>
</svg>
