<svg width="81" height="81" viewBox="0 0 81 81" fill="none" xmlns="http://www.w3.org/2000/svg">
<g clip-path="url(#clip0_0_292)">
<rect width="81" height="81" rx="10.5" fill="white"/>
<path d="M58.9009 22.0975C54.8558 18.0469 51.8167 18.6544 51.8167 18.6544L37.6452 32.8244L21.4492 49.0184L18.6171 62.3778L31.9776 59.5452L62.3465 29.1828C62.3465 29.1828 62.9526 26.1467 58.9009 22.0975ZM31.182 57.9382L26.6259 58.9187C26.1869 58.0952 25.6574 57.2762 24.6898 56.3046C23.7218 55.3366 22.8978 54.8056 22.0737 54.3676L23.0543 49.8104L24.3723 48.4979C24.3723 48.4979 26.8539 48.5464 29.647 51.345C32.4446 54.1456 32.4981 56.6196 32.4981 56.6196L31.182 57.9382Z" fill="#266AFD"/>
<path d="M27.5309 39.1216L29.445 37.208L20.7572 28.5197L28.5189 20.758L30.3125 22.5516L27.8944 24.9696C27.3649 25.4972 27.3659 26.3552 27.8944 26.8827C28.4219 27.4122 29.278 27.4122 29.8075 26.8827L32.2255 24.4646L35.5332 27.7702L33.1141 30.1903C32.5856 30.7178 32.5856 31.5758 33.1151 32.1034C33.4051 32.3939 33.7926 32.5089 34.1731 32.4799L39.1198 27.5322L30.2605 18.6729C29.3005 17.7129 27.6594 17.7889 26.6044 18.8444L18.8436 26.6067C17.7891 27.6617 17.7126 29.3008 18.6731 30.2628L27.5309 39.1216Z" fill="#266AFD"/>
<path d="M62.3293 50.7395L53.4755 41.8857L48.4089 46.9524C48.4409 47.2469 48.5514 47.5369 48.7779 47.7634C49.3054 48.2929 50.1609 48.2929 50.6899 47.7634L53.109 45.3449L56.4156 48.6525L53.9965 51.071C53.468 51.5986 53.468 52.4566 53.9965 52.9836C54.5261 53.5136 55.3816 53.5136 55.9106 52.9836L58.3287 50.5655L60.2448 52.4821C60.2438 52.4821 60.2438 52.4821 60.2438 52.4821L52.4835 60.2443L43.8007 51.5616L41.8867 53.4746L50.7414 62.3289C51.7025 63.2894 53.342 63.2129 54.3976 62.1594L62.1583 54.3976C63.2153 53.3406 63.2903 51.7011 62.3293 50.7395Z" fill="#266AFD"/>
</g>
<defs>
<clipPath id="clip0_0_292">
<rect width="81" height="81" fill="white"/>
</clipPath>
</defs>
</svg>
